<?xml version="1.0" encoding="utf-8"?>
<!-- Generator: Adobe Illustrator 24.3.0, SVG Export Plug-In . SVG Version: 6.00 Build 0)  -->
<svg version="1.2" baseProfile="tiny" id="Vrstva_1"
	 xmlns="http://www.w3.org/2000/svg" xmlns:xlink="http://www.w3.org/1999/xlink" x="0px" y="0px" viewBox="0 0 767.8 345.6"
	 overflow="visible" xml:space="preserve">
<linearGradient id="SVGID_1_" gradientUnits="userSpaceOnUse" x1="767.7728" y1="172.8105" x2="-9.094947e-13" y2="172.8105">
	<stop  offset="0" style="stop-color:#6A8E93"/>
	<stop  offset="1" style="stop-color:#CE3C54"/>
</linearGradient>
<path fill="url(#SVGID_1_)" d="M704.7,97.1c17.6,1.3,35.2,2.7,52.8,3.5c3.4,0.1,6.9-2.4,10.3-3.6c-0.2-1.3-0.3-2.5-0.5-3.8
	c-31.4-7-62.7-14.1-94.1-21.1c27.7-2.2,56.2,5.3,82.1-9.1c0-1.3,0-2.6,0-3.9c-36.3-2.4-72.5-4.9-108.8-7.3
	c21-4.7,42.5-6.8,59.9-20.5c-0.2-0.8-0.4-1.7-0.6-2.5c-22.4,3-44.8,5.9-67.2,8.9c-0.1-0.6-0.2-1.2-0.2-1.8c2.7-2.4,5.4-4.8,9.4-8.4
	c-25.6,4.8-49.3,9.2-74.4,13.9c2.9-6.5,4.9-11,7.8-17.5c-8.3,0.7-14.9,0.2-20.9,1.9c-11.1,3.1-22.2,6.5-32.5,11.5
	c-30.5,14.8-63,22.9-95.5,31.5c-8.4,2.2-19-0.3-26.4-6h0c-4.3-3.6-7.9-15.9-9.4-21.2c-0.9-3.2,0.3-5,3.4-5.8
	c6.2-1.6,12.3-2.2,18.4,0.2c1.8,0.7,3.9,0.9,5.8,1.3c0.2-0.3,0.5-0.7,0.7-1c-1.5-2-2.6-4.5-4.5-6c-6.5-4.8-13.2-9.2-19.8-13.7
	c-1.5-1-3.3-1.7-4.4-3.1C389.2,5.1,380.8,0,369.6,0c-5.7,0-19.4,5.9-22.5,10.6c-0.2,0.3-0.4,0.7-0.6,1c-2.3,6.2-4.9,12.3-6.9,18.6
	c-0.8,2.6-0.4,5.6-0.7,8.5c-0.2,1.8-1.2,3.7-1,5.5c0.7,9.9,1.1,15.6-2.5,21.9c-3,3.4-7.2,4.9-13.5,3.9c-15.4-2.4-30.9-5.1-46-8.9
	c-11.9-3-23.9-6.8-35-12c-15.4-7.3-30.1-16.3-45.2-24.3c-3.5-1.9-7.5-2.8-12.7-4.6c1.2,7.1,2.2,12.7,3.3,19.2
	c-25.7-0.9-46.8-12.4-68-25.2c3.6,4.9,7.3,9.7,10.9,14.6c-0.4,0.5-0.7,1-1.1,1.5c-19.6-6.6-39.2-13.3-60.2-20.4
	c9,18.8,26.6,22.2,42.4,28.9c-30.4-2.7-60.7-5.4-91.1-8.1c-0.2,1.1-0.4,2.2-0.6,3.3c17.7,17.7,42.5,14.3,64.5,19.1
	C55.3,55.6,27.4,55,0,61.2c20.4,15.6,44.8,9.2,67.6,14C45.7,79.8,23.9,84.4,2,89c-0.1,1.3-0.1,2.6-0.2,3.9c4.7,1.5,9.4,3.6,14.2,4.5
	c5.5,1,11.1,1.2,16.7,1.4c4.9,0.2,9.9,0.1,17.3,0.1c-6.7,3.4-10.9,5.5-15.1,7.7c0,0.9,0.1,1.8,0.1,2.8c7.2,2,14.2,4.4,21.5,5.8
	c10.5,2,9.9-10.3,17.4-14.6c-1.7,8.4-2,16.1-5,22.5c-3.1,6.7-0.6,8.4,4.6,10.2c6.6,2.3,13.1,4.7,19.5,7c0.1,3.5,0.2,6.1,0.3,9.3
	c7.5,1.9,14.9,3.7,23.3,5.9c-4.7,9.7,1.8,10.5,8.6,11.6c7,1.2,15.3,0,18.7,8.9c0.3,0.9,1.8,1.7,2.8,2c10.5,3,21,6,31.6,9
	c2.5,9,5.1,10.8,15.1,10.5c2.2-0.1,5.4-0.2,6.5,1.1c5,6,11.2,6.7,18.3,6.3c2.7-0.2,5.5,1.6,8.3,2.1c5.3,0.8,10.6,1.1,15.8,1.8
	c3.6,0.5,8.3,0.3,10.6,2.5c7,6.3,17.9,7.1,24.3-0.2c5.1-5.8,9.5-2.9,13.8-0.1c3.5,2.4,6.1,6,9.6,9.6c-4.7,3-9.7,5.5-13.9,9.1
	c-9.5,8.2-19.2,16.3-27.7,25.5c-5,5.5-7.1,12.8,0.6,15.9c0.3,7.8-1.7,15.7,1.4,19.8c2.7,3.5,11.2,2.6,17.1,3.6
	c-4.8,20.5-0.7,18.7,15.3,22.1c3.8,13.7,3.8,13.5,17.2,13.9c2.9,0.1,6.8,1.4,8.3,3.6c4.8,6.9,10.2,7.6,17,3.9
	c1.2-12.6,3.7-16.8,11.7-19.3c-2.4,5.2-5.5,9.7-6.5,14.6c-0.7,3.3,0.4,8.3,2.7,10.6c2,2,7.4,2.7,10.1,1.4c4.5-2.2,9.9-4.2,9.8-11.7
	c0-5.6,2.9-11.3,4.5-16.9c2.6,5.2,3.2,10.2,5,14.8c1.3,3.4,3.8,7.9,6.7,8.8c4.7,1.5,10.3,1.5,13.5-4.9c1.2-2.3,5.4-4.2,8.4-4.4
	c14.1-1,14.1-0.8,12.2-14.3c5.7-0.8,11.7-1,17.1-2.6c2.9-0.9,7.4-4.3,7.3-6.3c-0.6-9.1,7.7-10.9,11.6-10.2c9.9,1.6,9.9-4.4,9.8-10.1
	c-0.2-5.9,1.8-8.4,7.4-9.8c7.7-1.8,9.5-7.3,6.7-14.3c-1.3-3.3-2.6-7-5-9.3c-10.8-10.3-22.1-20.2-33.1-30.3c-3-2.7-6-5.4-9-8
	c14.4,3.9,14.4,3.9,28.1-6.7c3.8-2.9,6.8-4.6,11.1,0.6c2.5,3.1,8.5,5.6,12.3,4.8c9.9-1.9,19.3-5.7,29.7-5.9c3.2-0.1,6.1-4.4,9.5-5.3
	c10.4-2.6,21.1-4.4,31.6-6.6c2-0.4,4.4-0.8,5.7-2.1c8.5-8,19.7-8.8,30.1-12.3c11.2-3.7,21.2-10.7,33.5-11.4c0.3,0,0.6-0.2,0.7-0.4
	c4.5-7.9,12.7-7.3,20-8c6.3-0.6,9.8-3,9.6-8c9.7-7.8,25.1-2.8,29.6-16.6c11.9-1.9,23.5-3.7,35.2-5.5c0.1-1,0.3-2,0.4-3
	c-3.5-2.7-7-5.4-11.4-8.7c17.8,0.5,34.4,9.9,53.8,1.4c-20.6-12.7-42.3-17.3-62.3-25.7C697.8,95.9,701.2,96.8,704.7,97.1z"/>
<g>
	<path fill="#FFFFFF" d="M334,168.2h-2.4V181h-2.3v-12.8h-2.4v-2.1h7.1V168.2z"/>
	<path fill="#FFFFFF" d="M345.6,168.2h-4.1v4.2h3.3v2.1h-3.3v4.4h4.1v2.1h-6.4v-14.9h6.4V168.2z"/>
	<path fill="#FFFFFF" d="M358.9,181h-2.2l-3-9.9h0v9.9h-2.1v-14.9h2.5l2.7,8.9h0v-8.9h2.1V181z"/>
	<path fill="#FFFFFF" d="M371.2,169.2v0.4l-2.2,0.2v-0.6c0-0.9-0.4-1.3-1.2-1.3c-0.7,0-1.2,0.4-1.2,1.3v0.2c0,0.9,0.4,1.6,1.9,2.9
		c2.1,1.7,2.8,3,2.8,4.8v0.7c0,2.1-1.3,3.3-3.5,3.3c-2.2,0-3.5-1.2-3.5-3.3v-1l2.2-0.2v1.1c0,0.9,0.4,1.4,1.3,1.4s1.3-0.5,1.3-1.4
		v-0.5c0-0.9-0.4-1.7-2-3c-2.1-1.7-2.8-3-2.8-4.7v-0.3c0-2.1,1.2-3.3,3.4-3.3C369.9,165.9,371.2,167.1,371.2,169.2z"/>
	<path fill="#FFFFFF" d="M378.9,181h-2.3v-14.9h2.3V181z"/>
	<path fill="#FFFFFF" d="M392.4,169.7v7.8c0,2.3-1.4,3.8-3.6,3.8s-3.6-1.4-3.6-3.8v-7.8c0-2.3,1.4-3.8,3.6-3.8
		S392.4,167.3,392.4,169.7z M387.4,169.7v7.8c0,1.1,0.5,1.7,1.4,1.7s1.4-0.6,1.4-1.7v-7.8c0-1.1-0.5-1.7-1.4-1.7
		S387.4,168.6,387.4,169.7z"/>
	<path fill="#FFFFFF" d="M406,181h-2.2l-3-9.9h0v9.9h-2.1v-14.9h2.5l2.7,8.9h0v-8.9h2.1V181z"/>
</g>
<linearGradient id="SVGID_2_" gradientUnits="userSpaceOnUse" x1="182.4144" y1="36.1906" x2="214.7447" y2="36.1906">
	<stop  offset="0" style="stop-color:#39636F"/>
	<stop  offset="1" style="stop-color:#40A8A1"/>
</linearGradient>
<polygon fill="url(#SVGID_2_)" points="182.4,17.1 214.7,35.2 189.1,55.3 "/>
<linearGradient id="SVGID_3_" gradientUnits="userSpaceOnUse" x1="201.3517" y1="42.1063" x2="240.8943" y2="42.1063">
	<stop  offset="0" style="stop-color:#44A7A3"/>
	<stop  offset="1" style="stop-color:#FCE28D"/>
</linearGradient>
<polygon fill="url(#SVGID_3_)" points="240.9,49 214.7,35.2 201.4,45.7 "/>
<linearGradient id="SVGID_4_" gradientUnits="userSpaceOnUse" x1="103.4712" y1="68.2727" x2="213.2537" y2="68.2727">
	<stop  offset="1.385225e-07" style="stop-color:#662C40"/>
	<stop  offset="1" style="stop-color:#E1704E"/>
</linearGradient>
<polygon fill="url(#SVGID_4_)" points="103.5,67.1 179.1,57.4 213.3,79.2 "/>
<linearGradient id="SVGID_5_" gradientUnits="userSpaceOnUse" x1="82.9059" y1="99.4913" x2="167.889" y2="99.4913">
	<stop  offset="0" style="stop-color:#F2D87D"/>
	<stop  offset="1" style="stop-color:#E57451"/>
</linearGradient>
<polygon fill="url(#SVGID_5_)" points="82.9,82.9 89.3,95.2 164.6,116.1 167.9,87.9 "/>
<linearGradient id="SVGID_6_" gradientUnits="userSpaceOnUse" x1="151.8461" y1="162.2179" x2="180.5911" y2="162.2179">
	<stop  offset="0" style="stop-color:#E2704B"/>
	<stop  offset="1" style="stop-color:#CD3C53"/>
</linearGradient>
<polygon fill="url(#SVGID_6_)" points="151.8,179.1 175,185.7 180.6,138.7 "/>
<linearGradient id="SVGID_7_" gradientUnits="userSpaceOnUse" x1="303.6806" y1="260.0141" x2="347.1023" y2="260.0141">
	<stop  offset="0" style="stop-color:#F2D87D"/>
	<stop  offset="1" style="stop-color:#E57451"/>
</linearGradient>
<polygon fill="url(#SVGID_7_)" points="337.2,213.4 347.1,221.9 316.7,306.6 303.7,270.9 "/>
<linearGradient id="SVGID_8_" gradientUnits="userSpaceOnUse" x1="227.7704" y1="179.6676" x2="318.4998" y2="179.6676">
	<stop  offset="0" style="stop-color:#6A8E93"/>
	<stop  offset="1" style="stop-color:#CE3C54"/>
</linearGradient>
<polygon fill="url(#SVGID_8_)" points="318.5,191.4 310.3,175 227.8,168 "/>
<linearGradient id="SVGID_9_" gradientUnits="userSpaceOnUse" x1="293.3955" y1="102.5292" x2="348.2892" y2="102.5292">
	<stop  offset="0" style="stop-color:#F2D87D"/>
	<stop  offset="1" style="stop-color:#E57451"/>
</linearGradient>
<polygon fill="url(#SVGID_9_)" points="293.4,65 321.8,140.1 348.3,117.4 310.8,68.1 "/>
<linearGradient id="SVGID_10_" gradientUnits="userSpaceOnUse" x1="356.8754" y1="68.0826" x2="383.1263" y2="68.0826">
	<stop  offset="0" style="stop-color:#F2D87D"/>
	<stop  offset="1" style="stop-color:#E57451"/>
</linearGradient>
<polygon fill="url(#SVGID_10_)" points="362.4,20.1 356.9,116.1 383.1,27.1 "/>
<linearGradient id="SVGID_11_" gradientUnits="userSpaceOnUse" x1="375.7485" y1="255.4776" x2="428.4182" y2="255.4776">
	<stop  offset="0" style="stop-color:#FDE28C"/>
	<stop  offset="1" style="stop-color:#F8B77B"/>
</linearGradient>
<polygon fill="url(#SVGID_11_)" points="396.7,293.3 428.4,293.3 390.4,217.7 375.7,224.9 "/>
<linearGradient id="SVGID_12_" gradientUnits="userSpaceOnUse" x1="402.0833" y1="244.2877" x2="445.5209" y2="244.2877">
	<stop  offset="0" style="stop-color:#44A7A3"/>
	<stop  offset="1" style="stop-color:#FCE28D"/>
</linearGradient>
<polygon fill="url(#SVGID_12_)" points="402.1,209.8 412.3,209.8 445.5,260 439,278.8 "/>
<linearGradient id="SVGID_13_" gradientUnits="userSpaceOnUse" x1="517.6122" y1="168.9731" x2="554.3961" y2="168.9731">
	<stop  offset="0" style="stop-color:#FDE28C"/>
	<stop  offset="1" style="stop-color:#F8B77B"/>
</linearGradient>
<polygon fill="url(#SVGID_13_)" points="517.6,203.1 554.4,134.8 539.9,198.4 "/>
<linearGradient id="SVGID_14_" gradientUnits="userSpaceOnUse" x1="560.1543" y1="47.5099" x2="581.0205" y2="47.5099">
	<stop  offset="0" style="stop-color:#CC3D53"/>
	<stop  offset="1" style="stop-color:#6A2B41"/>
</linearGradient>
<polygon fill="url(#SVGID_14_)" points="581,23.7 560.2,25.6 563.5,71.3 "/>
<linearGradient id="SVGID_15_" gradientUnits="userSpaceOnUse" x1="569.3825" y1="44.6624" x2="611.7941" y2="44.6624">
	<stop  offset="0" style="stop-color:#39636F"/>
	<stop  offset="1" style="stop-color:#40A8A1"/>
</linearGradient>
<polygon fill="url(#SVGID_15_)" points="574.7,41 611.8,34.1 569.4,55.3 "/>
<linearGradient id="SVGID_16_" gradientUnits="userSpaceOnUse" x1="390.4139" y1="93.6769" x2="473.4474" y2="93.6769">
	<stop  offset="1.385225e-07" style="stop-color:#662C40"/>
	<stop  offset="1" style="stop-color:#E1704E"/>
</linearGradient>
<polygon fill="url(#SVGID_16_)" points="439,68.3 445.5,88.2 390.4,123.3 402.1,130 459.4,99.1 473.4,57.4 "/>
<linearGradient id="SVGID_17_" gradientUnits="userSpaceOnUse" x1="509.6363" y1="92.0197" x2="655.4081" y2="92.0197">
	<stop  offset="0" style="stop-color:#F2D87D"/>
	<stop  offset="1" style="stop-color:#E57451"/>
</linearGradient>
<polygon fill="url(#SVGID_17_)" points="618.5,65 509.6,119.1 655.4,79.2 "/>
<linearGradient id="SVGID_18_" gradientUnits="userSpaceOnUse" x1="567.2034" y1="98.2152" x2="681.4172" y2="98.2152">
	<stop  offset="0" style="stop-color:#44A7A3"/>
	<stop  offset="1" style="stop-color:#FCE28D"/>
</linearGradient>
<polygon fill="url(#SVGID_18_)" points="567.2,113.5 665.7,82.9 681.4,92 "/>
<linearGradient id="SVGID_19_" gradientUnits="userSpaceOnUse" x1="573.7517" y1="162.3561" x2="601.517" y2="162.3561">
	<stop  offset="0" style="stop-color:#6A8E93"/>
	<stop  offset="1" style="stop-color:#CE3C54"/>
</linearGradient>
<polygon fill="url(#SVGID_19_)" points="576.2,184.6 573.8,140.1 601.5,175.2 "/>
<path fill="#FFFFFF" d="M500.7,96.1c-24.4,13.5-54.6,15.3-81.1,2.8c-2-1.4-4.1-2.7-6.3-4c-30.9-17.9-68.1-15.1-95.6,4
	c-25.2,11.8-55.5,11.6-81.5-3c24.3,14.5,41.2,40.2,43.4,70c-2.3,32.6,13.5,65.1,43.3,82.9c0,0,0.1,0,0.1,0c0.3,0.2,0.7,0.4,1,0.6
	c0.3,0.2,0.7,0.4,1,0.6c1.4,0.8,2.8,1.5,4.2,2.2c23.8,16,39.4,43.2,39.4,74.1c0-30.8,15.6-58,39.4-74.1c1.3-0.6,2.6-1.3,3.9-2
	c0.9-0.5,1.9-1,2.8-1.6c12.5-7.5,23.4-18.3,31.2-31.8c9.3-16.1,13-33.8,11.7-51C459.9,136.2,476.6,110.6,500.7,96.1z M368.4,235.6
	c-35,0-63.3-28.3-63.3-63.3s28.3-63.3,63.3-63.3s63.3,28.3,63.3,63.3S403.4,235.6,368.4,235.6z"/>
<linearGradient id="SVGID_20_" gradientUnits="userSpaceOnUse" x1="356.2261" y1="64.9582" x2="382.477" y2="64.9582">
	<stop  offset="0" style="stop-color:#F2D87D"/>
	<stop  offset="1" style="stop-color:#E57451"/>
</linearGradient>
<polyline fill="url(#SVGID_20_)" points="382.5,29.7 362.4,11.3 356.2,118.6 "/>
<linearGradient id="SVGID_21_" gradientUnits="userSpaceOnUse" x1="347.8433" y1="19.6083" x2="394.9836" y2="19.6083">
	<stop  offset="0" style="stop-color:#44A7A3"/>
	<stop  offset="1" style="stop-color:#FCE28D"/>
</linearGradient>
<polygon fill="url(#SVGID_21_)" points="347.8,24.6 374.8,13.7 395,25.6 "/>
<linearGradient id="SVGID_22_" gradientUnits="userSpaceOnUse" x1="216.5804" y1="146.5654" x2="313.9633" y2="146.5654">
	<stop  offset="0" style="stop-color:#FDE28C"/>
	<stop  offset="1" style="stop-color:#F8B77B"/>
</linearGradient>
<polygon fill="url(#SVGID_22_)" points="314,165.9 239,127.2 216.6,151.4 "/>
<linearGradient id="SVGID_23_" gradientUnits="userSpaceOnUse" x1="270.7156" y1="238.239" x2="328.4789" y2="238.239">
	<stop  offset="0" style="stop-color:#E2704B"/>
	<stop  offset="1" style="stop-color:#CD3C53"/>
</linearGradient>
<polygon fill="url(#SVGID_23_)" points="328.5,209.8 290.4,266.7 270.7,266.7 "/>
<linearGradient id="SVGID_24_" gradientUnits="userSpaceOnUse" x1="332.016" y1="264.2481" x2="353.1995" y2="264.2481">
	<stop  offset="0" style="stop-color:#39636F"/>
	<stop  offset="1" style="stop-color:#40A8A1"/>
</linearGradient>
<polygon fill="url(#SVGID_24_)" points="353.2,293.9 353.2,221.9 332,306.6 "/>
<linearGradient id="SVGID_25_" gradientUnits="userSpaceOnUse" x1="423.8021" y1="172.6517" x2="539.8794" y2="172.6517">
	<stop  offset="1.385225e-07" style="stop-color:#662C40"/>
	<stop  offset="1" style="stop-color:#E1704E"/>
</linearGradient>
<polygon fill="url(#SVGID_25_)" points="423.8,179.1 524.8,185.7 539.9,159.6 "/>
</svg>
