<?xml version="1.0" encoding="utf-8"?>
<!-- Generator: Adobe Illustrator 24.3.0, SVG Export Plug-In . SVG Version: 6.00 Build 0)  -->
<svg version="1.2" baseProfile="tiny" id="Vrstva_1"
	 xmlns="http://www.w3.org/2000/svg" xmlns:xlink="http://www.w3.org/1999/xlink" x="0px" y="0px" viewBox="0 0 70.9 126.5"
	 overflow="visible" xml:space="preserve">
<g>
	<circle fill="#FFFFFF" cx="37.9" cy="33" r="33"/>
	<circle fill="#FFFFFF" cx="37.9" cy="93.5" r="33"/>
	<rect y="0" fill="#FFFFFF" width="39" height="126.5"/>
	<g>
		<g>
			<path fill="#1E1E1C" d="M36.6,34.2c-0.1,0.2-0.4,0.9-0.1,1.8c0.2,0.6,0.6,1,0.8,1.2c0.2,0.2,0.5,0.3,0.8,0.5
				c0.4,0.2,0.8,0.3,1.2,0.4l1.5-1.3c-0.4,0-0.8-0.1-1.3-0.2c-0.4-0.1-0.7-0.2-0.9-0.4c-0.2-0.1-0.6-0.2-1-0.5
				C36.8,35.1,36.6,34.5,36.6,34.2z"/>
			<path fill="#1E1E1C" d="M39.5,33.7c0.2,0.1,0.4,0.1,0.6,0.1c0.3,0,0.5,0,0.7,0c0.2,0,0.4-0.1,0.7-0.1c0.2,0,0.4,0,0.6,0
				c0,0,0.1-0.1,0.1-0.3c0-0.2,0-0.3-0.1-0.3c-0.3-0.8-0.6-1.7-0.9-2.6c-0.3-0.9-0.7-1.6-1-2.4c0,0-0.1-0.2-0.3-0.3
				c-0.2-0.1-0.3-0.1-0.4,0c-0.1,0-0.2,0.1-0.3,0.2c-0.2,0.2-0.1,0.5-0.1,0.5c0,0.2,0,0.5,0,0.7c0,0.2-0.1,0.4-0.1,0.6
				c0,0.4,0,0.9,0.1,1.5C39.1,32.3,39.3,33.1,39.5,33.7z"/>
			<path fill="#1E1E1C" d="M34.1,29.3c0.2-0.2,0.8-0.6,1.8-0.6c0.5,0,0.8,0.2,1,0.3c0.2,0.1,0.4,0,0.5-0.1c0.2-0.2,0.2-0.5-0.1-0.7
				c-0.1-0.1-0.3-0.4-0.6-0.5c-0.4-0.2-0.7-0.2-0.9-0.2c-0.3,0-0.7,0.1-1.2,0.3c-0.7,0.4-1.1,0.9-1.3,1.2c-0.1,0.2-0.2,0.4-0.1,0.5
				C33.5,29.5,33.8,29.5,34.1,29.3z"/>
			<path fill="#1E1E1C" d="M42.3,29.1c0.2-0.1,0.6-0.2,1.1-0.1c0.9,0.1,1.5,0.7,1.7,0.9c0.3,0.3,0.6,0.4,0.7,0.2
				c0.1-0.1,0.1-0.3,0-0.5c-0.1-0.3-0.4-0.9-1.1-1.3c-0.4-0.3-0.9-0.4-1.1-0.5c-0.1,0-0.5-0.1-0.9,0.1c-0.3,0.1-0.6,0.3-0.7,0.4
				c-0.3,0.2-0.3,0.5-0.2,0.7C42,29.1,42.2,29.1,42.3,29.1z"/>
			<path fill="#1E1E1C" d="M37.5,7.5C23.3,7.5,11.7,19,11.7,33.2c0,6.8,2.6,13,7,17.6l1-2.4c0,0,0,0,0,0c0-0.1,0-0.1,0.1-0.2
				c0.4-1.2,0.8-2.3,1-3.4c0.1-0.6,0.4-1.4,1-2.3c0.2-0.3,0.4-0.5,0.6-0.7c0.1-0.4,0.3-1,0.7-1.6c0.5-0.8,1.1-1.4,1.5-1.7
				c0.5-0.3,1.2-0.6,2-0.8c0.6-0.2,1.2-0.3,1.7-0.4c0.3,0,0.7,0,1.1,0c0.4,0.1,0.7,0.1,1,0.2c0.3,0.6,0.8,1.3,1.5,2
				c0.6,0.7,1.2,1.2,1.7,1.6c-0.2,0.3-0.4,0.6-0.6,1.1c-0.3,0.6-1,1.9-1.4,3.5c-0.3,1-0.6,2.5-0.7,4.2c1.1-0.3,2.5-0.8,4.1-1.6
				c1.4-0.7,2.5-1.5,3.4-2.3c0,0,0.2-0.1,0.4,0c0.2,0.1,0.3,0.2,0.3,0.2c0.4,0.8,0.9,1.6,1.6,2.5c0.9,1.2,1.8,2.1,2.6,2.7l1.1,0.6
				c0.2,0.2,0.6,0.2,1,0.3c0.2,0.1,0.4,0.1,0.6,0.1c0.3-1.6,0.6-3.6,0.4-6c-0.1-1.7-0.4-3.2-0.7-4.5c0-0.1,0-0.3,0-0.5
				c0.1-0.4,0.2-0.7,0.3-0.8c0.7-0.7,1.5-1.6,2.2-2.8c0.5-0.9,0.9-1.7,1.1-2.4c0-0.3,0-0.7,0.1-1.1c0.1-0.4,0.3-0.8,0.4-1
				c0.2-0.5,0.4-1.1,0.6-1.8c0.3-1.1,0.4-2,0.4-2.8c0-0.4,0.1-0.8,0-1.3c0-0.5-0.1-1-0.2-1.4c0-0.7,0-1.6-0.3-2.6
				c-0.3-1.2-0.7-2.2-1-2.8c-0.2-0.4-0.5-0.9-1-1.4c-0.5-0.5-0.9-0.9-1.3-1.1c-0.4-0.4-1-0.9-1.7-1.4c0,0-0.6-0.4-1.3-0.8
				c-1.9-1-4.4-1.2-5-1.3c-0.2,0-0.4-0.1-0.7-0.1c-5.3-0.4-9.7,4.7-11.9,7.6c-1.2,1.7-2.9,3.9-5.3,6.1c-2,1.8-4,3-5.6,3.9
				c0.4,0.7,1,1.5,1.9,2.3c1.8,1.6,3.8,2.2,4.8,2.4c-1.1,1.3-2.4,3.1-3.6,5.2c-0.9,1.6-1.2,2.3-1.4,2.9c-2.2-3.5-3.4-7.7-3.4-12.2
				c0-13,10.5-23.5,23.5-23.5S61,20.3,61,33.2c0,13-10.5,23.5-23.5,23.5c-5.9,0-11.4-2.2-15.5-5.8l-0.9,2.3
				c4.5,3.7,10.2,5.9,16.4,5.9c14.2,0,25.8-11.5,25.8-25.8S51.8,7.5,37.5,7.5z M39.3,18.9c0.5-0.1,1-0.1,1.4-0.1
				c0.3,0,0.6,0,0.9,0.1c3.2,0.5,5.9,3,6.4,6.4c0.1,0.4,0.1,0.8,0.1,1.2c-3.2-0.8-5.9-3.2-7.1-6.4c-1.4,2.5-3.9,4.3-7,4.8
				c-0.4,0.1-0.7,0.1-1.1,0.1C33.7,21.9,36.1,19.4,39.3,18.9z M32.6,27.5c1.2-0.6,2.4-1.3,3.7-1.9c1.6-0.8,3.1-1.5,4.6-2.1
				c0.1,0,0.3-0.1,0.5,0c0.2,0.1,0.3,0.2,0.3,0.3l6.2,6.6l0.4,1.4c-0.4,2.1-1.5,6.7-5.2,8.7c-0.3,0.2-0.6,0.3-0.9,0.4
				c-0.1,0.1-0.3,0.1-0.6,0.2c-0.5,0-0.9-0.2-1.1-0.3c-0.2-0.1-0.6-0.3-1-0.3c-0.8-0.1-1.4,0.1-1.6,0.3c-0.2,0.1-0.5,0.1-0.8,0.1
				c-0.7-0.1-1.2-0.5-1.4-0.6c-0.7-0.5-3.2-2.6-4-6.3C31.2,30.8,32.2,28.4,32.6,27.5z"/>
		</g>
		<g>
			<path fill="#1E1E1C" d="M64.7,99.9c-1.2,4.8-3.6,9.4-7.4,13.1c-10.9,10.9-28.6,10.9-39.5,0s-10.9-28.6,0-39.5
				c10.9-10.9,28.6-10.9,39.5,0c5,5,7.7,11.4,8.1,18l2.7-1.2c-0.7-6.8-3.6-13.5-8.9-18.7c-12-12-31.4-12-43.4,0s-12,31.4,0,43.4
				s31.4,12,43.4,0c5.7-5.7,8.7-13.2,9-20.7l-2.9,1.1c0,0,0,0,0,0"/>
		</g>
		<g>
			<path fill="#1E1E1C" d="M64.7,39.9c-1.2,4.8-3.6,9.4-7.4,13.1c-10.9,10.9-28.6,10.9-39.5,0s-10.9-28.6,0-39.5s28.6-10.9,39.5,0
				c5,5,7.7,11.4,8.1,18l2.7-1.2c-0.7-6.8-3.6-13.5-8.9-18.7c-12-12-31.4-12-43.4,0S3.8,43,15.8,55s31.4,12,43.4,0
				c5.7-5.7,8.7-13.2,9-20.7l-2.9,1.1c0,0,0,0,0,0"/>
		</g>
		<rect x="3.3" y="2.6" fill="#1E1E1C" width="3.7" height="121"/>
		<polygon fill="#1E1E1C" points="7.1,2.4 38,2.4 23.8,7.1 14.8,14.1 9.6,23.1 7.7,32.7 10.4,44.7 17.1,54.6 23.3,58.8 34.1,62.8 
			22.1,67.5 14.8,74.5 9.4,84 8.3,95.2 11.1,107 23.8,119.2 37.4,123.9 3.4,123.9 3.4,2.4 		"/>
		<path fill="#1E1E1C" d="M37.4,68.6c-13.7,0-24.8,11.1-24.8,24.8c0,13.7,11.1,24.8,24.8,24.8s24.8-11.1,24.8-24.8
			C62.3,79.7,51.2,68.6,37.4,68.6z M37.4,115.8c-11.9,0-21.5-10-21.5-22.4C16,81,25.6,71,37.4,71s21.5,10,21.5,22.4
			C58.9,105.8,49.3,115.8,37.4,115.8z"/>
		<path fill="#1E1E1C" d="M37.4,73.7c-10.4,0-18.9,8.8-18.9,19.7c0,10.9,8.5,19.7,18.9,19.7s18.9-8.8,18.9-19.7
			C56.4,82.5,47.9,73.7,37.4,73.7z M37.4,110c-8.8,0-15.9-7.4-15.9-16.6c0-9.2,7.1-16.6,15.9-16.6s15.9,7.4,15.9,16.6
			C53.4,102.6,46.2,110,37.4,110z"/>
		<ellipse fill="#1E1E1C" cx="37.4" cy="93.4" rx="13.6" ry="14.1"/>
	</g>
</g>
</svg>
