<?xml version="1.0" encoding="utf-8"?>
<!-- Generator: Adobe Illustrator 24.3.0, SVG Export Plug-In . SVG Version: 6.00 Build 0)  -->
<svg version="1.2" baseProfile="tiny" id="Vrstva_1"
	 xmlns="http://www.w3.org/2000/svg" xmlns:xlink="http://www.w3.org/1999/xlink" x="0px" y="0px" viewBox="0 0 196.9 289.6"
	 overflow="visible" xml:space="preserve">
<g>
	<circle fill="#FFFFFF" cx="98.5" cy="191.1" r="59.3"/>
	<path fill="#FFFFFF" stroke="#000000" stroke-width="7" stroke-miterlimit="10" d="M3.5,3.5v189.3h0c0.9,51.7,43.1,93.3,94.9,93.3
		s94.1-41.6,94.9-93.3h0V3.5H3.5z"/>
	<linearGradient id="SVGID_1_" gradientUnits="userSpaceOnUse" x1="21.1033" y1="191.1252" x2="175.8267" y2="191.1252">
		<stop  offset="0" style="stop-color:#B49276"/>
		<stop  offset="4.789824e-02" style="stop-color:#BC9A7D"/>
		<stop  offset="0.2543" style="stop-color:#DCB998"/>
		<stop  offset="0.4361" style="stop-color:#F0CEAA"/>
		<stop  offset="0.5727" style="stop-color:#F8D5B0"/>
		<stop  offset="1" style="stop-color:#FEEFDA"/>
	</linearGradient>
	<path fill="url(#SVGID_1_)" d="M98.5,113.8c-42.7,0-77.4,34.6-77.4,77.4s34.6,77.4,77.4,77.4s77.4-34.6,77.4-77.4
		S141.2,113.8,98.5,113.8z M144.3,228.8l-11.8-19.7l-10.2-3.4l-5.8,4.4l9.2-13.6l2.7-14l1.4-13.3l-11.6-15.7l-20.8-3.4l-15.3,12.6
		L78,196.2l-12.9,2.7l-15.2,26.2c-6.8-9.6-10.7-21.3-10.7-34c0-32.8,26.6-59.3,59.3-59.3s59.3,26.6,59.3,59.3
		C157.8,205.4,152.7,218.6,144.3,228.8z"/>
	<g>
		<path d="M166.6,207.9c-2.9,12.1-9.1,23.5-18.6,32.9c-27.4,27.4-71.9,27.4-99.4,0c-27.4-27.4-27.4-71.9,0-99.4s71.9-27.4,99.4,0
			c12.6,12.6,19.4,28.7,20.4,45.2l6.7-3.1c-1.7-17.2-9.1-33.9-22.3-47.1c-30.2-30.2-79.1-30.2-109.2,0s-30.2,79.1,0,109.2
			s79.1,30.2,109.2,0c14.4-14.4,21.9-33.1,22.6-52l-7.2,2.8c0,0-0.1,0-0.1,0"/>
	</g>
	<g>
		<g>
			<g>
				<linearGradient id="SVGID_2_" gradientUnits="userSpaceOnUse" x1="26.6316" y1="49.6607" x2="56.1849" y2="49.6607">
					<stop  offset="0" style="stop-color:#B49276"/>
					<stop  offset="4.789824e-02" style="stop-color:#BC9A7D"/>
					<stop  offset="0.2543" style="stop-color:#DCB998"/>
					<stop  offset="0.4361" style="stop-color:#F0CEAA"/>
					<stop  offset="0.5727" style="stop-color:#F8D5B0"/>
					<stop  offset="1" style="stop-color:#FEEFDA"/>
				</linearGradient>
				<path fill="url(#SVGID_2_)" d="M26.6,28.1h16.1c6.6,0,12,5.3,12,12.1c0,4-1.5,6.5-4.3,8.9v0.1c4.1,3.2,5.8,6.2,5.8,10.7
					c0,6-4.4,11.5-12,11.5H26.6V28.1z"/>
				<linearGradient id="SVGID_3_" gradientUnits="userSpaceOnUse" x1="56.8013" y1="48.9424" x2="97.4458" y2="48.9424">
					<stop  offset="0" style="stop-color:#B49276"/>
					<stop  offset="4.789824e-02" style="stop-color:#BC9A7D"/>
					<stop  offset="0.2543" style="stop-color:#DCB998"/>
					<stop  offset="0.4361" style="stop-color:#F0CEAA"/>
					<stop  offset="0.5727" style="stop-color:#F8D5B0"/>
					<stop  offset="1" style="stop-color:#FEEFDA"/>
				</linearGradient>
				<path fill="url(#SVGID_3_)" d="M76.2,26.6h1.7l19.5,44.6H87l-2-4.5H69.2l-1.9,4.5H56.8L76.2,26.6z"/>
				<linearGradient id="SVGID_4_" gradientUnits="userSpaceOnUse" x1="101.7206" y1="49.6607" x2="131.2739" y2="49.6607">
					<stop  offset="0" style="stop-color:#B49276"/>
					<stop  offset="4.789824e-02" style="stop-color:#BC9A7D"/>
					<stop  offset="0.2543" style="stop-color:#DCB998"/>
					<stop  offset="0.4361" style="stop-color:#F0CEAA"/>
					<stop  offset="0.5727" style="stop-color:#F8D5B0"/>
					<stop  offset="1" style="stop-color:#FEEFDA"/>
				</linearGradient>
				<path fill="url(#SVGID_4_)" d="M101.7,28.1h16.1c6.6,0,12,5.3,12,12.1c0,4-1.5,6.5-4.3,8.9v0.1c4.1,3.2,5.8,6.2,5.8,10.7
					c0,6-4.4,11.5-12,11.5h-17.6V28.1z"/>
				<linearGradient id="SVGID_5_" gradientUnits="userSpaceOnUse" x1="131.8876" y1="48.9424" x2="172.5321" y2="48.9424">
					<stop  offset="0" style="stop-color:#B49276"/>
					<stop  offset="4.789824e-02" style="stop-color:#BC9A7D"/>
					<stop  offset="0.2543" style="stop-color:#DCB998"/>
					<stop  offset="0.4361" style="stop-color:#F0CEAA"/>
					<stop  offset="0.5727" style="stop-color:#F8D5B0"/>
					<stop  offset="1" style="stop-color:#FEEFDA"/>
				</linearGradient>
				<path fill="url(#SVGID_5_)" d="M151.3,26.6h1.7l19.5,44.6H162l-2-4.5h-15.7l-1.9,4.5h-10.5L151.3,26.6z"/>
			</g>
			<linearGradient id="SVGID_6_" gradientUnits="userSpaceOnUse" x1="26.6316" y1="98.8585" x2="65.4883" y2="98.8585">
				<stop  offset="0" style="stop-color:#B49276"/>
				<stop  offset="4.789824e-02" style="stop-color:#BC9A7D"/>
				<stop  offset="0.2543" style="stop-color:#DCB998"/>
				<stop  offset="0.4361" style="stop-color:#F0CEAA"/>
				<stop  offset="0.5727" style="stop-color:#F8D5B0"/>
				<stop  offset="1" style="stop-color:#FEEFDA"/>
			</linearGradient>
			<path fill="url(#SVGID_6_)" d="M26.6,77.3h15.5c13.1,0,23.3,9.4,23.3,21.5c0,11.5-9.1,21.7-23.3,21.7H26.6V77.3z"/>
			<linearGradient id="SVGID_7_" gradientUnits="userSpaceOnUse" x1="74.1301" y1="98.8614" x2="122.1277" y2="98.8614">
				<stop  offset="0" style="stop-color:#B49276"/>
				<stop  offset="4.789824e-02" style="stop-color:#BC9A7D"/>
				<stop  offset="0.2543" style="stop-color:#DCB998"/>
				<stop  offset="0.4361" style="stop-color:#F0CEAA"/>
				<stop  offset="0.5727" style="stop-color:#F8D5B0"/>
				<stop  offset="1" style="stop-color:#FEEFDA"/>
			</linearGradient>
			<path fill="url(#SVGID_7_)" d="M98.1,75.8c14,0,24,10.1,24,23c0,12.9-10,23-24,23c-14.1,0-24-10.2-24-23
				C74.1,86,84,75.8,98.1,75.8z"/>
			<linearGradient id="SVGID_8_" gradientUnits="userSpaceOnUse" x1="129.7351" y1="99.5797" x2="172.7538" y2="99.5797">
				<stop  offset="0" style="stop-color:#B49276"/>
				<stop  offset="4.789824e-02" style="stop-color:#BC9A7D"/>
				<stop  offset="0.2543" style="stop-color:#DCB998"/>
				<stop  offset="0.4361" style="stop-color:#F0CEAA"/>
				<stop  offset="0.5727" style="stop-color:#F8D5B0"/>
				<stop  offset="1" style="stop-color:#FEEFDA"/>
			</linearGradient>
			<path fill="url(#SVGID_8_)" d="M129.7,77.3h10.2l11.4,23.3l11.4-23.3h10v43.2h-10.8v-19.2l-9.7,20.7h-1.8l-9.7-20.8v19.4h-10.9
				V77.3z"/>
		</g>
		<g>
			<g>
				<path d="M26.6,28.1h16.1c6.6,0,12,5.3,12,12.1c0,4-1.5,6.5-4.3,8.9v0.1c4.1,3.2,5.8,6.2,5.8,10.7c0,6-4.4,11.5-12,11.5H26.6
					V28.1z M44.2,69.2c6,0,9.5-4.5,9.5-9.4c0-3.7-1.9-7.5-6.4-10.3v-0.6c3.7-2.4,4.9-5.3,4.9-8.8c0-5.6-4.3-10.1-9.5-10.1H29.1v39.2
					H44.2z M33.9,31.1h10.8l1.2,0.4h-12V31.1z M33.9,32.4h13.8l-0.1-0.1l0.5,0.4H33.9V32.4z M33.9,33.9h15.3l0.3,0.4H33.9V33.9z
					 M33.9,35.3H41c3.7,0,6.3,2.6,6.3,6c0,3.6-2.6,6-6.3,6h-7.1V35.3z M33.9,48.2h13.3l-0.5,0.4H33.9V48.2z M33.9,49.6h12.6l0.5,0.4
					h-13V49.6z M33.9,51h14.4l0.3,0.3H33.9V51z M33.9,52.3h8.4c3.7,0,6.2,2.7,6.2,5.8c0,3.5-2.5,5.8-6.2,5.8h-8.4V52.3z M33.9,65.2
					h17.4l-0.3,0.4H33.9V65.2z M33.9,66.7h16L49.4,67H33.9V66.7z M33.9,68.1H47l-2.8,0.4H33.9V68.1z M41,45.3c2.3,0,3.9-1.7,3.9-4
					c0-2.2-1.6-4-3.9-4h-4.6v8H41z M42.2,61.8c2.3,0,3.7-1.4,3.7-3.7c0-2.1-1.5-3.8-3.7-3.8h-5.9v7.6H42.2z M50.3,35.3l0.1,0.4h-5.3
					l-0.7-0.4H50.3z M45.4,46.7H49l-0.4,0.4H45L45.4,46.7z M45.8,63.8h6.3l-0.1,0.3h-6.7L45.8,63.8z M49.8,52.4l0.3,0.4h-3.7
					L46,52.4H49.8z M46.3,36.8h4.6l0.1,0.4h-4.4L46.3,36.8z M46.7,45.3h3.3l-0.3,0.4h-3.4L46.7,45.3z M47.2,38.2h4.1v0.3h-4
					L47.2,38.2z M47.5,62.4h5.1l-0.1,0.4h-5.3L47.5,62.4z M47.5,43.9h3.3l-0.2,0.4h-3.3L47.5,43.9z M51,53.8l0.3,0.4h-3.5l-0.3-0.4
					H51z M47.7,39.6h3.7v0.4h-3.7L47.7,39.6z M47.9,42.5h3.4l-0.1,0.4h-3.4L47.9,42.5z M47.9,41h3.5v0.4h-3.5V41z M48.5,61H53
					l-0.1,0.4h-4.6L48.5,61z M51.8,55.3l0.2,0.4h-3.4l-0.2-0.4H51.8z M48.9,59.5h4.1v0.4h-4.2L48.9,59.5z M48.9,56.7h3.5l0.1,0.4H49
					L48.9,56.7z M49.1,58.1h3.8v0.4h-3.8V58.1z"/>
				<path d="M76.2,26.6h1.7l19.5,44.6H86.9l-2-4.5H69.2l-1.9,4.5H56.8L76.2,26.6z M65.5,69.2l11.2-26.1h0.9l11,26.1H94L77.1,30.5
					L60.2,69.2H65.5z M64.6,60.7h3.7L68.1,61h-3.7L64.6,60.7z M65.2,59.2h3.7l-0.2,0.4h-3.6L65.2,59.2z M65.9,57.8h3.6l-0.2,0.4
					h-3.6L65.9,57.8z M66.5,56.4h3.6l-0.2,0.4h-3.5L66.5,56.4z M67.2,54.9h3.6l-0.2,0.4H67L67.2,54.9z M67.8,53.5h3.6l-0.2,0.4h-3.5
					L67.8,53.5z M68.4,52h3.6l-0.2,0.4h-3.5L68.4,52z M69,50.6h3.6L72.4,51h-3.6L69,50.6z M69.6,49.2h3.6L73,49.5h-3.5L69.6,49.2z
					 M84.2,64.9l-1.5-3.6H71.4l-1.5,3.6H84.2z M70.3,47.7h3.6l-0.2,0.4h-3.6L70.3,47.7z M70.9,46.3h3.6l-0.2,0.4h-3.5L70.9,46.3z
					 M71.5,44.8h3.6l-0.2,0.4h-3.6L71.5,44.8z M71.5,63.6h10.8l0.1,0.4h-11L71.5,63.6z M72.1,43.4h3.6l-0.2,0.4H72L72.1,43.4z
					 M72.1,62.1h9.6l0.2,0.4H72L72.1,62.1z M81.6,59.2l-4.5-10.9h-0.1l-4.6,10.9H81.6z M72.8,42h8.4l0.2,0.4h-8.8L72.8,42z
					 M73.4,40.5h7.2l0.1,0.4h-7.5L73.4,40.5z M74,39.1h6l0.2,0.4h-6.3L74,39.1z M74.7,37.6h4.7l0.1,0.4h-5L74.7,37.6z M75.3,36.2
					h3.5l0.2,0.4h-3.8L75.3,36.2z M75.9,34.8h2.2l0.1,0.4h-2.5L75.9,34.8z M76.5,33.3h0.9l0.2,0.4h-1.3L76.5,33.3z M77.1,32.1
					l0.1,0.3h-0.3L77.1,32.1z M78.4,43.4h3.5l0.1,0.4h-3.4L78.4,43.4z M79,44.8h3.5l0.2,0.4h-3.5L79,44.8z M79.6,46.3h3.5l0.1,0.4
					h-3.5L79.6,46.3z M80.2,47.7h3.5l0.2,0.4h-3.5L80.2,47.7z M80.8,49.2h3.6l0.1,0.4H81L80.8,49.2z M81.4,50.6H85l0.2,0.4h-3.6
					L81.4,50.6z M82,52h3.7l0.1,0.4h-3.6L82,52z M82.6,53.5h3.7l0.2,0.4h-3.7L82.6,53.5z M86.9,54.9l0.1,0.4h-3.7l-0.2-0.4H86.9z
					 M87.5,56.4l0.2,0.4H84l-0.2-0.4H87.5z M88.2,57.8l0.1,0.4h-3.8l-0.2-0.4H88.2z M88.8,59.2l0.2,0.4h-3.9L85,59.2H88.8z
					 M89.5,60.7l0.1,0.4h-3.9l-0.2-0.4H89.5z"/>
				<path d="M101.7,28.1h16.1c6.6,0,12,5.3,12,12.1c0,4-1.5,6.5-4.3,8.9v0.1c4.1,3.2,5.8,6.2,5.8,10.7c0,6-4.4,11.5-12,11.5h-17.6
					V28.1z M119.3,69.2c6,0,9.5-4.5,9.5-9.4c0-3.7-1.9-7.5-6.4-10.3v-0.6c3.7-2.4,4.9-5.3,4.9-8.8c0-5.6-4.3-10.1-9.5-10.1h-13.6
					v39.2H119.3z M109,31.1h10.8l1.2,0.4h-12V31.1z M109,32.4h13.8l-0.1-0.1l0.5,0.4H109V32.4z M109,33.9h15.3l0.3,0.4H109V33.9z
					 M109,35.3h7.1c3.7,0,6.3,2.6,6.3,6c0,3.6-2.6,6-6.3,6H109V35.3z M109,48.2h13.3l-0.5,0.4H109V48.2z M109,49.6h12.6L122,50h-13
					V49.6z M109,51h14.4l0.3,0.3H109V51z M109,52.3h8.4c3.7,0,6.2,2.7,6.2,5.8c0,3.5-2.5,5.8-6.2,5.8H109V52.3z M109,65.2h17.4
					l-0.3,0.4H109V65.2z M109,66.7h16l-0.5,0.4H109V66.7z M109,68.1h13.2l-2.8,0.4H109V68.1z M116.1,45.3c2.3,0,3.9-1.7,3.9-4
					c0-2.2-1.6-4-3.9-4h-4.7v8H116.1z M117.3,61.8c2.3,0,3.7-1.4,3.7-3.7c0-2.1-1.5-3.8-3.7-3.8h-5.9v7.6H117.3z M125.4,35.3
					l0.1,0.4h-5.3l-0.7-0.4H125.4z M120.5,46.7h3.6l-0.4,0.4h-3.6L120.5,46.7z M120.8,63.8h6.3l-0.1,0.3h-6.7L120.8,63.8z
					 M124.9,52.4l0.3,0.4h-3.7l-0.5-0.4H124.9z M121.4,36.8h4.6l0.1,0.4h-4.4L121.4,36.8z M121.8,45.3h3.3l-0.3,0.4h-3.4L121.8,45.3
					z M122.3,38.2h4.1v0.3h-4L122.3,38.2z M122.6,62.4h5.1l-0.1,0.4h-5.3L122.6,62.4z M122.6,43.9h3.3l-0.2,0.4h-3.3L122.6,43.9z
					 M126.1,53.8l0.3,0.4h-3.5l-0.3-0.4H126.1z M122.8,39.6h3.7v0.4h-3.7L122.8,39.6z M123,42.5h3.4l-0.1,0.4h-3.4L123,42.5z
					 M123,41h3.5v0.4H123V41z M123.6,61h4.5l-0.1,0.4h-4.6L123.6,61z M126.9,55.3l0.2,0.4h-3.4l-0.2-0.4H126.9z M124,59.5h4.1v0.4
					H124L124,59.5z M124,56.7h3.5l0.1,0.4h-3.6L124,56.7z M124.2,58.1h3.8v0.4h-3.8V58.1z"/>
				<path d="M151.3,26.6h1.7l19.5,44.6H162l-2-4.5h-15.7l-1.9,4.5h-10.5L151.3,26.6z M140.6,69.2l11.2-26.1h0.9l11,26.1h5.4
					l-16.9-38.7l-16.8,38.7H140.6z M139.7,60.7h3.7l-0.2,0.4h-3.7L139.7,60.7z M140.3,59.2h3.7l-0.2,0.4h-3.6L140.3,59.2z M141,57.8
					h3.6l-0.2,0.4h-3.6L141,57.8z M141.6,56.4h3.6l-0.2,0.4h-3.5L141.6,56.4z M142.2,54.9h3.6l-0.2,0.4H142L142.2,54.9z M142.8,53.5
					h3.6l-0.2,0.4h-3.5L142.8,53.5z M143.4,52h3.6l-0.2,0.4h-3.5L143.4,52z M144.1,50.6h3.6l-0.2,0.4h-3.6L144.1,50.6z M144.7,49.2
					h3.6l-0.2,0.4h-3.5L144.7,49.2z M159.2,64.9l-1.5-3.6h-11.2l-1.5,3.6H159.2z M145.4,47.7h3.6l-0.2,0.4h-3.6L145.4,47.7z
					 M146,46.3h3.6l-0.2,0.4h-3.5L146,46.3z M146.6,44.8h3.6l-0.2,0.4h-3.6L146.6,44.8z M146.6,63.6h10.8l0.1,0.4h-11L146.6,63.6z
					 M147.2,43.4h3.6l-0.2,0.4h-3.5L147.2,43.4z M147.2,62.1h9.6l0.2,0.4h-10L147.2,62.1z M156.7,59.2l-4.5-10.9H152l-4.6,10.9
					H156.7z M147.9,42h8.4l0.2,0.4h-8.8L147.9,42z M148.5,40.5h7.2l0.1,0.4h-7.5L148.5,40.5z M149.1,39.1h6l0.2,0.4H149L149.1,39.1z
					 M149.7,37.6h4.7l0.1,0.4h-5L149.7,37.6z M150.3,36.2h3.5l0.2,0.4h-3.8L150.3,36.2z M151,34.8h2.2l0.1,0.4h-2.5L151,34.8z
					 M151.6,33.3h0.9l0.2,0.4h-1.3L151.6,33.3z M152.1,32.1l0.1,0.3H152L152.1,32.1z M153.5,43.4h3.5l0.1,0.4h-3.4L153.5,43.4z
					 M154.1,44.8h3.5l0.2,0.4h-3.5L154.1,44.8z M154.7,46.3h3.5l0.1,0.4h-3.5L154.7,46.3z M155.3,47.7h3.5l0.2,0.4h-3.5L155.3,47.7z
					 M155.9,49.2h3.6l0.1,0.4h-3.5L155.9,49.2z M156.5,50.6h3.6l0.2,0.4h-3.6L156.5,50.6z M157.1,52h3.7l0.1,0.4h-3.6L157.1,52z
					 M157.7,53.5h3.7l0.2,0.4h-3.7L157.7,53.5z M162,54.9l0.1,0.4h-3.7l-0.2-0.4H162z M162.6,56.4l0.2,0.4H159l-0.2-0.4H162.6z
					 M163.3,57.8l0.1,0.4h-3.8l-0.2-0.4H163.3z M163.9,59.2l0.2,0.4h-3.9l-0.2-0.4H163.9z M164.6,60.7l0.1,0.4h-3.9l-0.2-0.4H164.6z
					"/>
			</g>
			<path d="M26.6,77.3h15.5c13.1,0,23.3,9.4,23.3,21.5c0,11.5-9.1,21.7-23.3,21.7H26.6V77.3z M42.2,118.4c12.6,0,20.6-9.2,20.6-19.7
				c0-11-9-19.5-20.6-19.5H29.4v39.2H42.2z M34.8,80.3h10.3l2.1,0.4H34.8V80.3z M34.8,81.7h15.7l0.8,0.4H34.8V81.7z M34.8,83.2h18.4
				l0.5,0.4H34.8V83.2z M34.8,84.8h7.1c9.4,0,15.1,6.1,15.1,14c0,8.5-6.5,14-15.1,14h-7.1V84.8z M34.8,114.2h19l-0.5,0.4H34.8V114.2
				z M34.8,115.6h16.6l-0.8,0.4H34.8V115.6z M34.8,117.1h12.6l-1.5,0.3H34.8V117.1z M41.9,110.8c7,0,12.3-4.7,12.3-12
				c0-6.7-4.7-11.9-12.3-11.9h-4.4v24H41.9z M47.4,112.8h8.2l-0.3,0.3h-8.9L47.4,112.8z M55.2,84.5L55.2,84.5l0.5,0.4h-7.9l-1.2-0.4
				H55.2z M50.7,111.4h6.5l-0.4,0.4H50L50.7,111.4z M56.7,86l0.4,0.4H51L50.4,86H56.7z M52.8,109.9h5.6l-0.3,0.4h-5.9L52.8,109.9z
				 M58.1,87.4l0.2,0.3h-5.4l-0.4-0.3H58.1z M54.1,108.6h5.1l-0.3,0.4h-5.2L54.1,108.6z M54,88.8h5l0.3,0.4h-4.9L54,88.8z
				 M55.2,107.1h4.8l-0.2,0.4h-4.9L55.2,107.1z M55.2,90.2h4.7l0.2,0.4h-4.6L55.2,90.2z M56,105.8h4.6l-0.1,0.3h-4.6L56,105.8z
				 M56,91.6h4.5l0.1,0.4h-4.5L56,91.6z M56.6,93H61l0.2,0.4h-4.3L56.6,93z M56.7,104.3h4.5l-0.2,0.4h-4.4L56.7,104.3z M57.2,102.9
				h4.3l-0.1,0.4h-4.3L57.2,102.9z M57.2,94.5h4.3l0.1,0.3h-4.3L57.2,94.5z M57.5,95.8h4.2l0.2,0.4h-4.3L57.5,95.8z M57.5,101.5h4.3
				l-0.2,0.4h-4.2L57.5,101.5z M57.7,100.1h4.2v0.4h-4.3L57.7,100.1z M57.7,97.3h4.2v0.4h-4.2V97.3z M57.8,98.6H62V99h-4.2V98.6z"/>
			<path d="M98.1,75.8c14,0,24,10.1,24,23c0,12.9-10,23-24,23c-14.1,0-24-10.2-24-23C74.1,86,84,75.8,98.1,75.8z M98.1,119.7
				c12.3,0,21.2-9.1,21.2-20.9c0-11.7-8.9-21-21.2-21c-12.4,0-21.2,9.3-21.2,21C76.9,110.6,85.7,119.7,98.1,119.7z M77.7,97.3h4
				l-0.1,0.4h-4L77.7,97.3z M77.6,98.7h4v0.4h-4V98.7z M77.6,100.2h4l0.1,0.4h-4L77.6,100.2z M77.8,95.8h4.1l-0.1,0.4h-4L77.8,95.8z
				 M77.8,101.6h4l0.1,0.4h-4.1L77.8,101.6z M78.1,94.4h4.2l-0.1,0.4H78L78.1,94.4z M78,103h4.1l0.1,0.4h-4.1L78,103z M78.4,93h4.2
				l-0.1,0.4h-4.2L78.4,93z M78.9,91.5h4.5l-0.2,0.4h-4.3L78.9,91.5z M79.5,90.1h4.7l-0.3,0.4h-4.5L79.5,90.1z M80.2,88.6h5.1L85,89
				h-5L80.2,88.6z M81.2,87.2h5.5l-0.4,0.4h-5.3L81.2,87.2z M82.2,85.8h6.2l-0.5,0.4h-6L82.2,85.8z M98.1,83.8
				c9.5,0,15.8,6.6,15.8,15.1s-6.2,15.3-15.8,15.3c-9.6,0-15.8-6.8-15.8-15.3S88.5,83.8,98.1,83.8z M83.6,84.3h7.8l-1,0.4h-7.2
				L83.6,84.3z M85.3,82.9H111l0.4,0.4h-10.3l-3-0.2l-2.7,0.2H84.7L85.3,82.9z M98.1,111.9c7.9,0,12.9-5.8,12.9-13
				c0-7.3-5.1-13-12.9-13c-7.9,0-12.9,5.8-12.9,13C85.2,106.1,90.2,111.9,98.1,111.9z M87.5,81.4h21.2l0.4,0.4H86.9L87.5,81.4z
				 M90.5,80h15.2l1,0.4H89.6L90.5,80z M98.1,78.6l3.9,0.3h-7.6L98.1,78.6z M112.6,84.3L112.6,84.3l0.4,0.4h-7.2l-0.8-0.4H112.6z
				 M113.9,85.8l0.4,0.4h-5.9l-0.5-0.4H113.9z M115,87.2l0.3,0.4H110l-0.4-0.4H115z M115.9,88.6l0.2,0.4h-4.8l-0.4-0.4H115.9z
				 M112,90.1h4.6l0.1,0.4h-4.5L112,90.1z M112.8,91.5h4.4l0.1,0.4h-4.3L112.8,91.5z M113.5,93h4.2l0.1,0.4h-4.2L113.5,93z
				 M113.9,94.4h4.2l0.1,0.4h-4.2L113.9,94.4z M114.1,103h4.1l-0.1,0.4h-4.2L114.1,103z M114.3,95.8h4.1l0.1,0.4h-4.1L114.3,95.8z
				 M114.4,101.6h4.1l-0.1,0.4h-4L114.4,101.6z M114.5,100.2h4v0.4h-4.1L114.5,100.2z M114.5,97.3h4v0.4h-4V97.3z M114.6,98.7h4v0.4
				h-4V98.7z"/>
			<path d="M129.7,77.3h10.2l11.4,23.3l11.4-23.3h10v43.2h-10.8v-19.2l-9.7,20.7h-1.8l-9.7-20.8v19.4h-10.9V77.3z M137.9,118.4V92.2
				h1.3l12.1,25.3l12.3-25.3h1v26.3h5.4V79.3h-5.4l-12.3,25.3h-2.1L138,79.3h-5.6v39.2H137.9z M133.6,80.1h3.9l0.1,0.4h-3.9
				L133.6,80.1z M134.3,81.5h3.9l0.1,0.4h-3.8L134.3,81.5z M135.1,82.9h3.9l0.1,0.4h-3.8L135.1,82.9z M135.8,84.4h3.8l0.1,0.4H136
				L135.8,84.4z M136.6,85.8h3.8l0.2,0.4h-3.7L136.6,85.8z M137.4,87.3h3.6l0.2,0.4h-3.6L137.4,87.3z M138.1,88.7h3.6l0.1,0.4h-3.5
				L138.1,88.7z M138.9,90.1h3.5l0.1,0.4h-3.4L138.9,90.1z M139.6,91.6h3.4l0.2,0.4h-3.4L139.6,91.6z M140.4,93h3.4l0.1,0.4h-3.3
				L140.4,93z M141.1,94.5h3.3l0.2,0.4h-3.3L141.1,94.5z M141.8,95.9h3.4l0.1,0.4H142L141.8,95.9z M142.4,97.3h3.4l0.1,0.4h-3.3
				L142.4,97.3z M143.1,98.8h3.4l0.1,0.4h-3.3L143.1,98.8z M143.8,100.2h3.4l0.1,0.4h-3.3L143.8,100.2z M144.5,101.7h3.4l0.1,0.4
				h-3.3L144.5,101.7z M145.2,103.1h3.5l0.2,0.4h-3.4L145.2,103.1z M145.9,104.5h3.3l0.2,0.4h-3.3L145.9,104.5z M146.6,106h3.4
				l0.2,0.4h-3.4L146.6,106z M147.3,107.4h3.5l0.2,0.4h-3.5L147.3,107.4z M151.5,108.9l0.2,0.4h-3.6l-0.2-0.4H151.5z M152.2,110.3
				l0.2,0.4h-3.6l-0.2-0.4H152.2z M152.9,111.7l0.2,0.2l-0.1,0.2h-3.4l-0.2-0.4H152.9z M152.5,113.2l-0.2,0.4h-2.1l-0.2-0.4H152.5z
				 M151.9,114.6l-0.2,0.4h-0.7l-0.2-0.4H151.9z M151.6,115.9l-0.3,0.4l-0.3-0.4H151.6z M165.4,80.1h3.9v0.4h-3.9V80.1z M165.4,81.5
				h3.9v0.4h-3.9V81.5z M165.4,82.9h3.9v0.4h-3.9V82.9z M165.4,84.4h3.9v0.4h-3.9V84.4z M165.4,85.8h3.9v0.4h-3.9V85.8z M165.4,87.3
				h3.9v0.4h-3.9V87.3z M165.4,88.7h3.9v0.4h-3.9V88.7z M165.4,90.1h3.9v0.4h-3.9V90.1z M165.4,91.6h3.9v0.4h-3.9V91.6z M165.4,93
				h3.9v0.4h-3.9V93z M165.4,94.5h3.9v0.4h-3.9V94.5z M165.4,95.9h3.9v0.4h-3.9V95.9z M165.4,97.3h3.9v0.4h-3.9V97.3z M165.4,98.8
				h3.9v0.4h-3.9V98.8z M165.4,100.2h3.9v0.4h-3.9V100.2z M165.4,101.7h3.9v0.4h-3.9V101.7z M165.4,103.1h3.9v0.4h-3.9V103.1z
				 M165.4,104.5h3.9v0.4h-3.9V104.5z M165.4,106h3.9v0.4h-3.9V106z M165.4,107.4h3.9v0.4h-3.9V107.4z M165.4,108.9h3.9v0.4h-3.9
				V108.9z M165.4,110.3h3.9v0.4h-3.9V110.3z M165.4,111.7h3.9v0.4h-3.9V111.7z M165.4,113.2h3.9v0.4h-3.9V113.2z M165.4,114.6h3.9
				v0.4h-3.9V114.6z M165.4,116.1h3.9v0.4h-3.9V116.1z M165.4,117.5h3.9v0.3h-3.9V117.5z"/>
		</g>
	</g>
	<g>
		<path d="M95.8,193.6c-0.2,0.5-1,2.3-0.4,4.5c0.5,1.6,1.4,2.6,1.9,3c0.6,0.4,1.3,0.8,2.1,1.2c1.1,0.5,2.1,0.8,2.9,1l3.8-3.4
			c-0.9,0-2-0.2-3.3-0.5c-0.9-0.3-1.7-0.6-2.4-1c-0.6-0.2-1.6-0.5-2.5-1.3C96.4,195.9,96,194.2,95.8,193.6z"/>
		<path d="M103.3,192.4c0.4,0.1,0.9,0.3,1.5,0.4c0.7,0.1,1.3,0.1,1.7,0c0.5-0.1,1-0.2,1.7-0.2c0.6,0,1.1,0.1,1.5,0.1
			c0.1-0.1,0.3-0.3,0.4-0.7c0.1-0.4-0.1-0.7-0.2-0.8c-0.6-2.1-1.4-4.3-2.3-6.6c-0.8-2.1-1.7-4.1-2.6-6c0-0.1-0.3-0.6-0.8-0.9
			c-0.5-0.2-0.9-0.1-1-0.1c-0.1,0-0.5,0.1-0.8,0.4c-0.5,0.5-0.3,1.2-0.3,1.3c0,0.6,0,1.2-0.1,1.9c-0.1,0.5-0.2,1-0.2,1.4
			c0,1.1,0.1,2.4,0.2,3.7C102.1,188.8,102.7,190.8,103.3,192.4z"/>
		<path d="M89.8,181.2c0.5-0.4,2.1-1.6,4.4-1.5c1.1,0.1,2,0.4,2.6,0.7c0.4,0.2,0.9,0.1,1.2-0.2c0.4-0.4,0.4-1.2-0.1-1.8
			c-0.2-0.3-0.7-0.9-1.5-1.4c-0.9-0.5-1.8-0.5-2.1-0.5c-0.7,0-1.8,0.2-3,0.8c-1.8,0.9-2.8,2.3-3.2,2.9c-0.3,0.5-0.4,1-0.2,1.2
			C88.1,181.8,89,181.8,89.8,181.2z"/>
		<path d="M110.4,180.7c0.6-0.2,1.5-0.4,2.7-0.3c2.3,0.2,3.7,1.7,4.2,2.2c0.7,0.8,1.5,0.9,1.9,0.6c0.2-0.2,0.2-0.8,0-1.3
			c-0.3-0.7-1.1-2.2-2.7-3.4c-1.1-0.8-2.2-1.1-2.8-1.2c-0.4-0.1-1.2-0.2-2.2,0.2c-0.9,0.3-1.4,0.8-1.7,1.1c-0.6,0.5-0.7,1.3-0.4,1.7
			C109.5,180.6,109.9,180.8,110.4,180.7z"/>
		<path d="M98.3,126.3c-35.8,0-64.8,29-64.8,64.8c0,17.1,6.6,32.7,17.5,44.3l2.6-5.9c0,0,0-0.1,0-0.1c0-0.1,0.1-0.3,0.2-0.5
			c1.1-3,1.9-5.8,2.6-8.5c0.3-1.5,1-3.6,2.5-5.7c0.5-0.7,1-1.3,1.5-1.8c0.3-1.1,0.8-2.5,1.7-4.1c1.3-2.1,2.8-3.5,3.8-4.4
			c1.4-0.7,3.1-1.5,5.1-2.1c1.6-0.5,3.1-0.8,4.4-1c0.8,0,1.7,0,2.8,0.1c0.9,0.1,1.8,0.4,2.4,0.6c0.9,1.5,2.1,3.3,3.7,5.1
			c1.5,1.7,3.1,3,4.4,4c-0.4,0.7-0.9,1.6-1.5,2.8c-0.8,1.6-2.4,4.7-3.6,8.9c-0.8,2.6-1.6,6.2-1.9,10.7c2.9-0.8,6.4-2,10.2-4
			c3.5-1.9,6.4-3.9,8.6-5.7c0.1,0,0.5-0.1,0.9,0c0.4,0.1,0.7,0.5,0.7,0.6c1,1.9,2.3,4.1,4.1,6.3c2.3,2.9,4.6,5.2,6.6,6.8l2.8,1.6
			c0.4,0.4,1.4,0.5,2.5,0.8c0.6,0.2,1.1,0.3,1.5,0.3c0.8-3.9,1.4-9.1,1.1-15.1c-0.2-4.3-0.9-8.1-1.7-11.2c-0.1-0.3-0.1-0.8,0-1.3
			c0.1-1,0.6-1.7,0.8-2c1.7-1.6,3.7-3.9,5.5-7c1.3-2.2,2.2-4.3,2.9-6.1c0-0.7,0.1-1.6,0.4-2.7c0.3-1.1,0.7-1.9,1.1-2.5
			c0.5-1.3,1.1-2.7,1.5-4.4c0.7-2.7,0.9-5.1,0.9-7c0.1-0.9,0.1-2,0.1-3.2c-0.1-1.4-0.3-2.6-0.5-3.6c0-1.7-0.1-3.9-0.6-6.4
			c-0.6-3-1.7-5.4-2.6-7.2c-0.5-1-1.3-2.3-2.5-3.6c-1.2-1.3-2.4-2.1-3.3-2.7c-1-1-2.4-2.2-4.3-3.4c0,0-1.6-1.1-3.3-1.9
			c-4.8-2.4-11.1-3.1-12.5-3.2c-0.6-0.1-1.1-0.2-1.7-0.2c-13.2-1-24.5,11.9-29.9,19.2c-2.9,4.4-7.2,9.9-13.3,15.2
			c-5,4.5-9.9,7.6-14,9.9c1,1.7,2.5,3.7,4.7,5.7c4.5,4.1,9.5,5.4,12,5.9c-2.9,3.4-6.1,7.7-9,13c-2.2,4-3,5.8-3.5,7.3
			c-5.4-8.9-8.5-19.4-8.5-30.6c0-32.6,26.4-59,59-59s59,26.4,59,59s-26.4,59-59,59c-14.9,0-28.6-5.6-39-14.7l-2.2,5.8
			c11.2,9.2,25.5,14.7,41.2,14.7c35.8,0,64.8-29,64.8-64.8S134.1,126.3,98.3,126.3z M102.8,155c1.2-0.2,2.4-0.3,3.6-0.2
			c0.8,0,1.5,0.1,2.3,0.2c8,1.2,14.7,7.5,16.1,16c0.2,1,0.2,2,0.2,3c-8.2-1.9-15-8-17.7-16.1c-3.6,6.2-9.9,10.8-17.6,12
			c-0.9,0.1-1.8,0.2-2.7,0.3C88.6,162.5,94.7,156.3,102.8,155z M85.9,176.8c2.9-1.6,6-3.2,9.2-4.7c4-1.9,7.9-3.7,11.7-5.3
			c0.2,0,0.7-0.2,1.3,0.1c0.5,0.2,0.7,0.5,0.8,0.7l15.6,16.6l1,3.4c-0.9,5.2-3.8,16.7-13.1,21.8c-0.7,0.4-1.5,0.8-2.3,1.1
			c-0.3,0.2-0.8,0.3-1.4,0.4c-1.3,0.1-2.3-0.5-2.7-0.7c-0.6-0.3-1.4-0.7-2.5-0.8c-1.9-0.2-3.4,0.3-4.1,0.6c-0.5,0.2-1.2,0.3-2.1,0.3
			c-1.8-0.1-3.1-1.2-3.5-1.6c-1.6-1.2-8.2-6.5-10-15.9C82.3,185.1,84.9,178.9,85.9,176.8z"/>
	</g>
</g>
</svg>
