<?xml version="1.0" encoding="utf-8"?>
<!-- Generator: Adobe Illustrator 24.3.0, SVG Export Plug-In . SVG Version: 6.00 Build 0)  -->
<svg version="1.1" id="Layer_1" xmlns="http://www.w3.org/2000/svg" xmlns:xlink="http://www.w3.org/1999/xlink" x="0px" y="0px"
	 viewBox="0 0 1202.4 2607.8" style="enable-background:new 0 0 1202.4 2607.8;" xml:space="preserve">
<style type="text/css">
	.st0{fill:#F5EDDF;}
	.st1{fill:url(#SVGID_1_);}
	.st2{fill:#FFE7D9;}
	.st3{fill:url(#SVGID_2_);}
	.st4{fill:url(#SVGID_3_);}
	.st5{fill:#FEEED7;}
	.st6{fill:#FBF6ED;}
	.st7{fill:url(#SVGID_4_);}
	.st8{fill:url(#SVGID_5_);}
	.st9{fill:url(#SVGID_6_);}
	.st10{fill:url(#SVGID_7_);}
	.st11{fill:#0C1B30;}
	.st12{fill:#F5E1C9;}
	.st13{fill:url(#SVGID_8_);}
	.st14{fill:url(#SVGID_9_);}
	.st15{fill:url(#SVGID_10_);}
	.st16{fill:#F2E9DA;}
	.st17{fill:url(#SVGID_11_);}
	.st18{fill:url(#SVGID_12_);}
</style>
<rect class="st0" width="1200.6" height="2606.8"/>
<g>
	<g>
		<linearGradient id="SVGID_1_" gradientUnits="userSpaceOnUse" x1="1202.4336" y1="2075.3193" x2="0" y2="2075.3193">
			<stop  offset="0" style="stop-color:#B49175"/>
			<stop  offset="0.2921" style="stop-color:#F7D5B0"/>
			<stop  offset="1" style="stop-color:#FEEFD9"/>
		</linearGradient>
		<path class="st1" d="M1120.8,2158.7c-109,1-219,10-328-6c-39-6-78,1-117-4c-26-3-52,4-74-4c-25-10-52-11-73-20c-17-8-33-10-49-20
			c-4-2-10,0-14-1c-5-2-9-6-14-9c-15-7-32-7-46-15c-18-10-36-14-53-22c-5-3-9-8-14-10c-11-4-23-4-33-10c-20-11-38-25-60-30
			c-43-12-76-33-114-47c-45.9-16.6-89.1-35.9-131.8-56.8v201v142c10.6-1.1,21.1-2,31.7-2.7c0.2-0.3,0.4-0.5,0.5-0.8
			c-0.2,0.3-0.4,0.5-0.5,0.8c31.4-2.3,62.8-3.5,94.5-4.4c129-3,256-19,386-33c15-1,31-2,46-5c17-4,32-5,49-9c7-2,14-1,21-1
			c4-1,7-3,11-3c41-1,81,4,122-2c16-3,31,2,46-3c10-3,18-1,28-2c3-1,4-3,7-4c6-1,12,1,18,0c28-5,54-1,81-3c3-1,7-3,10-4
			c38-1,75-3,113,1c13,2,25,1,38,4c28,6,54,6,81,6c3,0,7,3,10,3c3.1,0.2,6.2,0.3,9.3,0.3v-27.5
			C1175.2,2159.2,1148,2158.7,1120.8,2158.7z M111.4,2160.5c6.1-3.2,12.5-5.7,19.2-7.5C123.9,2154.8,117.5,2157.3,111.4,2160.5z
			 M170,2126.3c5.6-4.3,11-8.8,16.1-13.4C181,2117.6,175.6,2122,170,2126.3z M200.4,2098.7c2.3-2.6,4.6-5.3,6.7-8.1
			C204.9,2093.4,202.7,2096.1,200.4,2098.7z"/>
		<path class="st2" d="M1057.1,2302.7c-2.5-45.7-10.7-89.8-23-133c-27.7-1-55.1,0.3-83,1c-3,1-7,3-10,4c-27,2-53-2-81,3
			c-6,1-12-1-18,0c-3,1-4,3-7,4c-10,1-18-1-28,2c-15,5-30,0-46,3c-41,6-81,1-122,2c-4,0-7,2-11,3c-7,0-14-1-21,1c-17,4-32,5-49,9
			c-15,3-31,4-46,5c-130,14-257,30-386,33c-31.7,0.8-63,2.1-94.5,4.4c-5.2,7.6-10.4,15.5-15.4,23.8c5.1-8.3,10.2-16.2,15.4-23.8
			c-10.5,0.8-21.1,1.7-31.7,2.7v37.5v93.2v203.2v21h147.6h137.7c1.2-0.2,2.3-0.1,3.5,0h5.1h734.3h19.4
			C1062.2,2500.2,1062.9,2402.4,1057.1,2302.7z M7.6,2276.5c-0.9,1-1.8,2-2.7,3C5.8,2278.5,6.8,2277.5,7.6,2276.5
			c0.7-0.7,1.3-1.3,2-1.9C9,2275.2,8.3,2275.8,7.6,2276.5z M20.5,2375.4c7.9-1.5,15.9-2.1,24-2.3
			C36.4,2373.3,28.4,2373.9,20.5,2375.4z M133.3,2367.2c0.5-0.6,1.1-1.1,1.6-1.4C134.4,2366.1,133.8,2366.6,133.3,2367.2z
			 M136.5,2365.6c3.8-0.2,7.5,0.8,11.3,0.2C144,2366.4,140.2,2365.4,136.5,2365.6z M160.6,2357.9c-0.4,0-0.9,0.3-1.3,0.7
			C159.7,2358.2,160.2,2357.9,160.6,2357.9c0.5-0.1,1.1-0.2,1.5-0.3C161.7,2357.8,161.2,2357.9,160.6,2357.9z M182.1,2348.6
			c-1.4,0.7-3.6-0.7-4.3,0c-0.1,0.1-0.2,0.3-0.2,0.6c0-0.3,0.1-0.5,0.2-0.6C178.5,2347.9,180.6,2349.4,182.1,2348.6
			c3.6-2.9,5-5.7,8.6-8.6C187.1,2342.9,185.6,2345.8,182.1,2348.6z M198.1,2336c0.5,0.1,0.9,0,1.1-0.2
			C199,2336,198.6,2336,198.1,2336z M212.1,2318.6c-0.8,0.9-1.6,1.8-2.4,2.6C210.5,2320.4,211.3,2319.6,212.1,2318.6L212.1,2318.6z
			 M595.2,2279.7c-0.7-1.2-1.5-2.4-2.3-3.6C593.7,2277.3,594.5,2278.5,595.2,2279.7z M591.8,2270.2c0-0.5,0-1.1-0.2-1.6
			C591.8,2269.1,591.9,2269.7,591.8,2270.2z M591.6,2271.7c0.1-0.5,0.2-1,0.2-1.5C591.8,2270.8,591.7,2271.2,591.6,2271.7
			c-0.1,0.5-0.2,1.1-0.2,1.5C591.4,2272.8,591.5,2272.3,591.6,2271.7z M583.4,2239c0-0.5,0-1-0.1-1.5
			C583.4,2238,583.4,2238.5,583.4,2239z M583.3,2240.5c-0.1,0.8-0.2,1.6-0.2,2.4C583.1,2242.1,583.2,2241.2,583.3,2240.5z
			 M459.1,2318.2c-22.5,0.8-44.8,1.7-67.1,1.7C414.3,2320,436.6,2319,459.1,2318.2z M302.1,2313.6c-0.6,0-1.2-0.5-1.8-1.1
			C300.9,2313.1,301.5,2313.6,302.1,2313.6c2.5,0.5,4.9,0.9,7.4,1.2C307.1,2314.5,304.6,2314.1,302.1,2313.6z M340.6,2353.9
			c-5,3-10,5-15,7c-3.4,1.7-6.7,3.4-10,5.1c3.3-1.7,6.7-3.5,10-5.1C330.6,2358.9,335.6,2356.9,340.6,2353.9c0.7-0.4,1.5-0.5,2.2-0.4
			C342.1,2353.4,341.4,2353.5,340.6,2353.9z M346.6,2353.9C346.6,2353.9,346.6,2353.9,346.6,2353.9c1-1,2-2,3-3c0,0,0,0,0,0
			C348.6,2351.9,347.6,2352.9,346.6,2353.9z M427.6,2326.9c-10,4-20,8-30,9c-1,0-2,3-3,3c-5,0-7,1-9,2c-3,2-7,2-9,3c-7,2-14,2-21,7
			c-0.4,0.2-0.8,0.3-1.1,0.4c0.4-0.1,0.7-0.2,1.1-0.4c7-5,14-5,21-7c2-1,6-1,9-3c2-1,4-2,9-2c1,0,2-3,3-3
			C407.6,2334.9,417.6,2330.9,427.6,2326.9c1.1-0.4,2.2-0.5,3.4-0.4C429.9,2326.4,428.7,2326.5,427.6,2326.9z M439.6,2323.9
			c-1,0-2,2-3,3c0,0,0,0,0,0C437.6,2325.9,438.6,2323.9,439.6,2323.9c0.6-0.1,1.1-0.2,1.7-0.2
			C440.7,2323.7,440.2,2323.8,439.6,2323.9z M460.6,2320.9c-1,0-2,3-3,3c-1.1,0.2-2.2,0.3-3.4,0.3c1.1,0,2.2-0.1,3.4-0.3
			C458.6,2323.9,459.6,2320.9,460.6,2320.9c0.6-0.1,1.1-0.2,1.7-0.2C461.7,2320.7,461.2,2320.8,460.6,2320.9z M468.7,2317.9
			c0.5,0,1-0.4,1.5-0.9C469.7,2317.5,469.2,2317.9,468.7,2317.9z M481.6,2317.9c-1,0-2,3-3,3c-1.1,0.2-2.2,0.3-3.4,0.3
			c1.1,0,2.2-0.1,3.4-0.3C479.6,2320.9,480.6,2317.9,481.6,2317.9c0.7-0.1,1.3-0.2,2-0.2C482.9,2317.7,482.3,2317.8,481.6,2317.9z
			 M523.6,2312.9c-6,2-10,1-15,2c-2,1-4,3-6,3c-1.3,0.2-2.6,0.3-3.9,0.3c1.3,0,2.6-0.1,3.9-0.3c2,0,4-2,6-3
			C513.6,2313.9,517.6,2314.9,523.6,2312.9c1.1-0.6,2.2-0.8,3.4-0.9C525.9,2312.1,524.7,2312.3,523.6,2312.9z M524.5,2297.2
			L524.5,2297.2c1.2,0.2,2.2,0.1,3.1-0.1C526.7,2297.3,525.7,2297.4,524.5,2297.2z M538.6,2308.9c-1,0-2,2-3,3
			c-0.5,0.1-1,0.2-1.5,0.2c0.5,0,1-0.1,1.5-0.2C536.6,2310.9,537.6,2308.9,538.6,2308.9c0.7-0.1,1.3-0.2,2-0.2
			C539.9,2308.7,539.3,2308.8,538.6,2308.9z M562.6,2305.9c-1,0-2,3-3,3c-1.3,0.2-2.6,0.3-3.9,0.3c1.3,0,2.6-0.1,3.9-0.3
			C560.6,2308.9,561.6,2305.9,562.6,2305.9c0.7-0.1,1.3-0.2,2-0.2C563.9,2305.7,563.3,2305.8,562.6,2305.9z M586.6,2302.9
			c-1,0-2,3-3,3c-1.3,0.2-2.6,0.3-3.9,0.3c1.3,0,2.6-0.1,3.9-0.3C584.6,2305.9,585.6,2302.9,586.6,2302.9c4.1-0.5,8.2-0.7,12.2-0.7
			C594.8,2302.2,590.7,2302.4,586.6,2302.9z M608.8,2297.2c-0.7,0-2.1,0-2.9,0c-1.1-1.4-2.1-2.8-3.1-4.3c0.9,1.5,2,2.9,3.1,4.3
			C606.7,2297.2,608.1,2297.2,608.8,2297.2c0.1,0.4,0.2,0.8,0.3,1.1C609,2297.9,608.9,2297.6,608.8,2297.2z M746,2285.7
			c-0.4,0.2-0.8,0.2-1.2,0.2C745.3,2286,745.7,2285.9,746,2285.7z M708.9,2295c-5,2.1-9.3,1.4-14.3,2.1c-0.4,0.2-0.7,0.4-0.9,0.7
			c0.3-0.3,0.6-0.6,0.9-0.7C699.6,2296.5,703.9,2297.2,708.9,2295c2.3-0.9,5.3-0.3,7.7-0.4C714.2,2294.7,711.2,2294.1,708.9,2295z
			 M727.7,2296.9L727.7,2296.9L727.7,2296.9c0.2,0,0.4,0.1,0.7,0.1C728.1,2297,727.9,2296.9,727.7,2296.9z M747.5,2301.5
			c-2.9-0.7-5.7-3.6-8.6-4.3c0,0,0,0,0,0c0,0,0,0,0,0C741.8,2297.9,744.6,2300.8,747.5,2301.5c0.7,0.2,1.5,0.2,2.2,0.2
			C748.9,2301.7,748.2,2301.7,747.5,2301.5z M755.4,2279.8c1.6-0.8,3.3-1.4,4.9-2.2C758.6,2278.3,757,2279,755.4,2279.8z
			 M765.2,2275.4c1.1-0.5,2.2-1.1,3.3-1.8C767.4,2274.3,766.3,2274.8,765.2,2275.4z M812.7,2231.3c-5.5,4.9-10.9,9.9-16.1,14.9
			C801.8,2241.1,807.2,2236.2,812.7,2231.3z M804.2,2315.1c4.5,0.5,7.9,4.4,11.9,7.1C812.1,2319.5,808.7,2315.6,804.2,2315.1z
			 M834.6,2208.7c-1.2,1.7-2.4,3.6-3.5,5.6C832.2,2212.3,833.4,2210.4,834.6,2208.7z M827.7,2216.3c-0.4,0.2-0.7,0.5-0.9,0.8
			C827,2216.8,827.3,2216.5,827.7,2216.3z M824.7,2322.9c5.8,2.2,11.5,4.7,17.1,7.2C836.1,2327.7,830.5,2325.1,824.7,2322.9z
			 M887.5,2342.6c-0.6-0.2-1.2-0.3-1.8-0.4c-1.8-0.4-3.5-0.7-5.3-0.7c-2.5-0.2-5-0.5-7.4-0.9c2.4,0.4,4.9,0.7,7.4,0.9
			c1.8,0,3.5,0.3,5.3,0.7C886.3,2342.3,886.9,2342.5,887.5,2342.6c1.4,0.4,2.8,0.8,4.2,1.2C890.3,2343.4,888.9,2343,887.5,2342.6z
			 M926.1,2354.8c-0.9-0.3-1.7-0.6-2.6-0.9C924.4,2354.3,925.3,2354.5,926.1,2354.8c6.1,2.1,12.1,4.8,16.5,7
			C938.2,2359.7,932.2,2356.9,926.1,2354.8z M944,2357.9c-0.8-0.3-1.7-0.5-2.6-0.7C942.4,2357.5,943.2,2357.7,944,2357.9
			c0.6,0.2,1.3,0.4,1.9,0.6C945.3,2358.4,944.7,2358.2,944,2357.9z M979.1,2365.8c1.1,0.5,2.2,2.4,3.3,3.2
			C981.3,2368.2,980.2,2366.4,979.1,2365.8z M983.4,2369.4c5.4,0.5,8.7,0.7,11,2.5C992.1,2370,988.7,2369.9,983.4,2369.4z
			 M1002.9,2376c2.9,2.6,5.6,6.7,9.7,8.1C1008.4,2382.7,1005.8,2378.6,1002.9,2376z M1026.3,2395.1c5,2.2,8.6,5,11.6,8.3
			C1034.8,2400.1,1031.2,2397.3,1026.3,2395.1z"/>
		<linearGradient id="SVGID_2_" gradientUnits="userSpaceOnUse" x1="503.2366" y1="2097.939" x2="503.2366" y2="1750.9803">
			<stop  offset="0" style="stop-color:#FFC4A1"/>
			<stop  offset="1.086015e-02" style="stop-color:#FFC5A2"/>
			<stop  offset="0.2148" style="stop-color:#FCCCAF"/>
			<stop  offset="0.477" style="stop-color:#FAD0B7"/>
			<stop  offset="1" style="stop-color:#FAD1B9"/>
		</linearGradient>
		<path class="st3" d="M507.1,1753.7c-79-6-157-1-236,5c-65,5-129,7-194,5c-26.4-0.5-51.7-4.7-77.1-10v24v0v82
			c5.8,4.3,11.5,8.6,17.1,13c3,2,7,2,10,3c13,7,23,18,36,24c29,15,58,27,87,42c6,3,12,2,18,4c4,2,6,5,10,7c7,3,15,4,22,8
			c34,19,70,33,108,45c4,2,7,5,11,7c58,17,112,36,172,45c11,1,21,3,32,8c3,1,7-1,10,0c29,9,58,12,88,15c52,5,103,8,155,13
			c20,1,39,0,59,2c28,3,57,3,85,0c28.8-3.4,57.6-4,86.4-7.3c-13.3-36.4-28.2-71.6-55.4-100.7
			C833.1,1860.7,680.1,1767.7,507.1,1753.7z M256.4,1773.9c-0.1-1.4-0.3-2.7-0.4-4C256.1,1771.2,256.3,1772.6,256.4,1773.9
			c0.1,1.1,0.2,2.1,0.3,3.2C256.6,1776.1,256.5,1775,256.4,1773.9z M265,1854c-0.6-1.3-1.2-2.5-1.7-3.8
			C263.8,1851.5,264.3,1852.7,265,1854c0.3,0.6,0.5,1.2,0.6,1.8C265.5,1855.2,265.3,1854.6,265,1854z M274.6,1899.6
			c0.8,5,1.4,10.1,1.9,15.3C276,1909.7,275.4,1904.6,274.6,1899.6z M278.3,1990.1c0.7-3.3,1.3-6.6,1.7-9.9
			C279.5,1983.5,279,1986.8,278.3,1990.1z M586.1,2013.8c0.1-0.3,0.1-0.5,0.2-0.8C586.2,2013.2,586.1,2013.5,586.1,2013.8z
			 M591.2,1987.3c0.2-1.1,0.3-2.3,0.4-3.5C591.6,1985,591.5,1986.2,591.2,1987.3z"/>
		<linearGradient id="SVGID_3_" gradientUnits="userSpaceOnUse" x1="0" y1="2010.8763" x2="1031.4751" y2="2010.8763">
			<stop  offset="0.8056" style="stop-color:#FADFCF"/>
			<stop  offset="1" style="stop-color:#FAD1B9"/>
		</linearGradient>
		<path class="st4" d="M1006.5,2088.4c-28.8,3.3-57.6,3.9-86.4,7.3c-28,3-57,3-85,0c-20-2-39-1-59-2c-52-5-103-8-155-13
			c-30-3-59-6-88-15c-3-1-7,1-10,0c-11-5-21-7-32-8c-60-9-114-28-172-45c-4-2-7-5-11-7c-38-12-74-26-108-45c-7-4-15-5-22-8
			c-4-2-6-5-10-7c-6-2-12-1-18-4c-29-15-58-27-87-42c-13-6-23-17-36-24c-3-1-7-1-10-3c-5.6-4.5-11.4-8.8-17.1-13v44.2
			c42.7,20.9,85.9,40.2,131.8,56.8c38,14,71,35,114,47c22,5,40,19,60,30c10,6,22,6,33,10c5,2,9,7,14,10c17,8,35,12,53,22
			c14,8,31,8,46,15c5,3,9,7,14,9c4,1,10-1,14,1c16,10,32,12,49,20c21,9,48,10,73,20c22,8,48,1,74,4c39,5,78-2,117,4
			c79.3,11.6,159.1,10.1,238.7,7.9c-6.5-21.8-14-43.4-22.4-64.9C1008.2,2093.3,1007.4,2090.8,1006.5,2088.4z M882.5,2155.8
			c1.9-2.6,3.8-5.2,5.7-7.8C886.3,2150.6,884.4,2153.2,882.5,2155.8z"/>
	</g>
	<path class="st5" d="M285.3,1700.9h3.5C287.6,1700.7,286.5,1700.6,285.3,1700.9z"/>
	<path class="st6" d="M923.4,610.2c0.9,0,1.9-0.1,2.8-0.1C925.2,610.1,924.3,610.2,923.4,610.2z"/>
	<path class="st6" d="M926.2,610.1c0.1,0,0.2,0,0.3-0.1C926.4,610,926.3,610.1,926.2,610.1z"/>
	<path class="st6" d="M929,607.3c-1.2,0.6-1.9,2.3-2.6,2.7c2-0.7,3.4-2.1,5.4-2.7C931,607.1,930.1,606.9,929,607.3z"/>
	<path class="st6" d="M934.8,607.3c0.2-0.1,0.4-0.2,0.5-0.4c-1.1,0.1-2.3,0.2-3.4,0.4C932.8,607.4,933.7,607.6,934.8,607.3z"/>
	<path class="st6" d="M329,449.4c0.3-0.3,0.6-0.5,0.9-0.8C329.6,448.8,329.3,449.1,329,449.4z"/>
	<path class="st6" d="M330.9,447.9c-0.3,0.2-0.6,0.4-0.9,0.7C330.3,448.4,330.6,448.2,330.9,447.9z"/>
	<linearGradient id="SVGID_4_" gradientUnits="userSpaceOnUse" x1="601.2168" y1="784.4214" x2="601.2168" y2="0">
		<stop  offset="0.4487" style="stop-color:#F5EDDF"/>
		<stop  offset="0.9061" style="stop-color:#F3EADC"/>
		<stop  offset="1" style="stop-color:#F2E9DA"/>
	</linearGradient>
	<path class="st7" d="M894.2,0L894.2,0l-11.6,0c-0.6,1.1-1.3,2.2-2,3.3c0.7-1.1,1.4-2.2,2-3.3H655.7H465.3c-1.2,2-2.5,4-3.7,6
		c1.2-2,2.4-4,3.7-6h-71.9c-8.3,2.1-16.7,4.1-25.3,5.9c-6,2-11,6-17,6c-43,7-78,26-116,46c-5,3-9,8-14,11c-87,45-149,117-218,186
		c-1,0.9-2.1,1.7-3.1,2.5v525c96.3,2.8,192.7,3.3,289.8-3.5c96-6,189-10,285-34c28-7,55-16,84-24c86-23,155-67,231-112
		c33-20,59-44,87-70c50-45,101-79,141-137c31.2-45.4,64.3-83.7,84.7-131.8V1.2v0V0H894.2z M131.3,765.2c-8.8,2.9-16.6,7-24,11.9
		C114.7,772.2,122.5,768.1,131.3,765.2c4.4-1.3,8.8-3.6,12.7-5.1C140.1,761.6,135.7,764,131.3,765.2z M145.6,759.5
		c9.6-2.3,19.6-1.8,29.4-1.2C165.2,757.7,155.2,757.3,145.6,759.5z M180.6,232c-0.8-1.1-1.5-2.2-2.3-3.3
		C179.1,229.8,179.9,230.9,180.6,232c1,1.5,2,3,3,4.4C182.6,235,181.6,233.5,180.6,232z M212.8,383.5c-3.9-4.8-7.7-9.8-11.2-14.9
		C205.1,373.7,208.9,378.7,212.8,383.5c2,2.4,3.9,4.8,5.9,7.1C216.7,388.3,214.8,385.9,212.8,383.5z M204.2,264.9
		c-3.7-6.6-8.3-12.4-13.1-18.5C195.9,252.4,200.5,258.3,204.2,264.9c6.4,11.8,13,23.2,19.8,34.3
		C217.2,288.1,210.6,276.7,204.2,264.9z M262.1,353.5c-7.5-9.4-14.5-18.8-21.1-28.2C247.6,334.7,254.6,344.1,262.1,353.5
		c1.3,1.7,2.6,3.4,3.7,5.2C264.7,356.9,263.5,355.2,262.1,353.5z M297.9,461.4c1.4,1.4,2.7,3,4,4.5
		C300.5,464.5,299.3,462.9,297.9,461.4z M312.2,471.8L312.2,471.8c0.8-1.2,1.7-2.4,2.6-3.7C313.9,469.3,313,470.6,312.2,471.8z
		 M330,448.6c-0.3,0.2-0.6,0.5-0.9,0.8C329.3,449.1,329.6,448.8,330,448.6c0.3-0.2,0.6-0.5,0.9-0.7
		C330.6,448.2,330.3,448.4,330,448.6z M331.4,441.6c-0.9-0.6-1.7-1.2-2.6-1.8C329.6,440.5,330.5,441.1,331.4,441.6L331.4,441.6z
		 M337.2,430c0.1-0.5,0.2-1.1,0.3-1.6C337.4,428.9,337.3,429.5,337.2,430z M342.9,404.3c0.2-0.4,0.4-0.6,0.6-0.8
		C343.3,403.6,343.1,403.9,342.9,404.3z M426.1,212.9c-2.6-3.8-5.2-7.6-7.6-11.6c-1.3-2-2.6-4.1-3.8-6.2c-2.9-4.8-6.1-9.2-9.5-13.3
		c-1.4-1.6-2.7-3.2-4.2-4.7c-0.7-0.8-1.4-1.5-2.2-2.2c0,0,0,0,0,0c-1.9-1.9-3.9-3.8-5.9-5.5c-1.3-1.2-2.7-2.3-4.1-3.4
		c-0.7-0.6-1.4-1.1-2.1-1.6c-1.4-1.1-2.9-2.1-4.3-3.1c-0.8-0.6-1.7-1.1-2.5-1.7c0.8,0.6,1.7,1.1,2.5,1.7c1.5,1,2.9,2.1,4.3,3.1
		c0.7,0.5,1.4,1.1,2.1,1.6c1.4,1.1,2.8,2.2,4.1,3.4c2,1.8,4,3.6,5.9,5.5c0,0,0,0,0,0c0.7,0.7,1.4,1.5,2.2,2.2
		c1.4,1.5,2.8,3.1,4.2,4.7c3.4,4.1,6.6,8.5,9.5,13.3c1.2,2.1,2.5,4.1,3.8,6.2C420.9,205.2,423.4,209.1,426.1,212.9
		c2.7,3.8,5.4,7.5,8.2,11.2C431.5,220.4,428.7,216.7,426.1,212.9z M431.5,74.8c0.1,1.2,0.4,2.4,0.8,3.5
		C431.9,77.1,431.6,76,431.5,74.8z M435,56.5c-0.8,2.1-1.6,4.1-2.2,6.2c-0.5,1.6-0.8,3.1-1.1,4.7c-0.1,0.8-0.2,1.7-0.3,2.5
		c0.1-0.8,0.2-1.7,0.3-2.5c0.3-1.6,0.6-3.1,1.1-4.7C433.4,60.7,434.1,58.6,435,56.5c0.2-0.5,0.4-1,0.6-1.5
		C435.4,55.5,435.2,56,435,56.5z M441.9,343.6c1.1,0.7,2.2,1.5,3.1,2.4C444.1,345.1,443.1,344.3,441.9,343.6z M448.4,401.4
		c0.2-0.7,0.3-1.4,0.3-2.2C448.7,399.9,448.5,400.6,448.4,401.4z M457.1,156.6c0.1-4.9,0.4-9.7,0.4-14.6
		C457.5,146.9,457.2,151.7,457.1,156.6z M472.3,202.5C472.3,202.5,472.3,202.5,472.3,202.5c1.2,2.5,2.3,5,3.5,7.4
		C474.6,207.4,473.4,205,472.3,202.5z M483.3,213.3c3,2.6,6.1,4.9,9.3,7.2C489.4,218.3,486.3,215.9,483.3,213.3z M558.7,272.8
		c2.4,0.5,4.8,1,7.2,1.5C563.5,273.8,561.1,273.3,558.7,272.8z M678.1,227.7c-3.6,2.5-7.2,4.9-10.7,7.3
		C671,232.6,674.5,230.2,678.1,227.7c0.3-0.2,0.6-0.4,0.9-0.6C678.7,227.3,678.4,227.5,678.1,227.7z M688.9,218.4c0,0.7,0,2.1,0,2.9
		c-0.8,0.8-1.8,1.5-2.9,2.1c1.1-0.6,2-1.3,2.9-2.1C688.9,220.5,688.9,219.1,688.9,218.4c5.5-3.4,10.3-7.2,14.8-11.3
		C699.2,211.2,694.4,215,688.9,218.4z M755.3,656.6c3.2-2.5,6.3-5,9.5-7.6C761.7,651.5,758.6,654.1,755.3,656.6z M871.7,16
		c1.5-2.1,3-4.2,4.5-6.3C874.7,11.8,873.2,13.9,871.7,16z M891.9,378.5c-3.4,1.8-6.7,3.5-10.1,5.1
		C885.1,382,888.5,380.3,891.9,378.5c0.2-0.1,0.5-0.3,0.7-0.4C892.3,378.2,892.1,378.4,891.9,378.5z M887.8,11.3
		c2.5-3.4,4.3-7.1,6.1-10.9C892.2,4.2,890.3,7.9,887.8,11.3z M902.6,366.4c-1.9,1.6-3.2,3.3-4.3,5
		C899.4,369.7,900.7,368,902.6,366.4c1.8-1.7,3.4-3.4,5-5.3C906,362.9,904.4,364.7,902.6,366.4z M931.9,297.8
		c-0.1-2.3-0.2-4.7-0.3-7C931.7,293.1,931.8,295.5,931.9,297.8z M931.9,307c0.1-1.5,0.1-3,0.1-4.6C932,304,932,305.5,931.9,307z
		 M932.6,269.9c-0.2,0.9-0.4,1.9-0.6,2.9C932.2,271.8,932.4,270.8,932.6,269.9c0.1-0.5,0.3-1.1,0.4-1.6
		C932.9,268.8,932.7,269.3,932.6,269.9z M940.5,224.1c-0.1,0.3-0.2,0.5-0.3,0.8C940.3,224.6,940.4,224.4,940.5,224.1
		c0.1-0.9,0.2-1.8,0.2-2.6C940.6,222.4,940.6,223.2,940.5,224.1z M940.5,144.1c-0.3-1.5-0.7-3.1-1-4.7
		C939.8,141,940.1,142.5,940.5,144.1c0.1,0.2,0.2,0.3,0.3,0.5C940.7,144.4,940.6,144.2,940.5,144.1z M1022.7,482.9
		c-0.7,0.8-1.4,1.6-2.1,2.3C1021.2,484.5,1022,483.7,1022.7,482.9c0.1-0.1,0.2-0.2,0.2-0.3C1022.8,482.7,1022.8,482.8,1022.7,482.9z
		 M1079.9,385c-4.2,8.1-9.3,15.3-14.2,22.6C1070.6,400.3,1075.6,393,1079.9,385c1.1-2.2,2.3-4.4,3.4-6.5
		C1082.1,380.6,1081,382.8,1079.9,385z M1125.6,307.8c-1.8,3.1-3.7,6.2-5.6,9.2C1121.9,313.9,1123.8,310.9,1125.6,307.8
		c0.2-0.4,0.4-0.7,0.6-1.1C1126,307,1125.8,307.4,1125.6,307.8z M1130.6,286.1c0.2-2.5,0.8-4.8,1.5-7
		C1131.4,281.4,1130.9,283.7,1130.6,286.1z M1198.5,76.2c-0.7,2.9-3.6,5.7-3.6,8.6c0,0.9,0,1.7,0,2.6c0-0.8,0-1.7,0-2.6
		C1194.9,81.9,1197.8,79,1198.5,76.2c0.2-1.4,0.3-2.9,0.5-4.3C1198.9,73.3,1198.7,74.7,1198.5,76.2z"/>
	<linearGradient id="SVGID_5_" gradientUnits="userSpaceOnUse" x1="0" y1="128.7155" x2="393.4502" y2="128.7155">
		<stop  offset="0" style="stop-color:#B49175"/>
		<stop  offset="9.902108e-02" style="stop-color:#C5A384"/>
		<stop  offset="0.2853" style="stop-color:#E1BE9C"/>
		<stop  offset="0.4494" style="stop-color:#F1CFAB"/>
		<stop  offset="0.5727" style="stop-color:#F7D5B0"/>
		<stop  offset="1" style="stop-color:#FEEFD9"/>
	</linearGradient>
	<path class="st8" d="M221.1,68.9c5-3,9-8,14-11c38-20,73-39,116-46c6,0,11-4,17-6c8.6-1.8,17-3.9,25.3-5.9h-27.5H82.7
		c0.1,0.2,0.3,0.5,0.4,0.8c-0.1-0.3-0.2-0.5-0.4-0.8H33.9v0H0v108.7l0,0v148.7c1-0.8,2.1-1.6,3.1-2.5
		C72.1,185.9,134.1,113.9,221.1,68.9z M85.6,6.8c1.4,2.1,4.3,3.6,5.7,5.7c2.7,5.9,5.3,11.9,7.9,18c-2.6-6-5.3-12.1-7.9-18
		C89.8,10.4,87,9,85.6,6.8c-0.4-1.3-0.9-2.4-1.3-3.5C84.7,4.4,85.1,5.6,85.6,6.8z M54.1,76.2c0.2,0.3,0.4,0.7,0.6,1
		C54.5,76.8,54.3,76.5,54.1,76.2c-0.1-0.2-0.3-0.5-0.4-0.7C53.9,75.7,54,75.9,54.1,76.2z"/>
	<linearGradient id="SVGID_6_" gradientUnits="userSpaceOnUse" x1="422.2307" y1="201.2862" x2="422.2307" y2="212.8544">
		<stop  offset="0.8056" style="stop-color:#FADFCF"/>
		<stop  offset="1" style="stop-color:#FAD1B9"/>
	</linearGradient>
	<path class="st9" d="M426.1,212.9c-2.6-3.8-5.2-7.6-7.6-11.6C420.9,205.2,423.4,209.1,426.1,212.9z"/>
	<linearGradient id="SVGID_7_" gradientUnits="userSpaceOnUse" x1="398.7921" y1="174.8457" x2="398.7921" y2="174.865">
		<stop  offset="0.8056" style="stop-color:#FADFCF"/>
		<stop  offset="1" style="stop-color:#FAD1B9"/>
	</linearGradient>
	<path class="st10" d="M398.8,174.8C398.8,174.9,398.8,174.9,398.8,174.8C398.8,174.9,398.8,174.9,398.8,174.8z"/>
	<g>
		<path class="st0" d="M1117.8,401.9c-40,58-91,92-141,137c-28,26-54,50-87,70c-76,45-145,89-231,112c-14.5,4-28.4,8.2-42.2,12.3
			c-13.9,4.1-27.7,8.2-41.8,11.7c-96,24-189,28-285,34c-97.1,6.9-193.5,6.4-289.8,3.5v70.4c25.4,5.3,50.7,9.5,77.1,10
			c65,2,129,0,194-5c79-6,157-11,236-5c173,14,326,107,444,234c27.2,29.1,42.1,64.3,55.4,100.7c0.9,2.4,1.8,4.9,2.6,7.3
			c8.3,21.5,15.9,43.1,22.4,64.9c29-0.8,58-1.6,86.9-1.9c0.8,0,1.6,0,2.4,0c27.2,0,54.4,0.5,81.7-1.3v-115V270.2
			C1182,318.2,1149,356.5,1117.8,401.9z M26.9,848.9c-2.3,2.3-4.6,4.6-6.9,6.9C22.3,853.5,24.6,851.2,26.9,848.9
			c0.6-0.6,1.2-1.2,1.9-1.7C28.2,847.7,27.5,848.3,26.9,848.9z M934.8,607.3c-1.1,0.4-2,0.2-2.9,0c-2,0.7-3.4,2-5.4,2.7
			c-0.1,0.1-0.2,0.1-0.3,0.1c0.1,0,0.2-0.1,0.3-0.1c0.6-0.4,1.3-2.1,2.6-2.7c1.1-0.4,2-0.2,2.9,0c1.1-0.1,2.3-0.3,3.4-0.4
			C935.1,607,935,607.2,934.8,607.3z M936.3,605.6c0.2-0.3,0.5-0.7,0.9-0.9C936.8,604.9,936.6,605.3,936.3,605.6z M1050.6,617.3
			c1.8,1.8,3.6,3.6,5.4,5.6C1054.2,620.9,1052.3,619.1,1050.6,617.3z M1089,719.3c0,4.5,0,9.1,0.2,13.7
			C1089,728.4,1088.9,723.9,1089,719.3z"/>
	</g>
	<g>
		<path class="st11" d="M987.8,322.8L987.8,322.8C987.8,322.8,987.8,322.8,987.8,322.8C987.8,322.8,987.8,322.8,987.8,322.8z"/>
	</g>
</g>
<g>
	<path class="st12" d="M1077.1,438c-9.3,12.9-22.8,24.7-36.9,32.1c-4,2-8,6-12,7c-7,3-15,5-21,10c-2,1-4-1-6,0c-4,4-9,5-15,7
		c-1.3,0.5-2.7,1-4,1.4c-8.8,4.2-17.8,8.3-26.8,12.4c-28,13-57,21-88,24c-16.5,1.6-33,3.2-49.4,4.8c-0.9,0.5-1.9,0.9-2.8,1.4
		c-7,1-13-1-21,2s-16,0-24,2c-9,2-18,1-27,2c-3,1-6,3-9,3c-17,1-34-1-51,0c-2,0-4,3-6,3c-33,1-66,1-99,0c-2,0-4-3-6-3
		c-27-1-54,2-81-1c-11-2-22,1-33-3c-7-2-14-1-21-2c-2-1-4-2-6-3c-5,0-10,1-15-1c-4-1-9-2-15-2c-2,0-4-2-6-3c-4,0-8,0-12,0
		c-5-1-10-5-15-5c-3.1-0.4-6.3-1.1-9.4-1.9c5,2.8,10.1,5.4,15.2,7.7c25,10,48,21,75,27c5,2,11,3,16,6c3,1,6-1,9,0
		c40,16,82,20,124,26c10,1,21-1,31,1c6.7,1.4,13.3,2.5,19.9,3.5c109.7-14.2,217.7-7,318.1,37.5c35,15,67,37,95,64
		c28,29,46,62,58,100c15,47,25,92,35,141c8,36,12,71,29,103c2,6,2,13,4,19c3.9,9.3,7.6,18.7,11.7,28V333.2V308
		C1162.8,357.8,1125.3,400,1077.1,438z M1085.6,440c-0.2,0.1-0.4,0.1-0.6,0.2C1085.2,440.2,1085.4,440.1,1085.6,440
		c0.7-0.5,1.2-1.1,1.8-1.6C1086.8,439,1086.2,439.5,1085.6,440z"/>
	<linearGradient id="SVGID_8_" gradientUnits="userSpaceOnUse" x1="704.3326" y1="3.200000e-02" x2="704.3326" y2="550.8653">
		<stop  offset="0.8056" style="stop-color:#FADFCF"/>
		<stop  offset="1" style="stop-color:#FAD1B9"/>
	</linearGradient>
	<path class="st13" d="M993,0c-70.7,62.2-135.6,122.9-217.6,177.9c-127,86-251,143-392,185c-32.5,10.2-65,18-98.1,21.5
		c-2.6,3.6-5.3,7.1-8,10.5c-0.9,1.1-1.8,2.3-2.7,3.4c-0.9,1-1.7,2.1-2.6,3.1c0.9-1,1.7-2.1,2.6-3.1c0.9-1.1,1.8-2.3,2.7-3.4
		c2.7-3.4,5.4-7,8-10.5c-18.8,2-37.7,2.6-56.9,1.5c-5,0-9,2-14,3c-1.8,0.1-3.6,0.2-5.4,0.3c33.3,47.7,71.5,81.7,119.1,115.7
		c10.1,7.4,20.3,14.4,30.8,20.3c3.1,0.8,6.3,1.4,9.4,1.9c5,0,10,4,15,5c4,0,8,0,12,0c2,1,4,3,6,3c6,0,11,1,15,2c5,2,10,1,15,1
		c2,1,4,2,6,3c7,1,14,0,21,2c11,4,22,1,33,3c27,3,54,0,81,1c2,0,4,3,6,3c33,1,66,1,99,0c2,0,4-3,6-3c17-1,34,1,51,0c3,0,6-2,9-3
		c9-1,18,0,27-2c8-2,16,1,24-2s14-1,21-2c0.9-0.5,1.9-0.9,2.8-1.4c16.4-1.6,32.8-3.2,49.4-4.8c31-3,60-11,88-24
		c9-4.1,18-8.2,26.8-12.4c0,0,0,0,0,0c1.4-0.5,2.7-0.9,4-1.4c6-2,11-3,15-7c2-1,4,1,6,0c6-5,14-7,21-10c4-1,8-5,12-7
		c14.1-7.4,27.6-19.2,36.9-32.1c48.2-38,85.7-80.3,122.6-130v-14.3l0,0v-11.9l0,0v-27V0H993z M669.5,358.5c2,0.7,4,1.8,6,2.8
		C673.5,360.3,671.5,359.3,669.5,358.5z M768.2,406.4c-6.3-3.6-12.4-6.9-18.5-10.2C755.8,399.5,761.9,402.9,768.2,406.4
		c1.1,0.6,2.1,1.4,3,2.2C770.3,407.8,769.3,407.1,768.2,406.4z M815.4,440c-0.6-0.4-1.2-0.7-1.9-1.1
		C814.1,439.3,814.8,439.6,815.4,440c0.7,0.6,1.4,1.2,2,1.8C816.7,441.2,816.1,440.6,815.4,440z M828.9,451.6
		c8.7,4.8,17.8,7.9,26.9,10.9C846.8,459.5,837.7,456.4,828.9,451.6z M939,510.7c0.3-0.1,0.6-0.3,0.9-0.4
		C939.6,510.4,939.3,510.6,939,510.7z M941.8,509.4c0.4-0.2,0.7-0.3,1.1-0.5C942.5,509.1,942.2,509.2,941.8,509.4z M944.7,508.1
		c0.4-0.2,0.7-0.3,1.1-0.5C945.5,507.8,945.1,508,944.7,508.1z M947.7,506.9c0.4-0.1,0.7-0.3,1.1-0.4
		C948.4,506.6,948.1,506.8,947.7,506.9z M950.8,505.8c0.3-0.1,0.7-0.2,1-0.4C951.5,505.5,951.1,505.6,950.8,505.8z M954,504.6
		c0.3-0.1,0.6-0.2,0.8-0.3C954.5,504.4,954.3,504.5,954,504.6z M957.3,503.5c0.2-0.1,0.3-0.1,0.5-0.2
		C957.6,503.4,957.5,503.5,957.3,503.5z M1004.3,472c1.3-0.8,2.7-1.6,4-2C1007,470.4,1005.7,471.2,1004.3,472z M1016.9,470
		c-0.3,0.1-0.6,0.1-0.9,0.1C1016.4,470.2,1016.7,470.1,1016.9,470c0.6-0.3,1.1-0.9,1.7-1.6C1018.1,469.2,1017.5,469.8,1016.9,470z
		 M1036.3,461.3c1.2,0,2.3,0.2,3.4,0.2C1038.7,461.4,1037.5,461.3,1036.3,461.3z M1064.1,448.6c-0.6,0.3-1.2,0.9-1.8,1.7
		C1062.9,449.6,1063.5,448.9,1064.1,448.6c0.4-0.2,0.8-0.2,1.2-0.2C1064.9,448.4,1064.5,448.4,1064.1,448.6z M1066.9,448.7
		c0.4,0.1,0.8,0.2,1.1,0.1C1067.8,448.9,1067.4,448.8,1066.9,448.7z M1079.4,434.6C1079.4,434.6,1079.4,434.6,1079.4,434.6
		C1079.4,434.6,1079.4,434.6,1079.4,434.6z M1080.5,432.9C1080.5,432.9,1080.5,432.9,1080.5,432.9
		C1080.5,432.9,1080.5,432.9,1080.5,432.9z M1081.5,431.2c0,0,0.1-0.1,0.1-0.1C1081.6,431.1,1081.6,431.2,1081.5,431.2z
		 M1082.5,429.6c0-0.1,0.1-0.1,0.1-0.2C1082.6,429.4,1082.5,429.5,1082.5,429.6z M1083.4,427.9c0.1-0.1,0.1-0.2,0.2-0.3
		C1083.5,427.7,1083.4,427.8,1083.4,427.9z M1084.2,426.2c0.1-0.1,0.1-0.2,0.2-0.3C1084.4,426,1084.3,426.1,1084.2,426.2z
		 M1087.9,419.2c-0.1,1.2,0.6,2.5,0.6,3.8C1088.5,421.7,1087.9,420.5,1087.9,419.2z M1114.2,397.1c-0.4,1.8-1.2,3.5-2,5.2
		C1113,400.6,1113.7,398.9,1114.2,397.1c0.5-1.7,1.2-3.4,1.9-5.1C1115.4,393.7,1114.7,395.4,1114.2,397.1z M1124.2,361.1
		c0.4,0.8,0.5,1.4,0.5,2.1C1124.7,362.5,1124.6,361.9,1124.2,361.1z M1185.3,299.3c2.7-1.1,5.4-2.1,8.2-3
		C1190.7,297.2,1187.9,298.2,1185.3,299.3z"/>
	<linearGradient id="SVGID_9_" gradientUnits="userSpaceOnUse" x1="247.4004" y1="385.0184" x2="247.4004" y2="525.2502">
		<stop  offset="0" style="stop-color:#B49175"/>
		<stop  offset="0.401" style="stop-color:#F7D5B0"/>
		<stop  offset="1" style="stop-color:#FEEFD9"/>
	</linearGradient>
	<path class="st14" d="M287.2,504.1c20,7,39,13,60,18c3.9,1.1,7.7,2.2,11.6,3.1c-10.5-5.9-20.6-12.9-30.8-20.3
		c-47.6-34-85.8-68-119.1-115.7c-24.5,1-49-0.2-73-4.2c0.2,0.4,0.3,0.7,0.5,1.1c28.6,39,58.5,79.5,103.5,98.8
		c4.4,1.8,8.7,3.6,13,5.4c6.3,2.3,12.7,4.6,19.1,6.8C277.2,499.1,282.2,503.1,287.2,504.1z M195.6,431.4c-3-0.9-6-2-9-3.1
		C189.6,429.5,192.6,430.5,195.6,431.4c2,0.7,4.1,1.2,6.4,1.7C199.8,432.7,197.6,432.1,195.6,431.4z"/>
	<path class="st12" d="M228.4,385.9c19.2,1.1,38.1,0.5,56.9-1.5c2.2-3,4.4-6.1,6.7-9.1c-2.2,3.1-4.4,6.1-6.7,9.1
		c33-3.5,65.6-11.3,98.1-21.5c141-42,265-99,392-185C857.4,122.9,922.3,62.2,993,0H797.2H602.8H581H168.9
		c-9.5,8.4-17.6,18.3-22.9,28.9c-29,58-25,124-12,189c12,62,36,114,72,167c1,1.4,2,2.8,2.9,4.3c1.8-0.1,3.6-0.2,5.4-0.3
		C219.4,387.9,223.4,385.9,228.4,385.9z M493.7,299.2c0.6,0.5,1.2,0.9,1.8,1.2C494.9,300.1,494.3,299.7,493.7,299.2
		c-3.4-3.2-6.7-6.4-9.9-9.6C487,292.8,490.3,296,493.7,299.2z M447.2,256.3c0.1,0.4,0.4,0.7,0.7,1
		C447.6,257,447.4,256.7,447.2,256.3c-0.5-0.9-1-1.8-1.5-2.5C446.2,254.6,446.7,255.4,447.2,256.3z M400.8,227
		c0.6-0.6,1.2-1.2,1.8-1.8C402,225.8,401.4,226.4,400.8,227c-2.5,2-5.2,2.9-7.9,4C395.5,229.9,398.3,229,400.8,227z M309.3,344.2
		c0.7-1,1.3-2,1.9-3c12.5-19.5,22.1-39.6,33.9-58.1c3-4.6,6.1-9.2,9.4-13.6c2.4-3.2,4.9-6.3,7.6-9.3c-2.7,3-5.2,6.1-7.6,9.3
		c-3.3,4.4-6.4,8.9-9.4,13.6c-11.8,18.5-21.4,38.7-33.9,58.1C310.6,342.3,309.9,343.3,309.3,344.2c-0.1,0.2-0.1,0.4-0.2,0.6
		C309.1,344.6,309.2,344.4,309.3,344.2z M309.3,350c0.1-0.2,0.1-0.3,0.2-0.5C309.4,349.6,309.4,349.8,309.3,350
		c-2.7,3.7-4.9,7.2-7,10.6C304.4,357.1,306.6,353.6,309.3,350z"/>
	<linearGradient id="SVGID_10_" gradientUnits="userSpaceOnUse" x1="155.6839" y1="389.507" x2="155.6839" y2="3.200000e-02">
		<stop  offset="0" style="stop-color:#FFC4A1"/>
		<stop  offset="0.1585" style="stop-color:#FEC6A5"/>
		<stop  offset="1" style="stop-color:#FAD1B9"/>
	</linearGradient>
	<path class="st15" d="M134,217.9c-13-65-17-131,12-189c5.3-10.6,13.4-20.5,22.9-28.9h-4.6c-2.1,2.1-4.6,4-6.3,6.9
		c-27,43-51,87-50,139c0,2-3,5-4,7c-1,34-4,68,2,102c3,14,3,28,6,42c5,31.1,11.4,60.3,24,88.1c23.9,3.9,48.5,5.1,73,4.1
		c-1-1.4-2-2.8-2.9-4.3C170,331.9,146,279.9,134,217.9z M114.7,287.5c0.2-3,0.4-6.1,0.1-8.9C115.2,281.4,114.9,284.4,114.7,287.5z
		 M115.6,298.7c0.2,0.7,0.4,1.5,0.6,2.2C116,300.2,115.9,299.4,115.6,298.7z"/>
</g>
<g>
	<g>
		<path class="st16" d="M919.7,2376.9c16.5-2.6,32-7.6,46.6-14.6c-2.1-3.7-4.5-7.2-7.4-10.6c-1,0-3,0-4,0c-1-2,1-6,0-8c-2-3-6-5-7-8
			c-4-12-16-22-19-33c-3-8-10-15-14-23c-1-2,1-6,0-8c-2-3-7-5-7-8c-1-10-6-18-9-28c-1-3,1-5,0-8c-1-2-3-2-4-4c-1-3,1-5,0-8
			c-1-2-3-2-4-4c-1-5,1-11,0-16c-1-2-3-2-4-4c-3-11,3-20-3-32c-3-7,0-16-1-24h-4c-1-44-4-88,2-132c1-9,0-18,2-28c1-2,3-3,4-4
			c1-5,0-10,4-16c1-2,0-5,0-8c1-3,3-5,4-8c1-5-2-12,1-15c3-5,2-9,3-13c1-2,3-2,4-4c1-3-1-6,0-8c14-27,26-53,41-80c5-9,12-17,15-28
			c1,0,3,0,4,0c5-7,7-14,11-21c3-6,8-12,11-18c7-16,17-33,28-48c3-3,7-11,10-17c1,0,3,0,4,0c-2-5,6-7,4-12c1,0,3,0,4,0
			c-2-5,4-8,5-11c16-29,34-56,53-84c7-9,13-26,22-37c1-2-1-6,0-8c1,0,3,0,4,0c0-10,7-19,12-28c1-2-1-5,0-8c1-2,3-2,4-4c1-3-1-6,0-8
			c5-8,7-16,9-24c2-3,2-8,3-12c1-2,3-2,4-4c1-3-1-5,0-8c1-2,3-2,4-4c1-4-1-8,0-12c1-2,3-2,4-4c2-5-3-9,3-17c3-3-2-8,4-16
			c3-3-1-8,4-16c3-6,0-15,1-23c1-1,3-2,4-4c1-7-1-13,3-20c2-3,0-8,1-12c1-2,3-3,4-4c1-8-2-17,1-23c4-7,1-14,3-21c1-2,3-2,4-4
			c1-8-1-15,3-24c2-5,0-11,1-16c1-2,3-2,4-4c1-5-1-11,1-16c0.6-3,1.6-5.7,2.3-8.9V958.9c-20,51.1-35.6,103.6-45.3,159.8c0,1-2,2-3,3
			c0,3,0,6,0,9c-1,1-3,2-3,3c-1,5,0,10-2,15s0,10-1,15c0,1-2,2-3,3c-2,5,0,11-1,15c-16,73-32,140-59,207c-1,3,1,6,0,9
			c-13,23-17,48-33,69c-1,2,1,4,0,6c-3,4-6,7-7,12c-3,10-13,20-18,29c-17,31-37,57-56,88c-1,1-5,2-6,3c-5,12-15,19-21,30
			c-1,1-4,2-6,3c-21,26-39,50-63,72c-3,3-3,9-6,12c-20,20-35,42-51,66c-1,2,1,4,0,6c-13,20-24,42-34,63c-3,7-7,14-11,21
			c-1,2,1,4,0,6c-10,19-15,39-21,60c-1,4,1,8,0,12c-7,16-11,34-12,51c0,2-2,4-3,6c-1,6-1,12-2,18c-4,25-3,50,0,75c3,24,0,46,2,69
			c0,2,3,4,3,6c1,7-1,14,1,21s1,14,2,21c1,2,2,4,3,6c0,4-1,8,0,12c3,12,5,24,7,36c6,29,16,54,24,82c1.4,4.3,2.8,8.6,4.2,12.9
			c13.5,3.2,27.2,5.1,40.6,6.3C854.7,2380.9,886.7,2382.9,919.7,2376.9z"/>
		
			<linearGradient id="SVGID_11_" gradientUnits="userSpaceOnUse" x1="-105.2155" y1="-114.6462" x2="596.9898" y2="-114.6462" gradientTransform="matrix(-1 0 0 -1 1096.9397 1527.7382)">
			<stop  offset="0.8056" style="stop-color:#FADFCF"/>
			<stop  offset="1" style="stop-color:#FAD1B9"/>
		</linearGradient>
		<path class="st17" d="M532.4,2051.9c9.7,27.5,16.3,55.9,22.3,86c24,108,102,189,201,226c8.2,3.1,16.7,5.6,25.4,7.7
			c-1.5-4.2-2.9-8.5-4.2-12.9c-8-28-18-53-24-82c-2-12-4-24-7-36c-1-4,0-8,0-12c-1-2-2-4-3-6c-1-7,0-14-2-21s0-14-1-21c0-2-3-4-3-6
			c-2-23,1-45-2-69c-3-25-4-50,0-75c1-6,1-12,2-18c1-2,3-4,3-6c1-17,5-35,12-51c1-4-1-8,0-12c6-21,11-41,21-60c1-2-1-4,0-6
			c4-7,8-14,11-21c10-21,21-43,34-63c1-2-1-4,0-6c16-24,31-46,51-66c3-3,3-9,6-12c24-22,42-46,63-72c2-1,5-2,6-3c6-11,16-18,21-30
			c1-1,5-2,6-3c19-31,39-57,56-88c5-9,15-19,18-29c1-5,4-8,7-12c1-2-1-4,0-6c16-21,20-46,33-69c1-3-1-6,0-9c27-67,43-134,59-207
			c1-4-1-10,1-15c1-1,3-2,3-3c1-5-1-10,1-15s1-10,2-15c0-1,2-2,3-3c0-3,0-6,0-9c1-1,3-2,3-3c9.7-56.2,25.2-108.6,45.3-159.8v-45.7
			c-10,12.7-25.5,23.5-32.4,38.2c-5,11-16,21-25,30c-9,10-19,22-26,35c-1,2-5,2-7,4c-11,20-29,32-40,52c-0.9,0-2.4,0-3.5,0
			c-0.3,0.5-0.5,0.9-0.8,1.4c0,2.1,1.1,4.8,0.3,5.6c-3.3,2.5-5.6,5.1-7.5,7.6c-3,5.7-5.8,11.6-8.5,17.5c0.2,1.4,0.5,2.9,0,3.9
			c-0.8,1.2-1.9,2.2-3,3.2c-1.7,4-3.3,8.1-4.8,12.2c0,0.2-0.1,0.4-0.2,0.7c0,0.1-0.1,0.2-0.2,0.3c-1.2,3.4-2.4,6.8-3.6,10.3
			c0,0.5-0.1,1-0.3,1.5c-0.1,0.2-0.3,0.4-0.4,0.6c-2.4,7.7-4.6,15.5-6.5,23.6c-5.6,23.2-9.3,47.4-13.1,71.5c0.2,2.7,0.2,5.5,0,8.3
			c-0.4,0.4-0.9,0.8-1.5,1.2c-1.9,12.1-4,24.1-6.3,36c0,2.1-0.2,4-1.2,5.7c-0.8,3.9-1.6,7.7-2.5,11.5c0.1,1.9,0.3,3.6-0.5,5.5
			c-0.2,0-0.5,0-0.8,0c-12.4,50.2-33.6,95.7-83,126.3c-48,29-102,30-157,40c-18,3-35,8-54,11c-99,18-165,97-194,187
			c-31,96-18,195-3,295C520.5,1991.1,526.3,2021.6,532.4,2051.9z"/>
		
			<linearGradient id="SVGID_12_" gradientUnits="userSpaceOnUse" x1="268.5857" y1="-1079.0176" x2="268.5857" y2="-262.6563" gradientTransform="matrix(-1 0 0 -1 1096.9397 1527.7382)">
			<stop  offset="0" style="stop-color:#B49175"/>
			<stop  offset="0.1417" style="stop-color:#CFAC8D"/>
			<stop  offset="0.2956" style="stop-color:#E5C3A0"/>
			<stop  offset="0.4423" style="stop-color:#F2D0AC"/>
			<stop  offset="0.5727" style="stop-color:#F7D5B0"/>
			<stop  offset="1" style="stop-color:#FEEFD9"/>
		</linearGradient>
		<path class="st18" d="M530.9,2470.7c-22.3,47.6-44.6,95.2-76.3,136.1h475.9h271.7v-15.1v-801.3c-31.6,54.2-53.4,114.6-68.4,178.5
			c-19,77-21,151-46,225c-15,41-28,81-56,116c-18.4,22.2-40.4,40.3-65.4,52.4c-14.5,7-30.1,12-46.6,14.6c-33,6-65,4-98,1
			c-13.4-1.2-27.2-3.2-40.6-6.3c-8.6-2-17.2-4.5-25.4-7.7c-99-37-177-118-201-226c-6-30.1-12.6-58.5-22.3-86
			c11.2,55.5,23.4,110.2,30.5,167.8c7,62,2,121-9,184C549.9,2427.7,541.9,2449.7,530.9,2470.7z"/>
	</g>
</g>
</svg>
