<svg xmlns="http://www.w3.org/2000/svg" xmlns:xlink="http://www.w3.org/1999/xlink" viewBox="0 0 1202.6 2606.8"><defs><style>.cls-1{fill:#f5eddf;}.cls-2{fill:url(#Nepojmenovaný_přechod_4);}.cls-3{fill:url(#Nepojmenovaný_přechod);}.cls-4{fill:#ffe7d9;}.cls-5{fill:url(#Nepojmenovaný_přechod_2);}.cls-6{fill:url(#Nepojmenovaný_přechod_11);}.cls-7{fill:#feeed7;}.cls-8{fill:#fbf6ed;}.cls-9{fill:url(#Nepojmenovaný_přechod_5);}.cls-10{fill:url(#Nepojmenovaný_přechod_11-2);}.cls-11{fill:url(#Nepojmenovaný_přechod_11-3);}.cls-12{fill:#f5e1c9;}.cls-13{fill:url(#Nepojmenovaný_přechod_11-4);}.cls-14{fill:url(#Nepojmenovaný_přechod_10);}.cls-15{fill:url(#Nepojmenovaný_přechod_9);}.cls-16{fill:#f2e9da;}.cls-17{fill:url(#Nepojmenovaný_přechod_11-5);}.cls-18{fill:url(#Nepojmenovaný_přechod_12);}.cls-19{fill:none;}.cls-20,.cls-21,.cls-22{stroke:#1d1d1b;stroke-miterlimit:10;stroke-width:0.5px;}.cls-20{fill:url(#Nepojmenovaný_přechod_23);}.cls-21{fill:#f4ecde;}.cls-22{fill:url(#Nepojmenovaný_přechod_22);}</style><linearGradient id="Nepojmenovaný_přechod_4" x1="601.35" y1="1822.94" x2="601.35" y2="2607.28" gradientTransform="matrix(1, 0, 0, -1, 0, 2607.28)" gradientUnits="userSpaceOnUse"><stop offset="0.45" stop-color="#f5eddf"/><stop offset="0.91" stop-color="#f3eadc"/><stop offset="1" stop-color="#f2e9da"/></linearGradient><linearGradient id="Nepojmenovaný_přechod" x1="1202.6" y1="531.88" x2="0.1" y2="531.88" gradientTransform="matrix(1, 0, 0, -1, 0, 2607.28)" gradientUnits="userSpaceOnUse"><stop offset="0" stop-color="#b49175"/><stop offset="0.29" stop-color="#f7d5b0"/><stop offset="1" stop-color="#feefd9"/></linearGradient><linearGradient id="Nepojmenovaný_přechod_2" x1="503.35" y1="509.33" x2="503.35" y2="856.28" gradientTransform="matrix(1, 0, 0, -1, 0, 2607.28)" gradientUnits="userSpaceOnUse"><stop offset="0" stop-color="#ffc4a1"/><stop offset="0.01" stop-color="#ffc5a2"/><stop offset="0.21" stop-color="#fcccaf"/><stop offset="0.48" stop-color="#fad0b7"/><stop offset="1" stop-color="#fad1b9"/></linearGradient><linearGradient id="Nepojmenovaný_přechod_11" x1="0.1" y1="596.36" x2="1031.6" y2="596.36" gradientTransform="matrix(1, 0, 0, -1, 0, 2607.28)" gradientUnits="userSpaceOnUse"><stop offset="0.81" stop-color="#fadfcf"/><stop offset="1" stop-color="#fad1b9"/></linearGradient><linearGradient id="Nepojmenovaný_přechod_5" x1="0.1" y1="2478.58" x2="393.5" y2="2478.58" gradientTransform="matrix(1, 0, 0, -1, 0, 2607.28)" gradientUnits="userSpaceOnUse"><stop offset="0" stop-color="#b49175"/><stop offset="0.1" stop-color="#c5a384"/><stop offset="0.29" stop-color="#e1be9c"/><stop offset="0.45" stop-color="#f1cfab"/><stop offset="0.57" stop-color="#f7d5b0"/><stop offset="1" stop-color="#feefd9"/></linearGradient><linearGradient id="Nepojmenovaný_přechod_11-2" x1="422.4" y1="2405.99" x2="422.4" y2="2394.42" xlink:href="#Nepojmenovaný_přechod_11"/><linearGradient id="Nepojmenovaný_přechod_11-3" x1="398.9" y1="2432.43" x2="398.9" y2="2432.41" xlink:href="#Nepojmenovaný_přechod_11"/><linearGradient id="Nepojmenovaný_přechod_11-4" x1="704.5" y1="2607.28" x2="704.5" y2="2056.43" xlink:href="#Nepojmenovaný_přechod_11"/><linearGradient id="Nepojmenovaný_přechod_10" x1="155.78" y1="2217.84" x2="155.78" y2="2607.28" gradientTransform="matrix(1, 0, 0, -1, 0, 2607.28)" gradientUnits="userSpaceOnUse"><stop offset="0" stop-color="#ffc4a1"/><stop offset="0.16" stop-color="#fec6a5"/><stop offset="1" stop-color="#fad1b9"/></linearGradient><linearGradient id="Nepojmenovaný_přechod_9" x1="234.94" y1="290.83" x2="234.94" y2="525.2" gradientUnits="userSpaceOnUse"><stop offset="0" stop-color="#b49175"/><stop offset="0.4" stop-color="#f7d5b0"/><stop offset="1" stop-color="#feefd9"/></linearGradient><linearGradient id="Nepojmenovaný_přechod_11-5" x1="254.84" y1="709.94" x2="957.09" y2="709.94" gradientTransform="matrix(-1, 0, 0, 1, 1457.14, 932.46)" xlink:href="#Nepojmenovaný_přechod_11"/><linearGradient id="Nepojmenovaný_přechod_12" x1="628.64" y1="1674.34" x2="628.64" y2="857.94" gradientTransform="matrix(-1, 0, 0, 1, 1457.14, 932.46)" gradientUnits="userSpaceOnUse"><stop offset="0" stop-color="#b49175"/><stop offset="0.14" stop-color="#cfac8d"/><stop offset="0.3" stop-color="#e5c3a0"/><stop offset="0.44" stop-color="#f2d0ac"/><stop offset="0.57" stop-color="#f7d5b0"/><stop offset="1" stop-color="#feefd9"/></linearGradient><linearGradient id="Nepojmenovaný_přechod_23" x1="174.28" y1="289.11" x2="216.48" y2="289.11" gradientTransform="matrix(-1, 0, 0, 1, 319.43, 0)" gradientUnits="userSpaceOnUse"><stop offset="0.81" stop-color="#f9dece"/><stop offset="1" stop-color="#f9d1b8"/></linearGradient><linearGradient id="Nepojmenovaný_přechod_22" x1="178.74" y1="289.11" x2="215.97" y2="289.11" gradientTransform="matrix(-1, 0, 0, 1, 319.43, 0)" gradientUnits="userSpaceOnUse"><stop offset="0" stop-color="#b39176"/><stop offset="0.1" stop-color="#c4a283"/><stop offset="0.29" stop-color="#e1be9c"/><stop offset="0.45" stop-color="#f1cfab"/><stop offset="0.57" stop-color="#f7d4af"/><stop offset="1" stop-color="#fdeed9"/></linearGradient></defs><g id="Vrstva_2" data-name="Vrstva 2"><g id="Layer_1" data-name="Layer 1"><rect class="cls-1" x="0.1" width="1200.6" height="2606.8"/><path class="cls-2" d="M894.3,0H882.7c-.6,1.1-1.3,2.2-2,3.3.7-1.1,1.4-2.2,2-3.3H465.4c-1.2,2-2.5,4-3.7,6,1.2-2,2.4-4,3.7-6H393.5c-8.3,2.1-16.7,4.1-25.3,5.9-6,2-11,6-17,6-43,7-78,26-116,46-5,3-9,8-14,11-87,45-149,117-218,186-1,.9-2.1,1.7-3.1,2.5v525c96.3,2.8,192.7,3.3,289.8-3.5,96-6,189-10,285-34,28-7,55-16,84-24,86-23,155-67,231-112,33-20,59-44,87-70,50-45,101-79,141-137,31.2-45.4,64.3-83.7,84.7-131.8V1.2h0V0ZM131.4,765.2a99.54,99.54,0,0,0-24,11.9,99.54,99.54,0,0,1,24-11.9c4.4-1.3,8.8-3.6,12.7-5.1C140.2,761.6,135.8,764,131.4,765.2Zm14.3-5.7c9.6-2.3,19.6-1.8,29.4-1.2C165.3,757.7,155.3,757.3,145.7,759.5Zm35-527.5c-.8-1.1-1.5-2.2-2.3-3.3.8,1.1,1.6,2.2,2.3,3.3,1,1.5,2,3,3,4.4C182.7,235,181.7,233.5,180.7,232Zm32.2,151.5c-3.9-4.8-7.7-9.8-11.2-14.9,3.5,5.1,7.3,10.1,11.2,14.9,2,2.4,3.9,4.8,5.9,7.1C216.8,388.3,214.9,385.9,212.9,383.5Zm-8.6-118.6c-3.7-6.6-8.3-12.4-13.1-18.5,4.8,6,9.4,11.9,13.1,18.5,6.4,11.8,13,23.2,19.8,34.3C217.3,288.1,210.7,276.7,204.3,264.9Zm57.9,88.6c-7.5-9.4-14.5-18.8-21.1-28.2,6.6,9.4,13.6,18.8,21.1,28.2a61.49,61.49,0,0,1,3.7,5.2A45,45,0,0,0,262.2,353.5ZM298,461.4c1.4,1.4,2.7,3,4,4.5C300.6,464.5,299.4,462.9,298,461.4Zm14.3,10.4h0c.8-1.2,1.7-2.4,2.6-3.7C314,469.3,313.1,470.6,312.3,471.8Zm17.8-23.2a6.47,6.47,0,0,0-.9.8,2.36,2.36,0,0,1,.9-.8c.3-.2.6-.5.9-.7A5.5,5.5,0,0,1,330.1,448.6Zm1.4-7c-.9-.6-1.7-1.2-2.6-1.8a15.1,15.1,0,0,0,2.6,1.8Zm5.8-11.6c.1-.5.2-1.1.3-1.6C337.5,428.9,337.4,429.5,337.3,430Zm5.7-25.7a2.76,2.76,0,0,1,.6-.8A1.83,1.83,0,0,0,343,404.3Zm83.2-191.4c-2.6-3.8-5.2-7.6-7.6-11.6-1.3-2-2.6-4.1-3.8-6.2a109.56,109.56,0,0,0-9.5-13.3c-1.4-1.6-2.7-3.2-4.2-4.7a22.84,22.84,0,0,0-2.2-2.2h0c-1.9-1.9-3.9-3.8-5.9-5.5-1.3-1.2-2.7-2.3-4.1-3.4-.7-.6-1.4-1.1-2.1-1.6-1.4-1.1-2.9-2.1-4.3-3.1-.8-.6-1.7-1.1-2.5-1.7.8.6,1.7,1.1,2.5,1.7,1.5,1,2.9,2.1,4.3,3.1.7.5,1.4,1.1,2.1,1.6,1.4,1.1,2.8,2.2,4.1,3.4,2,1.8,4,3.6,5.9,5.5h0c.7.7,1.4,1.5,2.2,2.2,1.4,1.5,2.8,3.1,4.2,4.7a109.56,109.56,0,0,1,9.5,13.3c1.2,2.1,2.5,4.1,3.8,6.2,2.4,3.9,4.9,7.8,7.6,11.6s5.4,7.5,8.2,11.2C431.6,220.4,428.8,216.7,426.2,212.9Zm5.4-138.1a13.71,13.71,0,0,0,.8,3.5A14.74,14.74,0,0,1,431.6,74.8Zm3.5-18.3c-.8,2.1-1.6,4.1-2.2,6.2a39.92,39.92,0,0,0-1.1,4.7c-.1.8-.2,1.7-.3,2.5.1-.8.2-1.7.3-2.5a39.92,39.92,0,0,1,1.1-4.7,57.89,57.89,0,0,1,2.2-6.2l.6-1.5ZM442,343.6a18.31,18.31,0,0,1,3.1,2.4A15,15,0,0,0,442,343.6Zm6.5,57.8a7.8,7.8,0,0,0,.3-2.2A19.19,19.19,0,0,1,448.5,401.4Zm8.7-244.8c.1-4.9.4-9.7.4-14.6C457.6,146.9,457.3,151.7,457.2,156.6Zm15.2,45.9h0c1.2,2.5,2.3,5,3.5,7.4C474.7,207.4,473.5,205,472.4,202.5Zm11,10.8c3,2.6,6.1,4.9,9.3,7.2A105.18,105.18,0,0,1,483.4,213.3Zm75.4,59.5,7.2,1.5Zm119.4-45.1c-3.6,2.5-7.2,4.9-10.7,7.3,3.6-2.4,7.1-4.8,10.7-7.3l.9-.6Zm10.8-9.3v2.9a12.7,12.7,0,0,1-2.9,2.1,15.35,15.35,0,0,0,2.9-2.1v-2.9a99.56,99.56,0,0,0,14.8-11.3A99.56,99.56,0,0,1,689,218.4Zm66.4,438.2c3.2-2.5,6.3-5,9.5-7.6C761.8,651.5,758.7,654.1,755.4,656.6ZM871.8,16l4.5-6.3ZM892,378.5c-3.4,1.8-6.7,3.5-10.1,5.1,3.3-1.6,6.7-3.3,10.1-5.1.2-.1.5-.3.7-.4A4.35,4.35,0,0,0,892,378.5ZM887.9,11.3A64.66,64.66,0,0,0,894,.4,58.38,58.38,0,0,1,887.9,11.3Zm14.8,355.1a21.65,21.65,0,0,0-4.3,5,21.65,21.65,0,0,1,4.3-5,62.65,62.65,0,0,0,5-5.3C906.1,362.9,904.5,364.7,902.7,366.4ZM932,297.8c-.1-2.3-.2-4.7-.3-7C931.8,293.1,931.9,295.5,932,297.8Zm0,9.2c.1-1.5.1-3,.1-4.6C932.1,304,932.1,305.5,932,307Zm.7-37.1c-.2.9-.4,1.9-.6,2.9.2-1,.4-2,.6-2.9.1-.5.3-1.1.4-1.6C933,268.8,932.8,269.3,932.7,269.9Zm7.9-45.8c-.1.3-.2.5-.3.8.1-.3.2-.5.3-.8a24.62,24.62,0,0,0,.2-2.6C940.7,222.4,940.7,223.2,940.6,224.1Zm0-80c-.3-1.5-.7-3.1-1-4.7.3,1.6.6,3.1,1,4.7.1.2.2.3.3.5A2.19,2.19,0,0,0,940.6,144.1Zm82.2,338.8c-.7.8-1.4,1.6-2.1,2.3.6-.7,1.4-1.5,2.1-2.3.1-.1.2-.2.2-.3C1022.9,482.7,1022.9,482.8,1022.8,482.9ZM1080,385c-4.2,8.1-9.3,15.3-14.2,22.6,4.9-7.3,9.9-14.6,14.2-22.6,1.1-2.2,2.3-4.4,3.4-6.5C1082.2,380.6,1081.1,382.8,1080,385Zm45.7-77.2c-1.8,3.1-3.7,6.2-5.6,9.2,1.9-3.1,3.8-6.1,5.6-9.2.2-.4.4-.7.6-1.1A10.91,10.91,0,0,0,1125.7,307.8Zm5-21.7a31.05,31.05,0,0,1,1.5-7A41.53,41.53,0,0,0,1130.7,286.1Zm67.9-209.9c-.7,2.9-3.6,5.7-3.6,8.6v0c0-2.9,2.9-5.8,3.6-8.6.2-1.4.3-2.9.5-4.3C1199,73.3,1198.8,74.7,1198.6,76.2Z"/><path class="cls-3" d="M1120.9,2158.7c-109,1-219,10-328-6-39-6-78,1-117-4-26-3-52,4-74-4-25-10-52-11-73-20-17-8-33-10-49-20-4-2-10,0-14-1-5-2-9-6-14-9-15-7-32-7-46-15-18-10-36-14-53-22-5-3-9-8-14-10-11-4-23-4-33-10-20-11-38-25-60-30-43-12-76-33-114-47C86,1944.1,42.8,1924.8.1,1903.9v343c10.6-1.1,21.1-2,31.7-2.7a3.51,3.51,0,0,0,.5-.8,3.51,3.51,0,0,0-.5.8c31.4-2.3,62.8-3.5,94.5-4.4,129-3,256-19,386-33,15-1,31-2,46-5,17-4,32-5,49-9,7-2,14-1,21-1,4-1,7-3,11-3,41-1,81,4,122-2,16-3,31,2,46-3,10-3,18-1,28-2,3-1,4-3,7-4,6-1,12,1,18,0,28-5,54-1,81-3,3-1,7-3,10-4,38-1,75-3,113,1,13,2,25,1,38,4,28,6,54,6,81,6,3,0,7,3,10,3q4.65.3,9.3.3v-27.5C1175.3,2159.2,1148.1,2158.7,1120.9,2158.7Zm-1009.4,1.8a93.32,93.32,0,0,1,19.2-7.5A93.32,93.32,0,0,0,111.5,2160.5Zm58.6-34.2c5.6-4.3,11-8.8,16.1-13.4C181.1,2117.6,175.7,2122,170.1,2126.3Zm30.4-27.6c2.3-2.6,4.6-5.3,6.7-8.1C205,2093.4,202.8,2096.1,200.5,2098.7Z"/><path class="cls-4" d="M1057.2,2302.7c-2.5-45.7-10.7-89.8-23-133-27.7-1-55.1.3-83,1-3,1-7,3-10,4-27,2-53-2-81,3-6,1-12-1-18,0-3,1-4,3-7,4-10,1-18-1-28,2-15,5-30,0-46,3-41,6-81,1-122,2-4,0-7,2-11,3-7,0-14-1-21,1-17,4-32,5-49,9-15,3-31,4-46,5-130,14-257,30-386,33-31.7.8-63,2.1-94.5,4.4-5.2,7.6-10.4,15.5-15.4,23.8,5.1-8.3,10.2-16.2,15.4-23.8-10.5.8-21.1,1.7-31.7,2.7v354.9H285.3a13.67,13.67,0,0,1,3.5,0h758.8C1062.3,2500.2,1063,2402.4,1057.2,2302.7ZM7.7,2276.5l-2.7,3c.9-1,1.9-2,2.7-3,.7-.7,1.3-1.3,2-1.9C9.1,2275.2,8.4,2275.8,7.7,2276.5Zm12.9,98.9a147.8,147.8,0,0,1,24-2.3A147.8,147.8,0,0,0,20.6,2375.4Zm112.8-8.2a6.68,6.68,0,0,1,1.6-1.4A6.68,6.68,0,0,0,133.4,2367.2Zm3.2-1.6c3.8-.2,7.5.8,11.3.2C144.1,2366.4,140.3,2365.4,136.6,2365.6Zm24.1-7.7a2.11,2.11,0,0,0-1.3.7,2.11,2.11,0,0,1,1.3-.7c.5-.1,1.1-.2,1.5-.3A3.34,3.34,0,0,1,160.7,2357.9Zm21.5-9.3c-1.4.7-3.6-.7-4.3,0a.85.85,0,0,0-.2.6.85.85,0,0,1,.2-.6c.7-.7,2.8.8,4.3,0,3.6-2.9,5-5.7,8.6-8.6C187.2,2342.9,185.7,2345.8,182.2,2348.6Zm16-12.6a1.23,1.23,0,0,0,1.1-.2C199.1,2336,198.7,2336,198.2,2336Zm14-17.4c-.8.9-1.6,1.8-2.4,2.6a30.76,30.76,0,0,0,2.4-2.6Zm383.1-38.9c-.7-1.2-1.5-2.4-2.3-3.6C593.8,2277.3,594.6,2278.5,595.3,2279.7Zm-3.4-9.5a4.4,4.4,0,0,0-.2-1.6A3,3,0,0,1,591.9,2270.2Zm-.2,1.5a7.72,7.72,0,0,0,.2-1.5,6.8,6.8,0,0,1-.2,1.5,8.87,8.87,0,0,0-.2,1.5A10.4,10.4,0,0,1,591.7,2271.7Zm-8.2-32.7a7.57,7.57,0,0,0-.1-1.5A7.57,7.57,0,0,1,583.5,2239Zm-.1,1.5a19.42,19.42,0,0,0-.2,2.4A17.91,17.91,0,0,1,583.4,2240.5Zm-124.2,77.7c-22.5.8-44.8,1.7-67.1,1.7C414.4,2320,436.7,2319,459.2,2318.2Zm-157-4.6a3,3,0,0,1-1.8-1.1,3,3,0,0,0,1.8,1.1c2.5.5,4.9.9,7.4,1.2C307.2,2314.5,304.7,2314.1,302.2,2313.6Zm38.5,40.3a100.92,100.92,0,0,1-15,7c-3.4,1.7-6.7,3.4-10,5.1,3.3-1.7,6.7-3.5,10-5.1a100.92,100.92,0,0,0,15-7,3.48,3.48,0,0,1,2.2-.4A3.59,3.59,0,0,0,340.7,2353.9Zm6,0h0l3-3h0Zm81-27c-10,4-20,8-30,9-1,0-2,3-3,3-5,0-7,1-9,2-3,2-7,2-9,3-7,2-14,2-21,7a7.6,7.6,0,0,1-1.1.4,4.87,4.87,0,0,0,1.1-.4c7-5,14-5,21-7,2-1,6-1,9-3,2-1,4-2,9-2,1,0,2-3,3-3,10-1,20-5,30-9a7.78,7.78,0,0,1,3.4-.4A8,8,0,0,0,427.7,2326.9Zm12-3c-1,0-2,2-3,3h0c1-1,2-3,3-3a9.85,9.85,0,0,1,1.7-.2A9.85,9.85,0,0,0,439.7,2323.9Zm21-3c-1,0-2,3-3,3a18.7,18.7,0,0,1-3.4.3,20.41,20.41,0,0,0,3.4-.3c1,0,2-3,3-3a9.85,9.85,0,0,1,1.7-.2A9.85,9.85,0,0,0,460.7,2320.9Zm8.1-3a2.43,2.43,0,0,0,1.5-.9A2.43,2.43,0,0,1,468.8,2317.9Zm12.9,0c-1,0-2,3-3,3a18.7,18.7,0,0,1-3.4.3,20.41,20.41,0,0,0,3.4-.3c1,0,2-3,3-3a13.55,13.55,0,0,1,2-.2A13.55,13.55,0,0,0,481.7,2317.9Zm42-5c-6,2-10,1-15,2-2,1-4,3-6,3a25.61,25.61,0,0,1-3.9.3,25.61,25.61,0,0,0,3.9-.3c2,0,4-2,6-3,5-1,9,0,15-2a8.2,8.2,0,0,1,3.4-.9A8.62,8.62,0,0,0,523.7,2312.9Zm.9-15.7h0a7.87,7.87,0,0,0,3.1-.1A7.87,7.87,0,0,1,524.6,2297.2Zm14.1,11.7c-1,0-2,2-3,3a7.72,7.72,0,0,1-1.5.2,7.72,7.72,0,0,0,1.5-.2c1-1,2-3,3-3a13.55,13.55,0,0,1,2-.2A13.55,13.55,0,0,0,538.7,2308.9Zm24-3c-1,0-2,3-3,3a25.61,25.61,0,0,1-3.9.3,25.61,25.61,0,0,0,3.9-.3c1,0,2-3,3-3a13.55,13.55,0,0,1,2-.2A13.55,13.55,0,0,0,562.7,2305.9Zm24-3c-1,0-2,3-3,3a25.61,25.61,0,0,1-3.9.3,25.61,25.61,0,0,0,3.9-.3c1,0,2-3,3-3a101,101,0,0,1,12.2-.7A101,101,0,0,0,586.7,2302.9Zm22.2-5.7H606c-1.1-1.4-2.1-2.8-3.1-4.3a42.48,42.48,0,0,0,3.1,4.3h2.9c.1.4.2.8.3,1.1C609.1,2297.9,609,2297.6,608.9,2297.2Zm137.2-11.5a2.54,2.54,0,0,1-1.2.2A1.55,1.55,0,0,0,746.1,2285.7ZM709,2295c-5,2.1-9.3,1.4-14.3,2.1a2.18,2.18,0,0,0-.9.7,2.76,2.76,0,0,1,.9-.7c5-.6,9.3.1,14.3-2.1,2.3-.9,5.3-.3,7.7-.4C714.3,2294.7,711.3,2294.1,709,2295Zm18.8,1.9h0c.2,0,.4.1.7.1C728.2,2297,728,2296.9,727.8,2296.9Zm19.8,4.6c-2.9-.7-5.7-3.6-8.6-4.3h0c2.9.7,5.7,3.6,8.6,4.3a8.2,8.2,0,0,0,2.2.2A7.84,7.84,0,0,1,747.6,2301.5Zm7.9-21.7c1.6-.8,3.3-1.4,4.9-2.2C758.7,2278.3,757.1,2279,755.5,2279.8Zm9.8-4.4a26.85,26.85,0,0,0,3.3-1.8C767.5,2274.3,766.4,2274.8,765.3,2275.4Zm47.5-44.1c-5.5,4.9-10.9,9.9-16.1,14.9C801.9,2241.1,807.3,2236.2,812.8,2231.3Zm-8.5,83.8c4.5.5,7.9,4.4,11.9,7.1C812.2,2319.5,808.8,2315.6,804.3,2315.1Zm30.4-106.4a59.64,59.64,0,0,0-3.5,5.6A59.64,59.64,0,0,1,834.7,2208.7Zm-6.9,7.6a2.36,2.36,0,0,0-.9.8A2.36,2.36,0,0,1,827.8,2216.3Zm-3,106.6c5.8,2.2,11.5,4.7,17.1,7.2C836.2,2327.7,830.6,2325.1,824.8,2322.9Zm62.8,19.7a11.63,11.63,0,0,0-1.8-.4,24.1,24.1,0,0,0-5.3-.7c-2.5-.2-5-.5-7.4-.9,2.4.4,4.9.7,7.4.9a24.1,24.1,0,0,1,5.3.7c.6.1,1.2.3,1.8.4l4.2,1.2Zm38.6,12.2c-.9-.3-1.7-.6-2.6-.9.9.4,1.8.6,2.6.9a141.21,141.21,0,0,1,16.5,7A160.72,160.72,0,0,0,926.2,2354.8Zm17.9,3.1a19.73,19.73,0,0,0-2.6-.7c1,.3,1.8.5,2.6.7.6.2,1.3.4,1.9.6A8.24,8.24,0,0,1,944.1,2357.9Zm35.1,7.9c1.1.5,2.2,2.4,3.3,3.2C981.4,2368.2,980.3,2366.4,979.2,2365.8Zm4.3,3.6c5.4.5,8.7.7,11,2.5C992.2,2370,988.8,2369.9,983.5,2369.4Zm19.5,6.6c2.9,2.6,5.6,6.7,9.7,8.1C1008.5,2382.7,1005.9,2378.6,1003,2376Zm23.4,19.1a33.25,33.25,0,0,1,11.6,8.3A35.22,35.22,0,0,0,1026.4,2395.1Z"/><path class="cls-5" d="M507.2,1753.7c-79-6-157-1-236,5-65,5-129,7-194,5-26.4-.5-51.7-4.7-77.1-10v24h0v82c5.8,4.3,11.5,8.6,17.1,13,3,2,7,2,10,3,13,7,23,18,36,24,29,15,58,27,87,42,6,3,12,2,18,4,4,2,6,5,10,7,7,3,15,4,22,8,34,19,70,33,108,45,4,2,7,5,11,7,58,17,112,36,172,45,11,1,21,3,32,8,3,1,7-1,10,0,29,9,58,12,88,15,52,5,103,8,155,13,20,1,39,0,59,2a402.51,402.51,0,0,0,85,0c28.8-3.4,57.6-4,86.4-7.3-13.3-36.4-28.2-71.6-55.4-100.7C833.2,1860.7,680.2,1767.7,507.2,1753.7Zm-250.7,20.2c-.1-1.4-.3-2.7-.4-4,.1,1.3.3,2.7.4,4,.1,1.1.2,2.1.3,3.2C256.7,1776.1,256.6,1775,256.5,1773.9Zm8.6,80.1c-.6-1.3-1.2-2.5-1.7-3.8a31.67,31.67,0,0,0,1.7,3.8,6.36,6.36,0,0,1,.6,1.8A6.36,6.36,0,0,0,265.1,1854Zm9.6,45.6c.8,5,1.4,10.1,1.9,15.3C276.1,1909.7,275.5,1904.6,274.7,1899.6Zm3.7,90.5c.7-3.3,1.3-6.6,1.7-9.9C279.6,1983.5,279.1,1986.8,278.4,1990.1Zm307.8,23.7c.1-.3.1-.5.2-.8A1.88,1.88,0,0,0,586.2,2013.8Zm5.1-26.5c.2-1.1.3-2.3.4-3.5A13.42,13.42,0,0,1,591.3,1987.3Z"/><path class="cls-6" d="M1006.6,2088.4c-28.8,3.3-57.6,3.9-86.4,7.3a402.51,402.51,0,0,1-85,0c-20-2-39-1-59-2-52-5-103-8-155-13-30-3-59-6-88-15-3-1-7,1-10,0-11-5-21-7-32-8-60-9-114-28-172-45-4-2-7-5-11-7-38-12-74-26-108-45-7-4-15-5-22-8-4-2-6-5-10-7-6-2-12-1-18-4-29-15-58-27-87-42-13-6-23-17-36-24-3-1-7-1-10-3-5.6-4.5-11.4-8.8-17.1-13v44.2c42.7,20.9,85.9,40.2,131.8,56.8,38,14,71,35,114,47,22,5,40,19,60,30,10,6,22,6,33,10,5,2,9,7,14,10,17,8,35,12,53,22,14,8,31,8,46,15,5,3,9,7,14,9,4,1,10-1,14,1,16,10,32,12,49,20,21,9,48,10,73,20,22,8,48,1,74,4,39,5,78-2,117,4,79.3,11.6,159.1,10.1,238.7,7.9q-9.75-32.7-22.4-64.9C1008.3,2093.3,1007.5,2090.8,1006.6,2088.4Zm-124,67.4,5.7-7.8Z"/><path class="cls-7" d="M285.4,1700.9h3.5A8.26,8.26,0,0,0,285.4,1700.9Z"/><path class="cls-8" d="M923.5,610.2c.9,0,1.9-.1,2.8-.1C925.3,610.1,924.4,610.2,923.5,610.2Z"/><path class="cls-8" d="M926.3,610.1a.37.37,0,0,0,.3-.1C926.5,610,926.4,610.1,926.3,610.1Z"/><path class="cls-8" d="M929.1,607.3c-1.2.6-1.9,2.3-2.6,2.7,2-.7,3.4-2.1,5.4-2.7A4.44,4.44,0,0,0,929.1,607.3Z"/><path class="cls-8" d="M934.9,607.3a1,1,0,0,0,.5-.4c-1.1.1-2.3.2-3.4.4A7.06,7.06,0,0,0,934.9,607.3Z"/><path class="cls-8" d="M329.1,449.4c.3-.3.6-.5.9-.8A6.47,6.47,0,0,0,329.1,449.4Z"/><path class="cls-8" d="M331,447.9a5.5,5.5,0,0,0-.9.7A5.5,5.5,0,0,0,331,447.9Z"/><path class="cls-9" d="M221.2,68.9c5-3,9-8,14-11,38-20,73-39,116-46,6,0,11-4,17-6,8.6-1.8,17-3.9,25.3-5.9H82.8a5.94,5.94,0,0,1,.4.8,3,3,0,0,0-.4-.8H.1V108.7h0V257.4c1-.8,2.1-1.6,3.1-2.5C72.2,185.9,134.2,113.9,221.2,68.9ZM85.7,6.8c1.4,2.1,4.3,3.6,5.7,5.7,2.7,5.9,5.3,11.9,7.9,18-2.6-6-5.3-12.1-7.9-18-1.5-2.1-4.3-3.5-5.7-5.7-.4-1.3-.9-2.4-1.3-3.5C84.8,4.4,85.2,5.6,85.7,6.8ZM54.2,76.2c.2.3.4.7.6,1a8.79,8.79,0,0,0-.6-1c-.1-.2-.3-.5-.4-.7A1.61,1.61,0,0,1,54.2,76.2Z"/><path class="cls-10" d="M426.2,212.9c-2.6-3.8-5.2-7.6-7.6-11.6C421,205.2,423.5,209.1,426.2,212.9Z"/><path class="cls-11" d="M398.9,174.8Z"/><path class="cls-1" d="M1117.9,401.9c-40,58-91,92-141,137-28,26-54,50-87,70-76,45-145,89-231,112-14.5,4-28.4,8.2-42.2,12.3s-27.7,8.2-41.8,11.7c-96,24-189,28-285,34-97.1,6.9-193.5,6.4-289.8,3.5v70.4c25.4,5.3,50.7,9.5,77.1,10,65,2,129,0,194-5,79-6,157-11,236-5,173,14,326,107,444,234,27.2,29.1,42.1,64.3,55.4,100.7.9,2.4,1.8,4.9,2.6,7.3,8.3,21.5,15.9,43.1,22.4,64.9,29-.8,58-1.6,86.9-1.9h2.4c27.2,0,54.4.5,81.7-1.3V270.2C1182.1,318.2,1149.1,356.5,1117.9,401.9ZM27,848.9l-6.9,6.9,6.9-6.9a15.37,15.37,0,0,1,1.9-1.7C28.3,847.7,27.6,848.3,27,848.9ZM934.9,607.3a4.77,4.77,0,0,1-2.9,0c-2,.7-3.4,2-5.4,2.7a.37.37,0,0,1-.3.1c.1,0,.2-.1.3-.1.6-.4,1.3-2.1,2.6-2.7a4.77,4.77,0,0,1,2.9,0c1.1-.1,2.3-.3,3.4-.4C935.2,607,935.1,607.2,934.9,607.3Zm1.5-1.7a2.58,2.58,0,0,1,.9-.9C936.9,604.9,936.7,605.3,936.4,605.6Zm114.3,11.7c1.8,1.8,3.6,3.6,5.4,5.6C1054.3,620.9,1052.4,619.1,1050.7,617.3Zm38.4,102c0,4.5,0,9.1.2,13.7C1089.1,728.4,1089,723.9,1089.1,719.3Z"/><path class="cls-12" d="M1077.2,438a110.59,110.59,0,0,1-36.9,32.1c-4,2-8,6-12,7-7,3-15,5-21,10-2,1-4-1-6,0-4,4-9,5-15,7-1.3.5-2.7,1-4,1.4-8.8,4.2-17.8,8.3-26.8,12.4a267.68,267.68,0,0,1-88,24l-49.4,4.8c-.9.5-1.9.9-2.8,1.4-7,1-13-1-21,2s-16,0-24,2c-9,2-18,1-27,2-3,1-6,3-9,3-17,1-34-1-51,0-2,0-4,3-6,3q-49.5,1.5-99,0c-2,0-4-3-6-3-27-1-54,2-81-1-11-2-22,1-33-3-7-2-14-1-21-2l-6-3c-5,0-10,1-15-1a60.52,60.52,0,0,0-15-2c-2,0-4-2-6-3h-12c-5-1-10-5-15-5a78.26,78.26,0,0,1-9.4-1.9c5,2.8,10.1,5.4,15.2,7.7,25,10,48,21,75,27,5,2,11,3,16,6,3,1,6-1,9,0,40,16,82,20,124,26,10,1,21-1,31,1,6.7,1.4,13.3,2.5,19.9,3.5,109.7-14.2,217.7-7,318.1,37.5,35,15,67,37,95,64,28,29,46,62,58,100,15,47,25,92,35,141,8,36,12,71,29,103,2,6,2,13,4,19,3.9,9.3,7.6,18.7,11.7,28V308C1162.9,357.8,1125.4,400,1077.2,438Zm8.5,2c-.2.1-.4.1-.6.2a1.42,1.42,0,0,0,.6-.2c.7-.5,1.2-1.1,1.8-1.6C1086.9,439,1086.3,439.5,1085.7,440Z"/><path class="cls-13" d="M993.1,0C922.4,62.2,857.5,122.9,775.5,177.9c-127,86-251,143-392,185-32.5,10.2-65,18-98.1,21.5-2.6,3.6-5.3,7.1-8,10.5-.9,1.1-1.8,2.3-2.7,3.4s-1.7,2.1-2.6,3.1c.9-1,1.7-2.1,2.6-3.1s1.8-2.3,2.7-3.4c2.7-3.4,5.4-7,8-10.5a347.89,347.89,0,0,1-56.9,1.5c-5,0-9,2-14,3l-5.4.3c33.3,47.7,71.5,81.7,119.1,115.7A308.26,308.26,0,0,0,359,525.2c3.1.8,6.3,1.4,9.4,1.9,5,0,10,4,15,5h12c2,1,4,3,6,3a60.52,60.52,0,0,1,15,2c5,2,10,1,15,1l6,3c7,1,14,0,21,2,11,4,22,1,33,3,27,3,54,0,81,1,2,0,4,3,6,3q49.5,1.5,99,0c2,0,4-3,6-3,17-1,34,1,51,0,3,0,6-2,9-3,9-1,18,0,27-2,8-2,16,1,24-2s14-1,21-2c.9-.5,1.9-.9,2.8-1.4,16.4-1.6,32.8-3.2,49.4-4.8a267.68,267.68,0,0,0,88-24c9-4.1,18-8.2,26.8-12.4h0c1.4-.5,2.7-.9,4-1.4,6-2,11-3,15-7,2-1,4,1,6,0,6-5,14-7,21-10,4-1,8-5,12-7a110.59,110.59,0,0,0,36.9-32.1c48.2-38,85.7-80.3,122.6-130V293.7h0V281.8h0V0ZM669.6,358.5a53.79,53.79,0,0,1,6,2.8C673.6,360.3,671.6,359.3,669.6,358.5Zm98.7,47.9c-6.3-3.6-12.4-6.9-18.5-10.2,6.1,3.3,12.2,6.7,18.5,10.2a16.55,16.55,0,0,1,3,2.2A23.22,23.22,0,0,0,768.3,406.4ZM815.5,440c-.6-.4-1.2-.7-1.9-1.1.6.4,1.3.7,1.9,1.1.7.6,1.4,1.2,2,1.8C816.8,441.2,816.2,440.6,815.5,440ZM829,451.6c8.7,4.8,17.8,7.9,26.9,10.9C846.9,459.5,837.8,456.4,829,451.6Zm110.1,59.1c.3-.1.6-.3.9-.4C939.7,510.4,939.4,510.6,939.1,510.7Zm2.8-1.3c.4-.2.7-.3,1.1-.5C942.6,509.1,942.3,509.2,941.9,509.4Zm2.9-1.3c.4-.2.7-.3,1.1-.5A3.7,3.7,0,0,1,944.8,508.1Zm3-1.2c.4-.1.7-.3,1.1-.4C948.5,506.6,948.2,506.8,947.8,506.9Zm3.1-1.1a4.18,4.18,0,0,0,1-.4A4.18,4.18,0,0,0,950.9,505.8Zm3.2-1.2a6.89,6.89,0,0,0,.8-.3C954.6,504.4,954.4,504.5,954.1,504.6Zm3.3-1.1c.2-.1.3-.1.5-.2C957.7,503.4,957.6,503.5,957.4,503.5Zm47-31.5a18.68,18.68,0,0,1,4-2A21.31,21.31,0,0,0,1004.4,472Zm12.6-2a2.77,2.77,0,0,1-.9.1,1.25,1.25,0,0,0,.9-.1,6.24,6.24,0,0,0,1.7-1.6A3.65,3.65,0,0,1,1017,470Zm19.4-8.7c1.2,0,2.3.2,3.4.2C1038.8,461.4,1037.6,461.3,1036.4,461.3Zm27.8-12.7a5.63,5.63,0,0,0-1.8,1.7,7,7,0,0,1,1.8-1.7,2.54,2.54,0,0,1,1.2-.2A2.54,2.54,0,0,0,1064.2,448.6Zm2.8.1a2.16,2.16,0,0,0,1.1.1A2.29,2.29,0,0,1,1067,448.7Zm14.6-17.5.1-.1A.1.1,0,0,1,1081.6,431.2Zm1-1.6c0-.1.1-.1.1-.2A.35.35,0,0,0,1082.6,429.6Zm.9-1.7c.1-.1.1-.2.2-.3C1083.6,427.7,1083.5,427.8,1083.5,427.9Zm.8-1.7c.1-.1.1-.2.2-.3C1084.5,426,1084.4,426.1,1084.3,426.2Zm3.7-7c-.1,1.2.6,2.5.6,3.8C1088.6,421.7,1088,420.5,1088,419.2Zm26.3-22.1a25.36,25.36,0,0,1-2,5.2,32.81,32.81,0,0,0,2-5.2,52.71,52.71,0,0,1,1.9-5.1A52.71,52.71,0,0,0,1114.3,397.1Zm10-36a4.3,4.3,0,0,1,.5,2.1A4.3,4.3,0,0,0,1124.3,361.1Zm61.1-61.8c2.7-1.1,5.4-2.1,8.2-3C1190.8,297.2,1188,298.2,1185.4,299.3Z"/><path class="cls-12" d="M228.5,385.9a347.89,347.89,0,0,0,56.9-1.5c2.2-3,4.4-6.1,6.7-9.1-2.2,3.1-4.4,6.1-6.7,9.1,33-3.5,65.6-11.3,98.1-21.5,141-42,265-99,392-185,82-55,146.9-115.7,217.6-177.9H169c-9.5,8.4-17.6,18.3-22.9,28.9-29,58-25,124-12,189,12,62,36,114,72,167,1,1.4,2,2.8,2.9,4.3l5.4-.3C219.5,387.9,223.5,385.9,228.5,385.9Zm265.3-86.7a9.39,9.39,0,0,0,1.8,1.2,9.39,9.39,0,0,1-1.8-1.2q-5.1-4.8-9.9-9.6Q488.7,294.4,493.8,299.2Zm-46.5-42.9a2.29,2.29,0,0,0,.7,1,3.59,3.59,0,0,1-.7-1,27.5,27.5,0,0,0-1.5-2.5C446.3,254.6,446.8,255.4,447.3,256.3ZM400.9,227l1.8-1.8-1.8,1.8c-2.5,2-5.2,2.9-7.9,4C395.6,229.9,398.4,229,400.9,227ZM309.4,344.2c.7-1,1.3-2,1.9-3,12.5-19.5,22.1-39.6,33.9-58.1,3-4.6,6.1-9.2,9.4-13.6,2.4-3.2,4.9-6.3,7.6-9.3-2.7,3-5.2,6.1-7.6,9.3-3.3,4.4-6.4,8.9-9.4,13.6-11.8,18.5-21.4,38.7-33.9,58.1-.6,1.1-1.3,2.1-1.9,3-.1.2-.1.4-.2.6A1.42,1.42,0,0,1,309.4,344.2Zm0,5.8c.1-.2.1-.3.2-.5-.1.1-.1.3-.2.5-2.7,3.7-4.9,7.2-7,10.6A120.73,120.73,0,0,1,309.4,350Z"/><path class="cls-14" d="M134.1,217.9c-13-65-17-131,12-189C151.4,18.3,159.5,8.4,169,0h-4.6c-2.1,2.1-4.6,4-6.3,6.9-27,43-51,87-50,139,0,2-3,5-4,7-1,34-4,68,2,102,3,14,3,28,6,42,5,31.1,11.4,60.3,24,88.1a362.67,362.67,0,0,0,73,4.1c-1-1.4-2-2.8-2.9-4.3C170.1,331.9,146.1,279.9,134.1,217.9Zm-19.3,69.6a53.13,53.13,0,0,0,.1-8.9A44.34,44.34,0,0,1,114.8,287.5Zm.9,11.2c.2.7.4,1.5.6,2.2A18,18,0,0,0,115.7,298.7Z"/><path class="cls-15" d="M206.2,384.8c-21.09-30.91-38-61.51-50.89-94H111c.33,2,.7,4.05,1.13,6.07,5,31.1,11.4,60.75,24,88.55l.11,0,.29.63c28.6,39,58.5,79.5,103.5,98.8,4.4,1.8,8.7,3.6,13,5.4,6.3,2.3,12.7,4.6,19.1,6.8,5.2,2,10.2,6,15.2,7a594.14,594.14,0,0,0,60,18c3.9,1.1,7.7,2.2,11.6,3.1a320.2,320.2,0,0,1-30.8-20.3c-47.6-34-85.8-68-119.1-115.7m-13.3,42.2a54.08,54.08,0,0,0,6.4,1.7A42.88,42.88,0,0,1,195.7,431.4Z"/><path class="cls-16" d="M919.8,2376.9a167.64,167.64,0,0,0,46.6-14.6,67.45,67.45,0,0,0-7.4-10.6h-4c-1-2,1-6,0-8-2-3-6-5-7-8-4-12-16-22-19-33-3-8-10-15-14-23-1-2,1-6,0-8-2-3-7-5-7-8-1-10-6-18-9-28-1-3,1-5,0-8-1-2-3-2-4-4-1-3,1-5,0-8-1-2-3-2-4-4-1-5,1-11,0-16-1-2-3-2-4-4-3-11,3-20-3-32-3-7,0-16-1-24h-4c-1-44-4-88,2-132,1-9,0-18,2-28,1-2,3-3,4-4,1-5,0-10,4-16,1-2,0-5,0-8,1-3,3-5,4-8,1-5-2-12,1-15,3-5,2-9,3-13,1-2,3-2,4-4,1-3-1-6,0-8,14-27,26-53,41-80,5-9,12-17,15-28h4c5-7,7-14,11-21,3-6,8-12,11-18a260.68,260.68,0,0,1,28-48c3-3,7-11,10-17h4c-2-5,6-7,4-12h4c-2-5,4-8,5-11,16-29,34-56,53-84,7-9,13-26,22-37,1-2-1-6,0-8h4c0-10,7-19,12-28,1-2-1-5,0-8,1-2,3-2,4-4,1-3-1-6,0-8,5-8,7-16,9-24,2-3,2-8,3-12,1-2,3-2,4-4,1-3-1-5,0-8,1-2,3-2,4-4,1-4-1-8,0-12,1-2,3-2,4-4,2-5-3-9,3-17,3-3-2-8,4-16,3-3-1-8,4-16,3-6,0-15,1-23,1-1,3-2,4-4,1-7-1-13,3-20,2-3,0-8,1-12,1-2,3-3,4-4,1-8-2-17,1-23,4-7,1-14,3-21,1-2,3-2,4-4,1-8-1-15,3-24,2-5,0-11,1-16,1-2,3-2,4-4,1-5-1-11,1-16,.6-3,1.6-5.7,2.3-8.9V958.9c-20,51.1-35.6,103.6-45.3,159.8,0,1-2,2-3,3v9c-1,1-3,2-3,3-1,5,0,10-2,15s0,10-1,15c0,1-2,2-3,3-2,5,0,11-1,15-16,73-32,140-59,207-1,3,1,6,0,9-13,23-17,48-33,69-1,2,1,4,0,6-3,4-6,7-7,12-3,10-13,20-18,29-17,31-37,57-56,88-1,1-5,2-6,3-5,12-15,19-21,30-1,1-4,2-6,3-21,26-39,50-63,72-3,3-3,9-6,12-20,20-35,42-51,66-1,2,1,4,0,6-13,20-24,42-34,63a211.6,211.6,0,0,1-11,21c-1,2,1,4,0,6-10,19-15,39-21,60-1,4,1,8,0,12a151.89,151.89,0,0,0-12,51c0,2-2,4-3,6-1,6-1,12-2,18-4,25-3,50,0,75,3,24,0,46,2,69,0,2,3,4,3,6,1,7-1,14,1,21s1,14,2,21l3,6c0,4-1,8,0,12,3,12,5,24,7,36,6,29,16,54,24,82l4.2,12.9a287.29,287.29,0,0,0,40.6,6.3C854.8,2380.9,886.8,2382.9,919.8,2376.9Z"/><path class="cls-17" d="M532.5,2051.9c9.7,27.5,16.3,55.9,22.3,86,24,108,102,189,201,226a213.27,213.27,0,0,0,25.4,7.7q-2.25-6.3-4.2-12.9c-8-28-18-53-24-82-2-12-4-24-7-36-1-4,0-8,0-12l-3-6c-1-7,0-14-2-21s0-14-1-21c0-2-3-4-3-6-2-23,1-45-2-69-3-25-4-50,0-75,1-6,1-12,2-18,1-2,3-4,3-6a151.89,151.89,0,0,1,12-51c1-4-1-8,0-12,6-21,11-41,21-60,1-2-1-4,0-6a211.6,211.6,0,0,0,11-21c10-21,21-43,34-63,1-2-1-4,0-6,16-24,31-46,51-66,3-3,3-9,6-12,24-22,42-46,63-72,2-1,5-2,6-3,6-11,16-18,21-30,1-1,5-2,6-3,19-31,39-57,56-88,5-9,15-19,18-29,1-5,4-8,7-12,1-2-1-4,0-6,16-21,20-46,33-69,1-3-1-6,0-9,27-67,43-134,59-207,1-4-1-10,1-15,1-1,3-2,3-3,1-5-1-10,1-15s1-10,2-15c0-1,2-2,3-3v-9c1-1,3-2,3-3,9.7-56.2,25.2-108.6,45.3-159.8V913.2c-10,12.7-25.5,23.5-32.4,38.2-5,11-16,21-25,30-9,10-19,22-26,35-1,2-5,2-7,4-11,20-29,32-40,52h-3.5c-.3.5-.5.9-.8,1.4,0,2.1,1.1,4.8.3,5.6a38.14,38.14,0,0,0-7.5,7.6c-3,5.7-5.8,11.6-8.5,17.5.2,1.4.5,2.9,0,3.9a18.1,18.1,0,0,1-3,3.2c-1.7,4-3.3,8.1-4.8,12.2a2.54,2.54,0,0,1-.2.7c0,.1-.1.2-.2.3-1.2,3.4-2.4,6.8-3.6,10.3a4,4,0,0,1-.3,1.5c-.1.2-.3.4-.4.6-2.4,7.7-4.6,15.5-6.5,23.6-5.6,23.2-9.3,47.4-13.1,71.5a57.48,57.48,0,0,1,0,8.3,9.83,9.83,0,0,1-1.5,1.2q-2.85,18.15-6.3,36a10.85,10.85,0,0,1-1.2,5.7c-.8,3.9-1.6,7.7-2.5,11.5.1,1.9.3,3.6-.5,5.5h-.8c-12.4,50.2-33.6,95.7-83,126.3-48,29-102,30-157,40-18,3-35,8-54,11-99,18-165,97-194,187-31,96-18,195-3,295C520.6,1991.1,526.4,2021.6,532.5,2051.9Z"/><path class="cls-18" d="M531,2470.7c-22.3,47.6-44.6,95.2-76.3,136.1h747.6V1790.4c-31.6,54.2-53.4,114.6-68.4,178.5-19,77-21,151-46,225-15,41-28,81-56,116-18.4,22.2-40.4,40.3-65.4,52.4a166.61,166.61,0,0,1-46.6,14.6c-33,6-65,4-98,1a300,300,0,0,1-40.6-6.3,186,186,0,0,1-25.4-7.7c-99-37-177-118-201-226-6-30.1-12.6-58.5-22.3-86,11.2,55.5,23.4,110.2,30.5,167.8,7,62,2,121-9,184A224.59,224.59,0,0,1,531,2470.7Z"/><rect class="cls-19" x="292.1" y="123.6" width="383" height="95"/><rect class="cls-19" x="709.7" y="123.6" width="383" height="95"/><path class="cls-20" d="M103,300.71a8.61,8.61,0,0,0,14.42,0c5-7.95,22.79-10,27.78-18-.38-.44-15.8-9.16-20.08-9.13a9.88,9.88,0,0,0-7.16,3.25Q110.44,288.78,103,300.71Z"/><path class="cls-21" d="M125.05,279.71c-4.26.43-7-3.28-7.39-2.85,5,7.95,3.06,11.67,8,19.62a9,9,0,0,0,7,3.9c4.65.09,24.13-10.44,24.29-10.69C157,289.69,142.73,277.9,125.05,279.71Z"/><path class="cls-22" d="M132.84,300.71a8.61,8.61,0,0,1-14.42,0q-7.47-11.93-15-23.85a9.62,9.62,0,0,1,14.42,0c9.6,13.62,22.81,13,22.81,13S137.39,295,132.84,300.71Z"/></g></g></svg>