<?xml version="1.0" encoding="utf-8"?>
<!-- Generator: Adobe Illustrator 24.3.0, SVG Export Plug-In . SVG Version: 6.00 Build 0)  -->
<svg version="1.2" baseProfile="tiny" id="Vrstva_1"
	 xmlns="http://www.w3.org/2000/svg" xmlns:xlink="http://www.w3.org/1999/xlink" x="0px" y="0px" viewBox="0 0 269.1 246.2"
	 overflow="visible" xml:space="preserve">
<path d="M180.6,13.2c-0.3-0.2-0.7-0.4-1.1-0.6c-0.2-0.1-0.4-0.3-0.7-0.4c0,0-0.1,0-0.1,0c-27-15.2-61-16.2-89.8,0.4
	c-28.4,16.4-62,15.6-88.8,1c25.9,15.7,43.2,44,43.6,76.4c0,0.3,0,0.7,0,1c0,0.3,0,0.7,0,1c0.2,15,4.1,30.2,12.1,44.2
	c8,13.9,19.2,24.9,32.1,32.5c0.3,0.2,0.7,0.4,1,0.6c0.3,0.2,0.7,0.4,1,0.6c27.9,16.6,43.7,45.9,44.2,76.2
	c0.6-30.7,16.7-60.3,45.2-76.8c28.9-16.7,45.1-46.8,45.3-77.9c0-0.2,0-0.3,0-0.5c0-0.2,0-0.4,0-0.5c0.2-32.8,17.8-61.4,44-77.1
	C242.3,28.1,209,29.1,180.6,13.2z M162.3,139.5c-26.8,15.4-61,6.3-76.4-20.5c-15.4-26.8-6.3-61,20.5-76.4
	c26.8-15.4,61-6.3,76.4,20.5C198.2,89.8,189,124,162.3,139.5z"/>
</svg>
