<?xml version="1.0" encoding="utf-8"?>
<!-- Generator: Adobe Illustrator 24.3.0, SVG Export Plug-In . SVG Version: 6.00 Build 0)  -->
<svg version="1.2" baseProfile="tiny" id="Vrstva_1"
	 xmlns="http://www.w3.org/2000/svg" xmlns:xlink="http://www.w3.org/1999/xlink" x="0px" y="0px" viewBox="0 0 357.6 206.4"
	 overflow="visible" xml:space="preserve">
<g>
	<linearGradient id="SVGID_1_" gradientUnits="userSpaceOnUse" x1="80.5687" y1="103.2099" x2="354.6723" y2="103.2099">
		<stop  offset="0.8056" style="stop-color:#FADFD0"/>
		<stop  offset="1" style="stop-color:#FAD2BA"/>
	</linearGradient>
	<path fill="url(#SVGID_1_)" stroke="#000000" stroke-width="5" stroke-miterlimit="10" d="M354.7,178.6c-1,1.6-17.7,25.9-47.9,25.4
		c-28.9-0.5-44.5-23.4-45.8-25.4c-32.4-51.6-148-65.1-180.4-116.8C83,59,183.2,2.3,211,2.5c27.4,0.2,44,18.3,46.5,21.1
		C289.9,75.3,322.3,126.9,354.7,178.6z"/>
	<path fill="#F5EDDF" stroke="#000000" stroke-width="5" stroke-miterlimit="10" d="M211.2,42.1c27.6,2.8,45.5-21.3,48-18.5
		c-32.4,51.6-19.9,75.8-52.3,127.4c-1.3,2-16.9,24.8-45.8,25.4C130.9,177,4.4,108.6,3.3,107C3.3,107,96.3,30.4,211.2,42.1z"/>
	<linearGradient id="SVGID_2_" gradientUnits="userSpaceOnUse" x1="109.5355" y1="103.2096" x2="351.3466" y2="103.2096">
		<stop  offset="0" style="stop-color:#B49276"/>
		<stop  offset="9.902107e-02" style="stop-color:#C5A384"/>
		<stop  offset="0.2853" style="stop-color:#E2BF9D"/>
		<stop  offset="0.4494" style="stop-color:#F2D0AC"/>
		<stop  offset="0.5727" style="stop-color:#F8D5B0"/>
		<stop  offset="1" style="stop-color:#FEEFDA"/>
	</linearGradient>
	<path fill="url(#SVGID_2_)" stroke="#000000" stroke-width="5" stroke-miterlimit="10" d="M160.5,178.6c1,1.6,17.7,25.9,47.9,25.4
		c28.9-0.5,44.5-23.4,45.8-25.4c32.4-51.6,64.8-103.3,97.2-154.9c-2.5-2.8-19.4-21.3-47.2-21.1c-27.4,0.2-44,18.3-46.5,21.1
		C195.3,112.1,109.5,108,109.5,108S131,141.2,160.5,178.6z"/>
</g>
</svg>
