<svg xmlns="http://www.w3.org/2000/svg" xmlns:xlink="http://www.w3.org/1999/xlink" viewBox="0 0 357.64 206.42"><defs><style>.cls-1,.cls-2,.cls-3{stroke:#1d1d1b;stroke-miterlimit:10;stroke-width:5px;}.cls-1{fill:url(#Nepojmenovaný_přechod_11);}.cls-2{fill:#f5eddf;}.cls-3{fill:url(#Nepojmenovaný_přechod_5);}</style><linearGradient id="Nepojmenovaný_přechod_11" x1="80.22" y1="103.21" x2="354.32" y2="103.21" gradientTransform="matrix(-1, 0, 0, 1, 357.29, 0)" gradientUnits="userSpaceOnUse"><stop offset="0.81" stop-color="#fadfd0"/><stop offset="1" stop-color="#fad2ba"/></linearGradient><linearGradient id="Nepojmenovaný_přechod_5" x1="109.18" y1="103.21" x2="351" y2="103.21" gradientTransform="matrix(-1, 0, 0, 1, 357.29, 0)" gradientUnits="userSpaceOnUse"><stop offset="0" stop-color="#b49276"/><stop offset="0.1" stop-color="#c5a384"/><stop offset="0.29" stop-color="#e2bf9d"/><stop offset="0.45" stop-color="#f2d0ac"/><stop offset="0.57" stop-color="#f8d5b0"/><stop offset="1" stop-color="#feefda"/></linearGradient></defs><g id="Vrstva_2" data-name="Vrstva 2"><g id="Vrstva_1-2" data-name="Vrstva 1"><path class="cls-1" d="M3,178.56c1,1.58,17.68,25.92,47.89,25.35,28.88-.54,44.47-23.37,45.77-25.35C129,126.91,244.68,113.43,277.08,61.79,274.6,59,174.43,2.34,146.63,2.5c-27.38.16-44,18.28-46.48,21.13Z"/><path class="cls-2" d="M146.49,42.13c-27.65,2.83-45.51-21.3-48-18.5,32.39,51.64,19.85,75.8,52.25,127.45,1.3,2,16.89,24.8,45.77,25.35,30.21.57,156.75-67.86,157.79-69.45C354.32,107,261.38,30.39,146.49,42.13Z"/><path class="cls-3" d="M197.14,178.56c-1,1.58-17.68,25.92-47.89,25.35-28.87-.54-44.47-23.37-45.77-25.35Q54.9,101.09,6.3,23.63C8.77,20.83,25.69,2.34,53.48,2.5c27.38.16,44,18.28,46.48,21.13C162.32,112.09,248.11,108,248.11,108S226.66,141.19,197.14,178.56Z"/></g></g></svg>