<?xml version="1.0" encoding="utf-8"?>
<!-- Generator: Adobe Illustrator 24.3.0, SVG Export Plug-In . SVG Version: 6.00 Build 0)  -->
<svg version="1.2" baseProfile="tiny" id="Vrstva_1"
	 xmlns="http://www.w3.org/2000/svg" xmlns:xlink="http://www.w3.org/1999/xlink" x="0px" y="0px" viewBox="0 0 3610.5 206.4"
	 overflow="visible" xml:space="preserve">
<g>
	<linearGradient id="SVGID_1_" gradientUnits="userSpaceOnUse" x1="80.5687" y1="103.2099" x2="354.6723" y2="103.2099">
		<stop  offset="0.8056" style="stop-color:#FADFD0"/>
		<stop  offset="1" style="stop-color:#FAD2BA"/>
	</linearGradient>
	<path fill="url(#SVGID_1_)" stroke="#000000" stroke-width="5" stroke-miterlimit="10" d="M354.7,178.6c-1,1.6-17.7,25.9-47.9,25.4
		c-28.9-0.5-44.5-23.4-45.8-25.4c-32.4-51.6-148-65.1-180.4-116.8C83,59,183.2,2.3,211,2.5c27.4,0.2,44,18.3,46.5,21.1
		C289.9,75.3,322.3,126.9,354.7,178.6z"/>
	<path fill="#F5EDDF" stroke="#000000" stroke-width="5" stroke-miterlimit="10" d="M211.2,42.1c27.6,2.8,45.5-21.3,48-18.5
		c-32.4,51.6-19.9,75.8-52.3,127.4c-1.3,2-16.9,24.8-45.8,25.4C130.9,177,4.4,108.6,3.3,107C3.3,107,96.3,30.4,211.2,42.1z"/>
	<linearGradient id="SVGID_2_" gradientUnits="userSpaceOnUse" x1="109.5355" y1="103.2096" x2="351.3466" y2="103.2096">
		<stop  offset="0" style="stop-color:#B49276"/>
		<stop  offset="9.902107e-02" style="stop-color:#C5A384"/>
		<stop  offset="0.2853" style="stop-color:#E2BF9D"/>
		<stop  offset="0.4494" style="stop-color:#F2D0AC"/>
		<stop  offset="0.5727" style="stop-color:#F8D5B0"/>
		<stop  offset="1" style="stop-color:#FEEFDA"/>
	</linearGradient>
	<path fill="url(#SVGID_2_)" stroke="#000000" stroke-width="5" stroke-miterlimit="10" d="M160.5,178.6c1,1.6,17.7,25.9,47.9,25.4
		c28.9-0.5,44.5-23.4,45.8-25.4c32.4-51.6,64.8-103.3,97.2-154.9c-2.5-2.8-19.4-21.3-47.2-21.1c-27.4,0.2-44,18.3-46.5,21.1
		C195.3,112.1,109.5,108,109.5,108S131,141.2,160.5,178.6z"/>
	<path fill="#F5EDDF" stroke="#000000" stroke-width="5" stroke-miterlimit="10" d="M448.3,178.6c-1,1.6-17.7,25.9-47.9,25.4
		c-28.9-0.5-44.5-23.4-45.8-25.4c-32.4-51.6-64.8-103.3-97.2-154.9c2.5-2.8,19.4-21.3,47.2-21.1c27.4,0.2,44,18.3,46.5,21.1
		C383.5,75.3,415.9,126.9,448.3,178.6z"/>
	<linearGradient id="SVGID_3_" gradientUnits="userSpaceOnUse" x1="3255.7932" y1="103.2093" x2="3529.8967" y2="103.2093">
		<stop  offset="0.8056" style="stop-color:#FADFD0"/>
		<stop  offset="1" style="stop-color:#FAD2BA"/>
	</linearGradient>
	<path fill="url(#SVGID_3_)" stroke="#000000" stroke-width="5" stroke-miterlimit="10" d="M3255.8,27.9c1-1.6,17.7-25.9,47.9-25.4
		c28.9,0.5,44.5,23.4,45.8,25.4c32.4,51.6,148,65.1,180.4,116.8c-2.5,2.8-102.6,59.4-130.4,59.3c-27.4-0.2-44-18.3-46.5-21.1
		C3320.6,131.1,3288.2,79.5,3255.8,27.9z"/>
	<path fill="#F5EDDF" stroke="#000000" stroke-width="5" stroke-miterlimit="10" d="M3399.3,164.3c-27.6-2.8-45.5,21.3-48,18.5
		c32.4-51.6,19.9-75.8,52.3-127.4c1.3-2,16.9-24.8,45.8-25.4c30.2-0.6,156.7,67.9,157.8,69.4C3607.1,99.4,3514.2,176,3399.3,164.3z"
		/>
	<linearGradient id="SVGID_4_" gradientUnits="userSpaceOnUse" x1="3262.6113" y1="103.2095" x2="3500.9299" y2="103.2095">
		<stop  offset="0" style="stop-color:#B49276"/>
		<stop  offset="9.902107e-02" style="stop-color:#C5A384"/>
		<stop  offset="0.2853" style="stop-color:#E2BF9D"/>
		<stop  offset="0.4494" style="stop-color:#F2D0AC"/>
		<stop  offset="0.5727" style="stop-color:#F8D5B0"/>
		<stop  offset="1" style="stop-color:#FEEFDA"/>
	</linearGradient>
	<path fill="url(#SVGID_4_)" stroke="#000000" stroke-width="5" stroke-miterlimit="10" d="M3450,27.9c-1-1.6-17.7-25.9-47.9-25.4
		c-28.9,0.5-44.5,23.4-45.8,25.4c-32.4,51.6-61.3,99.3-93.7,150.9c2.5,2.8,15.9,25.3,43.7,25.1c27.4-0.2,44-18.3,46.5-21.1
		c62.4-88.5,148.1-84.4,148.1-84.4S3479.5,65.2,3450,27.9z"/>
	<linearGradient id="SVGID_5_" gradientUnits="userSpaceOnUse" x1="351.1512" y1="103.2096" x2="541.9963" y2="103.2096">
		<stop  offset="0" style="stop-color:#B49276"/>
		<stop  offset="9.902107e-02" style="stop-color:#C5A384"/>
		<stop  offset="0.2853" style="stop-color:#E2BF9D"/>
		<stop  offset="0.4494" style="stop-color:#F2D0AC"/>
		<stop  offset="0.5727" style="stop-color:#F8D5B0"/>
		<stop  offset="1" style="stop-color:#FEEFDA"/>
	</linearGradient>
	<path fill="url(#SVGID_5_)" stroke="#000000" stroke-width="5" stroke-miterlimit="10" d="M542,178.6c-1,1.6-17.7,25.9-47.9,25.4
		c-28.9-0.5-44.5-23.4-45.8-25.4c-32.4-51.6-64.8-103.3-97.2-154.9c2.5-2.8,19.4-21.3,47.2-21.1c27.4,0.2,44,18.3,46.5,21.1
		C477.2,75.3,509.6,126.9,542,178.6z"/>
	<linearGradient id="SVGID_6_" gradientUnits="userSpaceOnUse" x1="444.8132" y1="103.2096" x2="635.6583" y2="103.2096">
		<stop  offset="0.8056" style="stop-color:#FADFD0"/>
		<stop  offset="1" style="stop-color:#FAD2BA"/>
	</linearGradient>
	<path fill="url(#SVGID_6_)" stroke="#000000" stroke-width="5" stroke-miterlimit="10" d="M635.7,178.6c-1,1.6-17.7,25.9-47.9,25.4
		c-28.9-0.5-44.5-23.4-45.8-25.4c-32.4-51.6-64.8-103.3-97.2-154.9c2.5-2.8,19.4-21.3,47.2-21.1c27.4,0.2,44,18.3,46.5,21.1
		C570.9,75.3,603.3,126.9,635.7,178.6z"/>
	<path fill="#F5EDDF" stroke="#000000" stroke-width="5" stroke-miterlimit="10" d="M729.3,178.6c-1,1.6-17.7,25.9-47.9,25.4
		c-28.9-0.5-44.5-23.4-45.8-25.4c-32.4-51.6-64.8-103.3-97.2-154.9c2.5-2.8,19.4-21.3,47.2-21.1c27.4,0.2,44,18.3,46.5,21.1
		C664.5,75.3,696.9,126.9,729.3,178.6z"/>
	<linearGradient id="SVGID_7_" gradientUnits="userSpaceOnUse" x1="632.1371" y1="103.2096" x2="822.9822" y2="103.2096">
		<stop  offset="0" style="stop-color:#B49276"/>
		<stop  offset="9.902107e-02" style="stop-color:#C5A384"/>
		<stop  offset="0.2853" style="stop-color:#E2BF9D"/>
		<stop  offset="0.4494" style="stop-color:#F2D0AC"/>
		<stop  offset="0.5727" style="stop-color:#F8D5B0"/>
		<stop  offset="1" style="stop-color:#FEEFDA"/>
	</linearGradient>
	<path fill="url(#SVGID_7_)" stroke="#000000" stroke-width="5" stroke-miterlimit="10" d="M823,178.6c-1,1.6-17.7,25.9-47.9,25.4
		c-28.9-0.5-44.5-23.4-45.8-25.4c-32.4-51.6-64.8-103.3-97.2-154.9c2.5-2.8,19.4-21.3,47.2-21.1c27.4,0.2,44,18.3,46.5,21.1
		C758.2,75.3,790.6,126.9,823,178.6z"/>
	<linearGradient id="SVGID_8_" gradientUnits="userSpaceOnUse" x1="725.7991" y1="103.2096" x2="916.6442" y2="103.2096">
		<stop  offset="0.8056" style="stop-color:#FADFD0"/>
		<stop  offset="1" style="stop-color:#FAD2BA"/>
	</linearGradient>
	<path fill="url(#SVGID_8_)" stroke="#000000" stroke-width="5" stroke-miterlimit="10" d="M916.6,178.6c-1,1.6-17.7,25.9-47.9,25.4
		c-28.9-0.5-44.5-23.4-45.8-25.4c-32.4-51.6-64.8-103.3-97.2-154.9c2.5-2.8,19.4-21.3,47.2-21.1c27.4,0.2,44,18.3,46.5,21.1
		C851.9,75.3,884.2,126.9,916.6,178.6z"/>
	<path fill="#F5EDDF" stroke="#000000" stroke-width="5" stroke-miterlimit="10" d="M1010.3,178.6c-1,1.6-17.7,25.9-47.9,25.4
		c-28.9-0.5-44.5-23.4-45.8-25.4c-32.4-51.6-64.8-103.3-97.2-154.9c2.5-2.8,19.4-21.3,47.2-21.1c27.4,0.2,44,18.3,46.5,21.1
		C945.5,75.3,977.9,126.9,1010.3,178.6z"/>
	<linearGradient id="SVGID_9_" gradientUnits="userSpaceOnUse" x1="913.123" y1="103.2096" x2="1103.9681" y2="103.2096">
		<stop  offset="0" style="stop-color:#B49276"/>
		<stop  offset="9.902107e-02" style="stop-color:#C5A384"/>
		<stop  offset="0.2853" style="stop-color:#E2BF9D"/>
		<stop  offset="0.4494" style="stop-color:#F2D0AC"/>
		<stop  offset="0.5727" style="stop-color:#F8D5B0"/>
		<stop  offset="1" style="stop-color:#FEEFDA"/>
	</linearGradient>
	<path fill="url(#SVGID_9_)" stroke="#000000" stroke-width="5" stroke-miterlimit="10" d="M1104,178.6c-1,1.6-17.7,25.9-47.9,25.4
		c-28.9-0.5-44.5-23.4-45.8-25.4c-32.4-51.6-64.8-103.3-97.2-154.9c2.5-2.8,19.4-21.3,47.2-21.1c27.4,0.2,44,18.3,46.5,21.1
		C1039.2,75.3,1071.6,126.9,1104,178.6z"/>
	<linearGradient id="SVGID_10_" gradientUnits="userSpaceOnUse" x1="1006.785" y1="103.2096" x2="1197.6301" y2="103.2096">
		<stop  offset="0.8056" style="stop-color:#FADFD0"/>
		<stop  offset="1" style="stop-color:#FAD2BA"/>
	</linearGradient>
	<path fill="url(#SVGID_10_)" stroke="#000000" stroke-width="5" stroke-miterlimit="10" d="M1197.6,178.6
		c-1,1.6-17.7,25.9-47.9,25.4c-28.9-0.5-44.5-23.4-45.8-25.4c-32.4-51.6-64.8-103.3-97.2-154.9c2.5-2.8,19.4-21.3,47.2-21.1
		c27.4,0.2,44,18.3,46.5,21.1C1132.8,75.3,1165.2,126.9,1197.6,178.6z"/>
	<path fill="#F5EDDF" stroke="#000000" stroke-width="5" stroke-miterlimit="10" d="M1291.3,178.6c-1,1.6-17.7,25.9-47.9,25.4
		c-28.9-0.5-44.5-23.4-45.8-25.4c-32.4-51.6-64.8-103.3-97.2-154.9c2.5-2.8,19.4-21.3,47.2-21.1c27.4,0.2,44,18.3,46.5,21.1
		C1226.5,75.3,1258.9,126.9,1291.3,178.6z"/>
	<linearGradient id="SVGID_11_" gradientUnits="userSpaceOnUse" x1="1194.109" y1="103.2096" x2="1384.9541" y2="103.2096">
		<stop  offset="0" style="stop-color:#B49276"/>
		<stop  offset="9.902107e-02" style="stop-color:#C5A384"/>
		<stop  offset="0.2853" style="stop-color:#E2BF9D"/>
		<stop  offset="0.4494" style="stop-color:#F2D0AC"/>
		<stop  offset="0.5727" style="stop-color:#F8D5B0"/>
		<stop  offset="1" style="stop-color:#FEEFDA"/>
	</linearGradient>
	<path fill="url(#SVGID_11_)" stroke="#000000" stroke-width="5" stroke-miterlimit="10" d="M1385,178.6c-1,1.6-17.7,25.9-47.9,25.4
		c-28.9-0.5-44.5-23.4-45.8-25.4c-32.4-51.6-64.8-103.3-97.2-154.9c2.5-2.8,19.4-21.3,47.2-21.1c27.4,0.2,44,18.3,46.5,21.1
		C1320.2,75.3,1352.6,126.9,1385,178.6z"/>
	<linearGradient id="SVGID_12_" gradientUnits="userSpaceOnUse" x1="1287.771" y1="103.2096" x2="1478.616" y2="103.2096">
		<stop  offset="0.8056" style="stop-color:#FADFD0"/>
		<stop  offset="1" style="stop-color:#FAD2BA"/>
	</linearGradient>
	<path fill="url(#SVGID_12_)" stroke="#000000" stroke-width="5" stroke-miterlimit="10" d="M1478.6,178.6
		c-1,1.6-17.7,25.9-47.9,25.4c-28.9-0.5-44.5-23.4-45.8-25.4c-32.4-51.6-64.8-103.3-97.2-154.9c2.5-2.8,19.4-21.3,47.2-21.1
		c27.4,0.2,44,18.3,46.5,21.1C1413.8,75.3,1446.2,126.9,1478.6,178.6z"/>
	<path fill="#F5EDDF" stroke="#000000" stroke-width="5" stroke-miterlimit="10" d="M1572.3,178.6c-1,1.6-17.7,25.9-47.9,25.4
		c-28.9-0.5-44.5-23.4-45.8-25.4c-32.4-51.6-64.8-103.3-97.2-154.9c2.5-2.8,19.4-21.3,47.2-21.1c27.4,0.2,44,18.3,46.5,21.1
		C1507.5,75.3,1539.9,126.9,1572.3,178.6z"/>
	<linearGradient id="SVGID_13_" gradientUnits="userSpaceOnUse" x1="1475.0948" y1="103.2096" x2="1665.9399" y2="103.2096">
		<stop  offset="0" style="stop-color:#B49276"/>
		<stop  offset="9.902107e-02" style="stop-color:#C5A384"/>
		<stop  offset="0.2853" style="stop-color:#E2BF9D"/>
		<stop  offset="0.4494" style="stop-color:#F2D0AC"/>
		<stop  offset="0.5727" style="stop-color:#F8D5B0"/>
		<stop  offset="1" style="stop-color:#FEEFDA"/>
	</linearGradient>
	<path fill="url(#SVGID_13_)" stroke="#000000" stroke-width="5" stroke-miterlimit="10" d="M1665.9,178.6
		c-1,1.6-17.7,25.9-47.9,25.4c-28.9-0.5-44.5-23.4-45.8-25.4c-32.4-51.6-64.8-103.3-97.2-154.9c2.5-2.8,19.4-21.3,47.2-21.1
		c27.4,0.2,44,18.3,46.5,21.1C1601.2,75.3,1633.5,126.9,1665.9,178.6z"/>
	<linearGradient id="SVGID_14_" gradientUnits="userSpaceOnUse" x1="1568.7568" y1="103.2096" x2="1759.6019" y2="103.2096">
		<stop  offset="0.8056" style="stop-color:#FADFD0"/>
		<stop  offset="1" style="stop-color:#FAD2BA"/>
	</linearGradient>
	<path fill="url(#SVGID_14_)" stroke="#000000" stroke-width="5" stroke-miterlimit="10" d="M1759.6,178.6
		c-1,1.6-17.7,25.9-47.9,25.4c-28.9-0.5-44.5-23.4-45.8-25.4c-32.4-51.6-64.8-103.3-97.2-154.9c2.5-2.8,19.4-21.3,47.2-21.1
		c27.4,0.2,44,18.3,46.5,21.1C1694.8,75.3,1727.2,126.9,1759.6,178.6z"/>
	<path fill="#F5EDDF" stroke="#000000" stroke-width="5" stroke-miterlimit="10" d="M1853.3,178.6c-1,1.6-17.7,25.9-47.9,25.4
		c-28.9-0.5-44.5-23.4-45.8-25.4c-32.4-51.6-64.8-103.3-97.2-154.9c2.5-2.8,19.4-21.3,47.2-21.1c27.4,0.2,44,18.3,46.5,21.1
		C1788.5,75.3,1820.9,126.9,1853.3,178.6z"/>
	<linearGradient id="SVGID_15_" gradientUnits="userSpaceOnUse" x1="1756.0808" y1="103.2096" x2="1946.9259" y2="103.2096">
		<stop  offset="0" style="stop-color:#B49276"/>
		<stop  offset="9.902107e-02" style="stop-color:#C5A384"/>
		<stop  offset="0.2853" style="stop-color:#E2BF9D"/>
		<stop  offset="0.4494" style="stop-color:#F2D0AC"/>
		<stop  offset="0.5727" style="stop-color:#F8D5B0"/>
		<stop  offset="1" style="stop-color:#FEEFDA"/>
	</linearGradient>
	<path fill="url(#SVGID_15_)" stroke="#000000" stroke-width="5" stroke-miterlimit="10" d="M1946.9,178.6
		c-1,1.6-17.7,25.9-47.9,25.4c-28.9-0.5-44.5-23.4-45.8-25.4c-32.4-51.6-64.8-103.3-97.2-154.9c2.5-2.8,19.4-21.3,47.2-21.1
		c27.4,0.2,44,18.3,46.5,21.1C1882.1,75.3,1914.5,126.9,1946.9,178.6z"/>
	<linearGradient id="SVGID_16_" gradientUnits="userSpaceOnUse" x1="1849.7428" y1="103.2096" x2="2040.5879" y2="103.2096">
		<stop  offset="0.8056" style="stop-color:#FADFD0"/>
		<stop  offset="1" style="stop-color:#FAD2BA"/>
	</linearGradient>
	<path fill="url(#SVGID_16_)" stroke="#000000" stroke-width="5" stroke-miterlimit="10" d="M2040.6,178.6
		c-1,1.6-17.7,25.9-47.9,25.4c-28.9-0.5-44.5-23.4-45.8-25.4c-32.4-51.6-64.8-103.3-97.2-154.9c2.5-2.8,19.4-21.3,47.2-21.1
		c27.4,0.2,44,18.3,46.5,21.1C1975.8,75.3,2008.2,126.9,2040.6,178.6z"/>
	<path fill="#F5EDDF" stroke="#000000" stroke-width="5" stroke-miterlimit="10" d="M2134.2,178.6c-1,1.6-17.7,25.9-47.9,25.4
		c-28.9-0.5-44.5-23.4-45.8-25.4c-32.4-51.6-64.8-103.3-97.2-154.9c2.5-2.8,19.4-21.3,47.2-21.1c27.4,0.2,44,18.3,46.5,21.1
		C2069.5,75.3,2101.9,126.9,2134.2,178.6z"/>
	<linearGradient id="SVGID_17_" gradientUnits="userSpaceOnUse" x1="2037.0667" y1="103.2096" x2="2227.9119" y2="103.2096">
		<stop  offset="0" style="stop-color:#B49276"/>
		<stop  offset="9.902107e-02" style="stop-color:#C5A384"/>
		<stop  offset="0.2853" style="stop-color:#E2BF9D"/>
		<stop  offset="0.4494" style="stop-color:#F2D0AC"/>
		<stop  offset="0.5727" style="stop-color:#F8D5B0"/>
		<stop  offset="1" style="stop-color:#FEEFDA"/>
	</linearGradient>
	<path fill="url(#SVGID_17_)" stroke="#000000" stroke-width="5" stroke-miterlimit="10" d="M2227.9,178.6
		c-1,1.6-17.7,25.9-47.9,25.4c-28.9-0.5-44.5-23.4-45.8-25.4c-32.4-51.6-64.8-103.3-97.2-154.9c2.5-2.8,19.4-21.3,47.2-21.1
		c27.4,0.2,44,18.3,46.5,21.1C2163.1,75.3,2195.5,126.9,2227.9,178.6z"/>
	<linearGradient id="SVGID_18_" gradientUnits="userSpaceOnUse" x1="2130.7288" y1="103.2096" x2="2321.5737" y2="103.2096">
		<stop  offset="0.8056" style="stop-color:#FADFD0"/>
		<stop  offset="1" style="stop-color:#FAD2BA"/>
	</linearGradient>
	<path fill="url(#SVGID_18_)" stroke="#000000" stroke-width="5" stroke-miterlimit="10" d="M2321.6,178.6
		c-1,1.6-17.7,25.9-47.9,25.4c-28.9-0.5-44.5-23.4-45.8-25.4c-32.4-51.6-64.8-103.3-97.2-154.9c2.5-2.8,19.4-21.3,47.2-21.1
		c27.4,0.2,44,18.3,46.5,21.1C2256.8,75.3,2289.2,126.9,2321.6,178.6z"/>
	<path fill="#F5EDDF" stroke="#000000" stroke-width="5" stroke-miterlimit="10" d="M2415.2,178.6c-1,1.6-17.7,25.9-47.9,25.4
		c-28.9-0.5-44.5-23.4-45.8-25.4c-32.4-51.6-64.8-103.3-97.2-154.9c2.5-2.8,19.4-21.3,47.2-21.1c27.4,0.2,44,18.3,46.5,21.1
		C2350.4,75.3,2382.8,126.9,2415.2,178.6z"/>
	<linearGradient id="SVGID_19_" gradientUnits="userSpaceOnUse" x1="2318.0527" y1="103.2096" x2="2508.8977" y2="103.2096">
		<stop  offset="0" style="stop-color:#B49276"/>
		<stop  offset="9.902107e-02" style="stop-color:#C5A384"/>
		<stop  offset="0.2853" style="stop-color:#E2BF9D"/>
		<stop  offset="0.4494" style="stop-color:#F2D0AC"/>
		<stop  offset="0.5727" style="stop-color:#F8D5B0"/>
		<stop  offset="1" style="stop-color:#FEEFDA"/>
	</linearGradient>
	<path fill="url(#SVGID_19_)" stroke="#000000" stroke-width="5" stroke-miterlimit="10" d="M2508.9,178.6
		c-1,1.6-17.7,25.9-47.9,25.4c-28.9-0.5-44.5-23.4-45.8-25.4c-32.4-51.6-64.8-103.3-97.2-154.9c2.5-2.8,19.4-21.3,47.2-21.1
		c27.4,0.2,44,18.3,46.5,21.1C2444.1,75.3,2476.5,126.9,2508.9,178.6z"/>
	<linearGradient id="SVGID_20_" gradientUnits="userSpaceOnUse" x1="2411.7146" y1="103.2096" x2="2602.5596" y2="103.2096">
		<stop  offset="0.8056" style="stop-color:#FADFD0"/>
		<stop  offset="1" style="stop-color:#FAD2BA"/>
	</linearGradient>
	<path fill="url(#SVGID_20_)" stroke="#000000" stroke-width="5" stroke-miterlimit="10" d="M2602.6,178.6
		c-1,1.6-17.7,25.9-47.9,25.4c-28.9-0.5-44.5-23.4-45.8-25.4c-32.4-51.6-64.8-103.3-97.2-154.9c2.5-2.8,19.4-21.3,47.2-21.1
		c27.4,0.2,44,18.3,46.5,21.1C2537.8,75.3,2570.2,126.9,2602.6,178.6z"/>
	<path fill="#F5EDDF" stroke="#000000" stroke-width="5" stroke-miterlimit="10" d="M2696.2,178.6c-1,1.6-17.7,25.9-47.9,25.4
		c-28.9-0.5-44.5-23.4-45.8-25.4c-32.4-51.6-64.8-103.3-97.2-154.9c2.5-2.8,19.4-21.3,47.2-21.1c27.4,0.2,44,18.3,46.5,21.1
		C2631.4,75.3,2663.8,126.9,2696.2,178.6z"/>
	<linearGradient id="SVGID_21_" gradientUnits="userSpaceOnUse" x1="2599.0386" y1="103.2096" x2="2789.8835" y2="103.2096">
		<stop  offset="0" style="stop-color:#B49276"/>
		<stop  offset="9.902107e-02" style="stop-color:#C5A384"/>
		<stop  offset="0.2853" style="stop-color:#E2BF9D"/>
		<stop  offset="0.4494" style="stop-color:#F2D0AC"/>
		<stop  offset="0.5727" style="stop-color:#F8D5B0"/>
		<stop  offset="1" style="stop-color:#FEEFDA"/>
	</linearGradient>
	<path fill="url(#SVGID_21_)" stroke="#000000" stroke-width="5" stroke-miterlimit="10" d="M2789.9,178.6
		c-1,1.6-17.7,25.9-47.9,25.4c-28.9-0.5-44.5-23.4-45.8-25.4c-32.4-51.6-64.8-103.3-97.2-154.9c2.5-2.8,19.4-21.3,47.2-21.1
		c27.4,0.2,44,18.3,46.5,21.1C2725.1,75.3,2757.5,126.9,2789.9,178.6z"/>
	<linearGradient id="SVGID_22_" gradientUnits="userSpaceOnUse" x1="2692.7004" y1="103.2096" x2="2883.5457" y2="103.2096">
		<stop  offset="0.8056" style="stop-color:#FADFD0"/>
		<stop  offset="1" style="stop-color:#FAD2BA"/>
	</linearGradient>
	<path fill="url(#SVGID_22_)" stroke="#000000" stroke-width="5" stroke-miterlimit="10" d="M2883.5,178.6
		c-1,1.6-17.7,25.9-47.9,25.4c-28.9-0.5-44.5-23.4-45.8-25.4c-32.4-51.6-64.8-103.3-97.2-154.9c2.5-2.8,19.4-21.3,47.2-21.1
		c27.4,0.2,44,18.3,46.5,21.1C2818.8,75.3,2851.2,126.9,2883.5,178.6z"/>
	<path fill="#F5EDDF" stroke="#000000" stroke-width="5" stroke-miterlimit="10" d="M2977.2,178.6c-1,1.6-17.7,25.9-47.9,25.4
		c-28.9-0.5-44.5-23.4-45.8-25.4c-32.4-51.6-64.8-103.3-97.2-154.9c2.5-2.8,19.4-21.3,47.2-21.1c27.4,0.2,44,18.3,46.5,21.1
		C2912.4,75.3,2944.8,126.9,2977.2,178.6z"/>
	<linearGradient id="SVGID_23_" gradientUnits="userSpaceOnUse" x1="2880.0244" y1="103.2096" x2="3070.8696" y2="103.2096">
		<stop  offset="0" style="stop-color:#B49276"/>
		<stop  offset="9.902107e-02" style="stop-color:#C5A384"/>
		<stop  offset="0.2853" style="stop-color:#E2BF9D"/>
		<stop  offset="0.4494" style="stop-color:#F2D0AC"/>
		<stop  offset="0.5727" style="stop-color:#F8D5B0"/>
		<stop  offset="1" style="stop-color:#FEEFDA"/>
	</linearGradient>
	<path fill="url(#SVGID_23_)" stroke="#000000" stroke-width="5" stroke-miterlimit="10" d="M3070.9,178.6
		c-1,1.6-17.7,25.9-47.9,25.4c-28.9-0.5-44.5-23.4-45.8-25.4c-32.4-51.6-64.8-103.3-97.2-154.9c2.5-2.8,19.4-21.3,47.2-21.1
		c27.4,0.2,44,18.3,46.5,21.1C3006.1,75.3,3038.5,126.9,3070.9,178.6z"/>
	<linearGradient id="SVGID_24_" gradientUnits="userSpaceOnUse" x1="2973.6865" y1="103.2096" x2="3164.5315" y2="103.2096">
		<stop  offset="0.8056" style="stop-color:#FADFD0"/>
		<stop  offset="1" style="stop-color:#FAD2BA"/>
	</linearGradient>
	<path fill="url(#SVGID_24_)" stroke="#000000" stroke-width="5" stroke-miterlimit="10" d="M3164.5,178.6
		c-1,1.6-17.7,25.9-47.9,25.4c-28.9-0.5-44.5-23.4-45.8-25.4c-32.4-51.6-64.8-103.3-97.2-154.9c2.5-2.8,19.4-21.3,47.2-21.1
		c27.4,0.2,44,18.3,46.5,21.1C3099.7,75.3,3132.1,126.9,3164.5,178.6z"/>
	<path fill="#F5EDDF" stroke="#000000" stroke-width="5" stroke-miterlimit="10" d="M3258.2,178.6c-1,1.6-17.7,25.9-47.9,25.4
		c-28.9-0.5-44.5-23.4-45.8-25.4c-32.4-51.6-64.8-103.3-97.2-154.9c2.5-2.8,19.4-21.3,47.2-21.1c27.4,0.2,44,18.3,46.5,21.1
		C3193.4,75.3,3225.8,126.9,3258.2,178.6z"/>
	<linearGradient id="SVGID_25_" gradientUnits="userSpaceOnUse" x1="3161.0103" y1="103.2096" x2="3351.8555" y2="103.2096">
		<stop  offset="0" style="stop-color:#B49276"/>
		<stop  offset="9.902107e-02" style="stop-color:#C5A384"/>
		<stop  offset="0.2853" style="stop-color:#E2BF9D"/>
		<stop  offset="0.4494" style="stop-color:#F2D0AC"/>
		<stop  offset="0.5727" style="stop-color:#F8D5B0"/>
		<stop  offset="1" style="stop-color:#FEEFDA"/>
	</linearGradient>
	<path fill="url(#SVGID_25_)" stroke="#000000" stroke-width="5" stroke-miterlimit="10" d="M3351.9,178.6
		c-1,1.6-17.7,25.9-47.9,25.4c-28.9-0.5-44.5-23.4-45.8-25.4c-32.4-51.6-64.8-103.3-97.2-154.9c2.5-2.8,19.4-21.3,47.2-21.1
		c27.4,0.2,44,18.3,46.5,21.1C3287.1,75.3,3319.5,126.9,3351.9,178.6z"/>
</g>
</svg>
